cryptokit.1.0.ufo
<glyph name="plus" format="2">
  <advance width="1200"/>
  <unicode hex="002B"/>
  <outline>
    <contour>
      <point x="638.162" y="57" type="line"/>
      <point x="638.162" y="266" type="line"/>
      <point x="833.162" y="266" type="line"/>
      <point x="833.162" y="334" type="line"/>
      <point x="638.162" y="334" type="line"/>
      <point x="638.162" y="543" type="line"/>
      <point x="562.162" y="543" type="line"/>
      <point x="562.162" y="334" type="line"/>
      <point x="367.162" y="334" type="line"/>
      <point x="367.162" y="266" type="line"/>
      <point x="562.162" y="266" type="line"/>
      <point x="562.162" y="57" type="line"/>
    </contour>
  </outline>
</glyph>
<glyph name="equal" format="2">
  <advance width="1200"/>
  <unicode hex="003D"/>
  <outline>
    <contour>
      <point x="833.022" y="366" type="line"/>
      <point x="833.022" y="434" type="line"/>
      <point x="367.022" y="434" type="line"/>
      <point x="367.022" y="366" type="line"/>
    </contour>
    <contour>
      <point x="833.022" y="166" type="line"/>
      <point x="833.022" y="234" type="line"/>
      <point x="367.022" y="234" type="line"/>
      <point x="367.022" y="166" type="line"/>
    </contour>
  </outline>
</glyph>
<glyph name="pound_sterling" format="2">
  <advance width="1200"/>
  <unicode hex="00A3"/>
  <outline>
    <contour>
      <point x="157" y="299.6" type="curve" smooth="yes"/>
      <point x="157" y="543.9"/>
      <point x="355.3" y="742.2"/>
      <point x="599.6" y="742.2" type="curve" smooth="yes"/>
      <point x="843.85" y="742.2"/>
      <point x="1042.2" y="543.9"/>
      <point x="1042.2" y="299.6" type="curve" smooth="yes"/>
      <point x="1042.2" y="55.35"/>
      <point x="843.85" y="-143"/>
      <point x="599.6" y="-143" type="curve" smooth="yes"/>
      <point x="355.3" y="-143"/>
      <point x="157" y="55.35"/>
    </contour>
    <contour>
      <point x="503.65" y="667.25" type="curve"/>
      <point x="518.75" y="608.5" type="line"/>
      <point x="544.7" y="615.35"/>
      <point x="571.95" y="619"/>
      <point x="600.05" y="619" type="curve" smooth="yes"/>
      <point x="776.1" y="619"/>
      <point x="919.05" y="476.05"/>
      <point x="919.05" y="299.75" type="curve"/>
      <point x="979.65" y="299.9" type="line"/>
      <point x="979.65" y="509.55"/>
      <point x="809.55" y="679.65"/>
      <point x="600.05" y="679.65" type="curve" smooth="yes"/>
      <point x="566.75" y="679.65"/>
      <point x="534.45" y="675.35"/>
    </contour>
    <contour>
      <point x="222.35" y="338.5" type="curve"/>
      <point x="282.65" y="332.15" type="line"/>
      <point x="289.65" y="402.15"/>
      <point x="319.35" y="465.45"/>
      <point x="364.2" y="514.7" type="curve"/>
      <point x="319.6" y="555.8" type="line"/>
      <point x="266.15" y="497.25"/>
      <point x="230.75" y="421.85"/>
    </contour>
    <contour>
      <point x="728.6" y="155.85" type="line"/>
      <point x="511.25" y="155.85" type="line"/>
      <point x="511.25" y="159.6" type="line"/>
      <point x="534.75" y="173.85"/>
      <point x="558.25" y="206.7"/>
      <point x="558.25" y="251.95" type="curve" smooth="yes"/>
      <point x="558.25" y="260"/>
      <point x="557.65" y="266.8"/>
      <point x="556.4" y="273.65" type="curve"/>
      <point x="666.65" y="273.65" type="line"/>
      <point x="666.65" y="329.95" type="line"/>
      <point x="537.8" y="329.95" type="line"/>
      <point x="531" y="351"/>
      <point x="524.2" y="371.45"/>
      <point x="524.2" y="396.85" type="curve" smooth="yes"/>
      <point x="524.2" y="447.7"/>
      <point x="552.7" y="474.35"/>
      <point x="601" y="474.35" type="curve" smooth="yes"/>
      <point x="639.4" y="474.35"/>
      <point x="666.05" y="457.6"/>
      <point x="687.75" y="426" type="curve"/>
      <point x="739.15" y="462.55" type="line"/>
      <point x="709.4" y="509"/>
      <point x="665.45" y="535"/>
      <point x="601" y="535" type="curve" smooth="yes"/>
      <point x="509.3" y="535"/>
      <point x="453" y="482.4"/>
      <point x="453" y="406.15" type="curve" smooth="yes"/>
      <point x="453" y="377.05"/>
      <point x="461.05" y="353.5"/>
      <point x="468.5" y="329.95" type="curve"/>
      <point x="426.35" y="329.95" type="line"/>
      <point x="426.35" y="273.65" type="line"/>
      <point x="487.7" y="273.65" type="line"/>
      <point x="488.95" y="265.6"/>
      <point x="490.2" y="256.3"/>
      <point x="490.2" y="247.6" type="curve" smooth="yes"/>
      <point x="490.2" y="212.85"/>
      <point x="475.9" y="181.3"/>
      <point x="442.5" y="166.4" type="curve"/>
      <point x="442.5" y="95.2" type="line"/>
      <point x="728.6" y="95.2" type="line"/>
    </contour>
    <contour>
      <point x="308.9" y="169.55" type="curve"/>
      <point x="253.5" y="144.8" type="line"/>
      <point x="312.9" y="12.55"/>
      <point x="445.75" y="-79.65"/>
      <point x="600.05" y="-79.65" type="curve" smooth="yes"/>
      <point x="679.35" y="-79.65"/>
      <point x="752.95" y="-55.25"/>
      <point x="813.9" y="-13.6" type="curve"/>
      <point x="779.45" y="36.3" type="line"/>
      <point x="728.35" y="1.40001"/>
      <point x="666.55" y="-19"/>
      <point x="600.05" y="-19" type="curve" smooth="yes"/>
      <point x="470.45" y="-19"/>
      <point x="358.8" y="58.45"/>
    </contour>
  </outline>
</glyph>
<glyph name="divide" format="2">
  <advance width="1200"/>
  <unicode hex="00F7"/>
  <outline>
    <contour>
      <point x="831.274" y="266" type="line"/>
      <point x="831.274" y="334" type="line"/>
      <point x="365.274" y="334" type="line"/>
      <point x="365.274" y="266" type="line"/>
    </contour>
    <contour>
      <point x="536.274" y="493.785" type="curve" smooth="yes"/>
      <point x="536.274" y="458.895"/>
      <point x="564.6" y="430.57"/>
      <point x="599.49" y="430.57" type="curve" smooth="yes"/>
      <point x="634.379" y="430.57"/>
      <point x="662.705" y="458.895"/>
      <point x="662.705" y="493.785" type="curve" smooth="yes"/>
      <point x="662.705" y="528.674"/>
      <point x="634.379" y="557"/>
      <point x="599.49" y="557" type="curve" smooth="yes"/>
      <point x="564.6" y="557"/>
      <point x="536.274" y="528.674"/>
    </contour>
    <contour>
      <point x="536.274" y="105.95" type="curve" smooth="yes"/>
      <point x="536.274" y="71.061"/>
      <point x="564.6" y="42.7352"/>
      <point x="599.49" y="42.7352" type="curve" smooth="yes"/>
      <point x="634.379" y="42.7352"/>
      <point x="662.705" y="71.061"/>
      <point x="662.705" y="105.95" type="curve" smooth="yes"/>
      <point x="662.705" y="140.84"/>
      <point x="634.379" y="169.166"/>
      <point x="599.49" y="169.166" type="curve" smooth="yes"/>
      <point x="564.6" y="169.166"/>
      <point x="536.274" y="140.84"/>
    </contour>
  </outline>
</glyph>
<glyph name="arrowleft" format="2">
  <advance width="1200"/>
  <unicode hex="2190"/>
  <outline>
    <contour>
      <point x="219.55" y="299.95" type="line" name="hr00"/>
      <point x="426.55" y="92.95" type="line"/>
      <point x="475.55" y="140.95" type="line"/>
      <point x="388.55" y="226.95" type="line"/>
      <point x="338.55" y="268.95" type="line"/>
      <point x="339.55" y="271.95" type="line"/>
      <point x="436.55" y="265.95" type="line"/>
      <point x="1172.05" y="265.95" type="line"/>
      <point x="1172.05" y="333.95" type="line"/>
      <point x="436.55" y="333.95" type="line"/>
      <point x="339.55" y="327.95" type="line"/>
      <point x="338.55" y="330.95" type="line"/>
      <point x="388.55" y="372.95" type="line"/>
      <point x="475.55" y="458.95" type="line"/>
      <point x="426.55" y="506.95" type="line"/>
    </contour>
  </outline>
  <guideline angle="0" x="0" y="300"/>
</glyph>
<glyph name="arrowup" format="2">
  <advance width="1200"/>
  <unicode hex="2191"/>
  <outline>
    <contour>
      <point x="600" y="700" type="line" name="hr00"/>
      <point x="393" y="493" type="line"/>
      <point x="441" y="444" type="line"/>
      <point x="527" y="531" type="line"/>
      <point x="569" y="581" type="line"/>
      <point x="572" y="580" type="line"/>
      <point x="566" y="483" type="line"/>
      <point x="566" y="-252.918" type="line"/>
      <point x="634" y="-252.918" type="line"/>
      <point x="634" y="483" type="line"/>
      <point x="628" y="580" type="line"/>
      <point x="631" y="581" type="line"/>
      <point x="673" y="531" type="line"/>
      <point x="759" y="444" type="line"/>
      <point x="807" y="493" type="line"/>
    </contour>
  </outline>
</glyph>
<glyph name="arrowleftright" format="2">
  <advance width="1200"/>
  <unicode hex="2194"/>
  <outline>
    <contour>
      <point x="100" y="300" type="line" name="hr00"/>
      <point x="307" y="93" type="line"/>
      <point x="356" y="141" type="line"/>
      <point x="269" y="227" type="line"/>
      <point x="219" y="269" type="line"/>
      <point x="220" y="272" type="line"/>
      <point x="317" y="266" type="line"/>
      <point x="883" y="266" type="line"/>
      <point x="980" y="272" type="line"/>
      <point x="981" y="269" type="line"/>
      <point x="931" y="227" type="line"/>
      <point x="844" y="141" type="line"/>
      <point x="893" y="93" type="line"/>
      <point x="1100" y="300" type="line"/>
      <point x="893" y="507" type="line"/>
      <point x="844" y="459" type="line"/>
      <point x="931" y="373" type="line"/>
      <point x="981" y="331" type="line"/>
      <point x="980" y="328" type="line"/>
      <point x="883" y="334" type="line"/>
      <point x="317" y="334" type="line"/>
      <point x="220" y="328" type="line"/>
      <point x="219" y="331" type="line"/>
      <point x="269" y="373" type="line"/>
      <point x="356" y="459" type="line"/>
      <point x="307" y="507" type="line"/>
    </contour>
  </outline>
</glyph>
<glyph name="arrowupdown" format="2">
  <advance width="1200"/>
  <unicode hex="2195"/>
  <outline>
    <contour>
      <point x="600" y="800" type="line" name="hr00"/>
      <point x="393" y="593" type="line"/>
      <point x="441" y="544" type="line"/>
      <point x="527" y="631" type="line"/>
      <point x="569" y="681" type="line"/>
      <point x="572" y="680" type="line"/>
      <point x="566" y="583" type="line"/>
      <point x="566" y="17" type="line"/>
      <point x="572" y="-80" type="line"/>
      <point x="569" y="-81" type="line"/>
      <point x="527" y="-31" type="line"/>
      <point x="441" y="56" type="line"/>
      <point x="393" y="7" type="line"/>
      <point x="600" y="-200" type="line"/>
      <point x="807" y="7" type="line"/>
      <point x="759" y="56" type="line"/>
      <point x="673" y="-31" type="line"/>
      <point x="631" y="-81" type="line"/>
      <point x="628" y="-80" type="line"/>
      <point x="634" y="17" type="line"/>
      <point x="634" y="583" type="line"/>
      <point x="628" y="680" type="line"/>
      <point x="631" y="681" type="line"/>
      <point x="673" y="631" type="line"/>
      <point x="759" y="544" type="line"/>
      <point x="807" y="593" type="line"/>
    </contour>
  </outline>
</glyph>
<glyph name="arrowupleft" format="2">
  <advance width="1200"/>
  <unicode hex="2196"/>
  <outline>
    <contour>
      <point x="260.5" y="652.25" type="line" name="hr00"/>
      <point x="260.5" y="359.5" type="line"/>
      <point x="329.1" y="358.8" type="line"/>
      <point x="328.4" y="481.15" type="line"/>
      <point x="322.75" y="546.2" type="line"/>
      <point x="325.55" y="547.6" type="line"/>
      <point x="389.9" y="474.8" type="line"/>
      <point x="917.05" y="-52.4" type="line"/>
      <point x="965.15" y="-4.30002" type="line"/>
      <point x="438" y="522.85" type="line"/>
      <point x="365.15" y="587.2" type="line"/>
      <point x="366.55" y="590.05" type="line"/>
      <point x="431.6" y="584.4" type="line"/>
      <point x="553.95" y="583.65" type="line"/>
      <point x="553.25" y="652.25" type="line"/>
    </contour>
  </outline>
</glyph>
<glyph name="arrowhookleft" format="2">
  <advance width="1200"/>
  <unicode hex="21A9"/>
  <outline>
    <contour>
      <point x="320" y="191" type="line" name="hr00"/>
      <point x="527" y="-16" type="line"/>
      <point x="576" y="32" type="line"/>
      <point x="489" y="118" type="line"/>
      <point x="439" y="160" type="line"/>
      <point x="440" y="163" type="line"/>
      <point x="537" y="157" type="line"/>
      <point x="674" y="157" type="line" smooth="yes"/>
      <point x="785" y="157"/>
      <point x="880" y="219"/>
      <point x="880" y="343" type="curve" smooth="yes"/>
      <point x="880" y="467"/>
      <point x="785" y="529"/>
      <point x="674" y="529" type="curve"/>
      <point x="674" y="461" type="line"/>
      <point x="743" y="461"/>
      <point x="806" y="426"/>
      <point x="806" y="343" type="curve" smooth="yes"/>
      <point x="806" y="260"/>
      <point x="743" y="225"/>
      <point x="674" y="225" type="curve" smooth="yes"/>
      <point x="537" y="225" type="line"/>
      <point x="440" y="219" type="line"/>
      <point x="439" y="222" type="line"/>
      <point x="489" y="264" type="line"/>
      <point x="576" y="350" type="line"/>
      <point x="527" y="398" type="line"/>
    </contour>
  </outline>
</glyph>
<glyph name="arrowhookright" format="2">
  <advance width="1200"/>
  <unicode hex="21AA"/>
  <outline>
    <contour>
      <point x="880" y="189.8" type="line" name="hr00"/>
      <point x="673" y="396.8" type="line"/>
      <point x="624" y="348.8" type="line"/>
      <point x="711" y="262.8" type="line"/>
      <point x="761" y="220.8" type="line"/>
      <point x="760" y="217.8" type="line"/>
      <point x="663" y="223.8" type="line"/>
      <point x="526" y="223.8" type="line" smooth="yes"/>
      <point x="457" y="223.8"/>
      <point x="394" y="258.8"/>
      <point x="394" y="341.8" type="curve" smooth="yes"/>
      <point x="394" y="424.8"/>
      <point x="457" y="459.8"/>
      <point x="526" y="459.8" type="curve"/>
      <point x="526" y="527.8" type="line"/>
      <point x="415" y="527.8"/>
      <point x="320" y="465.8"/>
      <point x="320" y="341.8" type="curve" smooth="yes"/>
      <point x="320" y="217.8"/>
      <point x="415" y="155.8"/>
      <point x="526" y="155.8" type="curve" smooth="yes"/>
      <point x="663" y="155.8" type="line"/>
      <point x="760" y="161.8" type="line"/>
      <point x="761" y="158.8" type="line"/>
      <point x="711" y="116.8" type="line"/>
      <point x="624" y="30.8" type="line"/>
      <point x="673" y="-17.2" type="line"/>
    </contour>
  </outline>
</glyph>
<glyph name="arrowupleftcorner" format="2">
  <advance width="1200"/>
  <unicode hex="21B0"/>
  <outline>
    <contour>
      <point x="155.2" y="301" type="line" name="hr00"/>
      <point x="362.2" y="94" type="line"/>
      <point x="410.2" y="142" type="line"/>
      <point x="324.2" y="228" type="line"/>
      <point x="274.2" y="270" type="line"/>
      <point x="275.2" y="273" type="line"/>
      <point x="371.2" y="267" type="line"/>
      <point x="566.032" y="267" type="line"/>
      <point x="566.032" y="-350" type="line"/>
      <point x="634.032" y="-350" type="line"/>
      <point x="634.032" y="335" type="line"/>
      <point x="371.2" y="335" type="line"/>
      <point x="275.2" y="329" type="line"/>
      <point x="274.2" y="332" type="line"/>
      <point x="324.2" y="374" type="line"/>
      <point x="410.2" y="460" type="line"/>
      <point x="362.2" y="508" type="line"/>
    </contour>
  </outline>
</glyph>
<glyph name="arrowuprightcorner" format="2">
  <advance width="1200"/>
  <unicode hex="21B1"/>
  <outline>
    <contour>
      <point x="1043.2" y="300" type="line" name="hr00"/>
      <point x="836.2" y="507" type="line"/>
      <point x="788.2" y="459" type="line"/>
      <point x="874.2" y="373" type="line"/>
      <point x="924.2" y="331" type="line"/>
      <point x="923.2" y="328" type="line"/>
      <point x="827.2" y="334" type="line"/>
      <point x="566.026" y="334" type="line"/>
      <point x="566.026" y="-350.1" type="line"/>
      <point x="634.026" y="-350.1" type="line"/>
      <point x="634.026" y="266" type="line"/>
      <point x="827.2" y="266" type="line"/>
      <point x="923.2" y="272" type="line"/>
      <point x="924.2" y="269" type="line"/>
      <point x="874.2" y="227" type="line"/>
      <point x="788.2" y="141" type="line"/>
      <point x="836.2" y="93" type="line"/>
    </contour>
  </outline>
</glyph>
<glyph name="arrowdownrightcorner" format="2">
  <advance width="1200"/>
  <unicode hex="21B3"/>
  <outline>
    <contour>
      <point x="1042.35" y="300.05" type="line" name="hr00"/>
      <point x="835.35" y="507.05" type="line"/>
      <point x="787.35" y="459.05" type="line"/>
      <point x="873.35" y="373.05" type="line"/>
      <point x="923.35" y="331.05" type="line"/>
      <point x="922.35" y="328.05" type="line"/>
      <point x="826.35" y="334.05" type="line"/>
      <point x="634.026" y="334.05" type="line"/>
      <point x="634.026" y="951.8" type="line"/>
      <point x="566.026" y="951.8" type="line"/>
      <point x="566.026" y="266.05" type="line"/>
      <point x="826.35" y="266.05" type="line"/>
      <point x="922.35" y="272.05" type="line"/>
      <point x="923.35" y="269.05" type="line"/>
      <point x="873.35" y="227.05" type="line"/>
      <point x="787.35" y="141.05" type="line"/>
      <point x="835.35" y="93.05" type="line"/>
    </contour>
  </outline>
</glyph>
<glyph name="arrowdowncounterclockhalf" format="2">
  <advance width="1200"/>
  <unicode hex="21B6"/>
  <outline>
    <contour>
      <point x="431" y="41" type="line" name="hr00"/>
      <point x="638" y="248" type="line"/>
      <point x="590" y="297" type="line"/>
      <point x="504" y="210" type="line"/>
      <point x="462" y="160" type="line"/>
      <point x="459" y="161" type="line"/>
      <point x="465" y="258" type="line"/>
      <point x="465" y="420" type="line" smooth="yes"/>
      <point x="465" y="505"/>
      <point x="504" y="588"/>
      <point x="603" y="588" type="curve" smooth="yes"/>
      <point x="680" y="588"/>
      <point x="739" y="529"/>
      <point x="739" y="442" type="curve" smooth="yes"/>
      <point x="739" y="431" type="line"/>
      <point x="807" y="431" type="line"/>
      <point x="807" y="442" type="line" smooth="yes"/>
      <point x="807" y="569"/>
      <point x="723" y="654"/>
      <point x="603" y="654" type="curve" smooth="yes"/>
      <point x="470" y="654"/>
      <point x="397" y="545"/>
      <point x="397" y="421" type="curve" smooth="yes"/>
      <point x="397" y="258" type="line"/>
      <point x="403" y="161" type="line"/>
      <point x="400" y="160" type="line"/>
      <point x="358" y="210" type="line"/>
      <point x="272" y="297" type="line"/>
      <point x="224" y="248" type="line"/>
    </contour>
  </outline>
</glyph>
<glyph name="arrowdowndashed" format="2">
  <advance width="1200"/>
  <unicode hex="21E3"/>
  <outline>
    <contour>
      <point x="600" y="-2" type="line" name="hr00"/>
      <point x="807" y="205" type="line"/>
      <point x="759" y="254" type="line"/>
      <point x="673" y="167" type="line"/>
      <point x="631" y="117" type="line"/>
      <point x="628" y="118" type="line"/>
      <point x="634" y="215" type="line"/>
      <point x="634" y="247" type="line"/>
      <point x="566" y="247" type="line"/>
      <point x="566" y="215" type="line"/>
      <point x="572" y="118" type="line"/>
      <point x="569" y="117" type="line"/>
      <point x="527" y="167" type="line"/>
      <point x="441" y="254" type="line"/>
      <point x="393" y="205" type="line"/>
    </contour>
    <contour>
      <point x="566" y="897" type="line"/>
      <point x="634" y="897" type="line"/>
      <point x="634" y="677" type="line"/>
      <point x="566" y="677" type="line"/>
    </contour>
    <contour>
      <point x="566" y="572" type="line" name="hr00"/>
      <point x="634" y="572" type="line"/>
      <point x="634" y="352" type="line"/>
      <point x="566" y="352" type="line"/>
    </contour>
  </outline>
</glyph>
<glyph name="downwarrowleftofuparrow" format="2">
  <advance width="1200"/>
  <unicode hex="21F5"/>
  <outline>
    <contour>
      <point x="447.55" y="-201.055" type="line" name="hr00"/>
      <point x="654.55" y="5.94519" type="line"/>
      <point x="606.55" y="54.9452" type="line"/>
      <point x="520.55" y="-32.0548" type="line"/>
      <point x="478.55" y="-82.0548" type="line"/>
      <point x="475.55" y="-81.0548" type="line"/>
      <point x="481.55" y="15.9452" type="line"/>
      <point x="481.55" y="658.495" type="line"/>
      <point x="413.55" y="658.495" type="line"/>
      <point x="413.55" y="15.9452" type="line"/>
      <point x="419.55" y="-81.0548" type="line"/>
      <point x="416.55" y="-82.0548" type="line"/>
      <point x="374.55" y="-32.0548" type="line"/>
      <point x="288.55" y="54.9452" type="line"/>
      <point x="240.55" y="5.94519" type="line"/>
    </contour>
    <contour>
      <point x="752.8" y="798.195" type="line" name="hr00.1"/>
      <point x="545.8" y="591.195" type="line"/>
      <point x="593.8" y="542.195" type="line"/>
      <point x="679.8" y="629.195" type="line"/>
      <point x="721.8" y="679.195" type="line"/>
      <point x="724.8" y="678.195" type="line"/>
      <point x="718.8" y="581.195" type="line"/>
      <point x="718.8" y="-61.3047" type="line"/>
      <point x="786.8" y="-61.3047" type="line"/>
      <point x="786.8" y="581.195" type="line"/>
      <point x="780.8" y="678.195" type="line"/>
      <point x="783.8" y="679.195" type="line"/>
      <point x="825.8" y="629.195" type="line"/>
      <point x="911.8" y="542.195" type="line"/>
      <point x="959.8" y="591.195" type="line"/>
    </contour>
  </outline>
</glyph>
<glyph name="minus" format="2">
  <advance width="1200"/>
  <unicode hex="2212"/>
  <outline>
    <contour>
      <point x="833.34" y="266" type="line"/>
      <point x="833.34" y="334" type="line"/>
      <point x="367.34" y="334" type="line"/>
      <point x="367.34" y="266" type="line"/>
    </contour>
  </outline>
</glyph>
<glyph name="onecircle" format="2">
  <advance width="1200"/>
  <unicode hex="2460"/>
  <outline>
    <contour>
      <point x="157" y="299.6" type="curve" smooth="yes"/>
      <point x="157" y="55.35"/>
      <point x="355.3" y="-143"/>
      <point x="599.6" y="-143" type="curve" smooth="yes"/>
      <point x="843.85" y="-143"/>
      <point x="1042.2" y="55.35"/>
      <point x="1042.2" y="299.6" type="curve" smooth="yes"/>
      <point x="1042.2" y="543.9"/>
      <point x="843.85" y="742.2"/>
      <point x="599.6" y="742.2" type="curve" smooth="yes"/>
      <point x="355.3" y="742.2"/>
      <point x="157" y="543.9"/>
    </contour>
    <contour>
      <point x="216.25" y="299.6" type="curve" smooth="yes"/>
      <point x="216.25" y="511.2"/>
      <point x="388" y="682.95"/>
      <point x="599.6" y="682.95" type="curve" smooth="yes"/>
      <point x="811.15" y="682.95"/>
      <point x="982.95" y="511.2"/>
      <point x="982.95" y="299.6" type="curve" smooth="yes"/>
      <point x="982.95" y="88.05"/>
      <point x="811.15" y="-83.75"/>
      <point x="599.6" y="-83.75" type="curve" smooth="yes"/>
      <point x="388" y="-83.75"/>
      <point x="216.25" y="88.05"/>
    </contour>
    <contour>
      <point x="532.5" y="561.3" type="line"/>
      <point x="407.85" y="426.25" type="line"/>
      <point x="456.15" y="382.85" type="line"/>
      <point x="569.6" y="503.95" type="line"/>
      <point x="575.25" y="503.95" type="line"/>
      <point x="575.25" y="137.7" type="line"/>
      <point x="437.95" y="137.7" type="line"/>
      <point x="437.95" y="72.7" type="line"/>
      <point x="771.9" y="72.7" type="line"/>
      <point x="771.9" y="137.7" type="line"/>
      <point x="653.55" y="137.7" type="line"/>
      <point x="653.55" y="561.3" type="line"/>
    </contour>
  </outline>
  <guideline angle="0" x="0" y="73"/>
</glyph>
<glyph name="fivecircle" format="2">
  <advance width="1200"/>
  <unicode hex="2464"/>
  <outline>
    <contour>
      <point x="157" y="299.6" type="curve" smooth="yes"/>
      <point x="157" y="55.35"/>
      <point x="355.3" y="-143"/>
      <point x="599.6" y="-143" type="curve" smooth="yes"/>
      <point x="843.9" y="-143"/>
      <point x="1042.2" y="55.35"/>
      <point x="1042.2" y="299.6" type="curve" smooth="yes"/>
      <point x="1042.2" y="543.9"/>
      <point x="843.9" y="742.2"/>
      <point x="599.6" y="742.2" type="curve" smooth="yes"/>
      <point x="355.3" y="742.2"/>
      <point x="157" y="543.9"/>
    </contour>
    <contour>
      <point x="216.25" y="299.6" type="curve" smooth="yes"/>
      <point x="216.25" y="511.2"/>
      <point x="388" y="682.95"/>
      <point x="599.6" y="682.95" type="curve" smooth="yes"/>
      <point x="811.2" y="682.95"/>
      <point x="982.95" y="511.2"/>
      <point x="982.95" y="299.6" type="curve" smooth="yes"/>
      <point x="982.95" y="88.05"/>
      <point x="811.2" y="-83.75"/>
      <point x="599.6" y="-83.75" type="curve" smooth="yes"/>
      <point x="388" y="-83.75"/>
      <point x="216.25" y="88.05"/>
    </contour>
    <contour>
      <point x="467.6" y="543.9" type="line"/>
      <point x="449.7" y="276.2" type="line"/>
      <point x="513.7" y="267.25" type="line"/>
      <point x="531.6" y="286.5"/>
      <point x="554.35" y="305.15"/>
      <point x="597" y="305.15" type="curve" smooth="yes"/>
      <point x="655.5" y="305.15"/>
      <point x="688.55" y="272.05"/>
      <point x="688.55" y="216.3" type="curve" smooth="yes"/>
      <point x="688.55" y="210.8" type="line" smooth="yes"/>
      <point x="688.55" y="155"/>
      <point x="656.2" y="119.9"/>
      <point x="597" y="119.9" type="curve" smooth="yes"/>
      <point x="541.25" y="119.9"/>
      <point x="514.4" y="148.1"/>
      <point x="490.3" y="185.35" type="curve"/>
      <point x="433.85" y="141.25" type="line"/>
      <point x="463.45" y="97.25"/>
      <point x="508.9" y="55.3"/>
      <point x="595.65" y="55.3" type="curve" smooth="yes"/>
      <point x="705.75" y="55.3"/>
      <point x="769.05" y="123.35"/>
      <point x="769.05" y="218.4" type="curve" smooth="yes"/>
      <point x="769.05" y="312.7"/>
      <point x="705.75" y="368.4"/>
      <point x="623.15" y="368.4" type="curve" smooth="yes"/>
      <point x="568.8" y="368.4"/>
      <point x="541.25" y="344.35"/>
      <point x="519.2" y="306.5" type="curve"/>
      <point x="513.7" y="306.5" type="line"/>
      <point x="526.1" y="477.25" type="line"/>
      <point x="744.25" y="477.25" type="line"/>
      <point x="744.25" y="543.9" type="line"/>
    </contour>
  </outline>
</glyph>
<glyph name="ninecircle" format="2">
  <advance width="1200"/>
  <unicode hex="2468"/>
  <outline>
    <contour>
      <point x="157" y="299.6" type="curve" smooth="yes"/>
      <point x="157" y="55.35"/>
      <point x="355.3" y="-143"/>
      <point x="599.6" y="-143" type="curve" smooth="yes"/>
      <point x="843.85" y="-143"/>
      <point x="1042.2" y="55.35"/>
      <point x="1042.2" y="299.6" type="curve" smooth="yes"/>
      <point x="1042.2" y="543.9"/>
      <point x="843.85" y="742.2"/>
      <point x="599.6" y="742.2" type="curve" smooth="yes"/>
      <point x="355.3" y="742.2"/>
      <point x="157" y="543.9"/>
    </contour>
    <contour>
      <point x="216.25" y="299.6" type="curve" smooth="yes"/>
      <point x="216.25" y="511.2"/>
      <point x="388" y="682.95"/>
      <point x="599.6" y="682.95" type="curve" smooth="yes"/>
      <point x="811.15" y="682.95"/>
      <point x="982.95" y="511.2"/>
      <point x="982.95" y="299.6" type="curve" smooth="yes"/>
      <point x="982.95" y="88.05"/>
      <point x="811.15" y="-83.75"/>
      <point x="599.6" y="-83.75" type="curve" smooth="yes"/>
      <point x="388" y="-83.75"/>
      <point x="216.25" y="88.05"/>
    </contour>
    <contour>
      <point x="771.35" y="356.1" type="curve" smooth="yes"/>
      <point x="771.35" y="471.1"/>
      <point x="707.4" y="543.3"/>
      <point x="600.05" y="543.3" type="curve" smooth="yes"/>
      <point x="496.75" y="543.3"/>
      <point x="429.4" y="476.6"/>
      <point x="429.4" y="380.85" type="curve" smooth="yes"/>
      <point x="429.4" y="289.35"/>
      <point x="489.85" y="231.6"/>
      <point x="572.5" y="231.6" type="curve" smooth="yes"/>
      <point x="633.75" y="231.6"/>
      <point x="666.1" y="263.85"/>
      <point x="686.75" y="301.7" type="curve"/>
      <point x="691.6" y="300.35" type="line"/>
      <point x="667.5" y="196.5"/>
      <point x="604.15" y="133.15"/>
      <point x="493.3" y="54.7" type="curve"/>
      <point x="596.6" y="54.7" type="line"/>
      <point x="677.1" y="107"/>
      <point x="771.35" y="217.15"/>
    </contour>
    <contour>
      <point x="600.7" y="292.7" type="curve" smooth="yes"/>
      <point x="542.15" y="292.7"/>
      <point x="508.45" y="325.8"/>
      <point x="508.45" y="383.65" type="curve" smooth="yes"/>
      <point x="508.45" y="390.5" type="line" smooth="yes"/>
      <point x="508.45" y="448.4"/>
      <point x="542.15" y="481.4"/>
      <point x="600.7" y="481.4" type="curve" smooth="yes"/>
      <point x="658.55" y="481.4"/>
      <point x="692.3" y="448.4"/>
      <point x="692.3" y="390.5" type="curve" smooth="yes"/>
      <point x="692.3" y="383.65" type="line" smooth="yes"/>
      <point x="692.3" y="325.8"/>
      <point x="658.55" y="292.7"/>
    </contour>
  </outline>
</glyph>
<glyph name="heavytrpldashhorz" format="2">
  <advance width="1200"/>
  <unicode hex="2505"/>
  <outline>
    <contour>
      <point x="48.8" y="232" type="line" name="hr00"/>
      <point x="250" y="232" type="line"/>
      <point x="250" y="368" type="line"/>
      <point x="48.8" y="368" type="line"/>
    </contour>
    <contour>
      <point x="349.05" y="232" type="line"/>
      <point x="550.2" y="232" type="line"/>
      <point x="550.2" y="368" type="line"/>
      <point x="349.05" y="368" type="line"/>
    </contour>
    <contour>
      <point x="649.3" y="232" type="line"/>
      <point x="850.45" y="232" type="line"/>
      <point x="850.45" y="368" type="line"/>
      <point x="649.3" y="368" type="line"/>
    </contour>
    <contour>
      <point x="949.55" y="232" type="line"/>
      <point x="1151.7" y="232" type="line"/>
      <point x="1151.7" y="368" type="line"/>
      <point x="949.55" y="368" type="line"/>
    </contour>
  </outline>
</glyph>
<glyph name="heavytrpldashvert" format="2">
  <advance width="1200"/>
  <unicode hex="2507"/>
  <outline>
    <contour>
      <point x="532" y="896" type="line"/>
      <point x="668" y="896" type="line"/>
      <point x="668" y="677" type="line"/>
      <point x="532" y="677" type="line"/>
    </contour>
    <contour>
      <point x="532" y="572" type="line" name="hr00"/>
      <point x="668" y="572" type="line"/>
      <point x="668" y="352" type="line"/>
      <point x="532" y="352" type="line"/>
    </contour>
    <contour>
      <point x="532" y="247" type="line"/>
      <point x="668" y="247" type="line"/>
      <point x="668" y="27" type="line"/>
      <point x="532" y="27" type="line"/>
    </contour>
    <contour>
      <point x="532" y="-78" type="line"/>
      <point x="668" y="-78" type="line"/>
      <point x="668" y="-298" type="line"/>
      <point x="532" y="-298" type="line"/>
    </contour>
  </outline>
</glyph>
<glyph name="heavydnleft" format="2">
  <advance width="1200"/>
  <unicode hex="2513"/>
  <outline>
    <contour>
      <point x="-33.05" y="232" type="line" name="hr00"/>
      <point x="532" y="232" type="line"/>
      <point x="532" y="-350" type="line"/>
      <point x="668" y="-350" type="line"/>
      <point x="668" y="368" type="line"/>
      <point x="-33.05" y="368" type="line"/>
    </contour>
  </outline>
</glyph>
<glyph name="lightupright" format="2">
  <advance width="1200"/>
  <unicode hex="2514"/>
  <outline>
    <contour>
      <point x="566" y="266" type="line" name="hr00"/>
      <point x="1234" y="266" type="line"/>
      <point x="1234" y="334" type="line"/>
      <point x="634" y="334" type="line"/>
      <point x="634" y="950" type="line"/>
      <point x="566" y="950" type="line"/>
    </contour>
  </outline>
</glyph>
<glyph name="uplightleftdnheavy" format="2">
  <advance width="1200"/>
  <unicode hex="252A"/>
  <outline>
    <contour>
      <point x="-34" y="232" type="line"/>
      <point x="532" y="232" type="line"/>
      <point x="532" y="-350" type="line"/>
      <point x="668" y="-350" type="line"/>
      <point x="668" y="368" type="line"/>
      <point x="634" y="368" type="line" name="hr01"/>
      <point x="634" y="950" type="line"/>
      <point x="566" y="950" type="line"/>
      <point x="566" y="368" type="line"/>
      <point x="-34" y="368" type="line"/>
    </contour>
  </outline>
</glyph>
<glyph name="rightheavyleftvertlight" format="2">
  <advance width="1200"/>
  <unicode hex="253E"/>
  <outline>
    <contour>
      <point x="-34" y="266" type="line"/>
      <point x="566" y="266" type="line"/>
      <point x="566" y="-350" type="line"/>
      <point x="634" y="-350" type="line"/>
      <point x="634" y="232" type="line" name="hr01"/>
      <point x="1234" y="232" type="line"/>
      <point x="1234" y="368" type="line"/>
      <point x="634" y="368" type="line"/>
      <point x="634" y="950" type="line"/>
      <point x="566" y="950" type="line"/>
      <point x="566" y="334" type="line" name="hr02"/>
      <point x="-34" y="334" type="line"/>
    </contour>
  </outline>
</glyph>
<glyph name="rightupheavyleftdnlight" format="2">
  <advance width="1200"/>
  <unicode hex="2544"/>
  <outline>
    <contour>
      <point x="-34" y="266" type="line"/>
      <point x="532" y="266" type="line"/>
      <point x="532" y="232" type="line" name="hr01"/>
      <point x="566" y="232" type="line" name="hr02"/>
      <point x="566" y="-350" type="line"/>
      <point x="634" y="-350" type="line"/>
      <point x="634" y="232" type="line"/>
      <point x="1234" y="232" type="line"/>
      <point x="1234" y="368" type="line"/>
      <point x="668" y="368" type="line" name="hr03"/>
      <point x="668" y="950" type="line"/>
      <point x="532" y="950" type="line"/>
      <point x="532" y="334" type="line" name="hr04"/>
      <point x="-34" y="334" type="line"/>
    </contour>
  </outline>
</glyph>
<glyph name="lightdbldashhorz" format="2">
  <advance width="1200"/>
  <unicode hex="254C"/>
  <outline>
    <contour>
      <point x="449.5" y="265.65" type="line" name="hr00"/>
      <point x="449.5" y="333.65" type="line"/>
      <point x="149.5" y="333.65" type="line"/>
      <point x="149.5" y="265.65" type="line"/>
    </contour>
    <contour>
      <point x="1050.55" y="265.65" type="line"/>
      <point x="1050.55" y="333.65" type="line"/>
      <point x="749.45" y="333.65" type="line"/>
      <point x="749.45" y="265.65" type="line"/>
    </contour>
  </outline>
</glyph>
<glyph name="heavydbldashhorz" format="2">
  <advance width="1200"/>
  <unicode hex="254D"/>
  <outline>
    <contour>
      <point x="449.5" y="231.85" type="line" name="hr00"/>
      <point x="449.5" y="368.15" type="line"/>
      <point x="149.55" y="368.15" type="line"/>
      <point x="149.55" y="231.85" type="line"/>
    </contour>
    <contour>
      <point x="1050.5" y="231.85" type="line"/>
      <point x="1050.5" y="368.15" type="line"/>
      <point x="749.45" y="368.15" type="line"/>
      <point x="749.45" y="231.85" type="line"/>
    </contour>
  </outline>
  <guideline angle="90" x="300" y="0"/>
  <guideline angle="90" x="900" y="0"/>
</glyph>
<glyph name="dblhorz" format="2">
  <advance width="1200"/>
  <unicode hex="2550"/>
  <outline>
    <contour>
      <point x="-34" y="334" type="line" name="hr00"/>
      <point x="1233" y="334" type="line"/>
      <point x="1233" y="402" type="line"/>
      <point x="-34" y="402" type="line"/>
    </contour>
    <contour>
      <point x="-34" y="198" type="line"/>
      <point x="1233" y="198" type="line"/>
      <point x="1233" y="266" type="line"/>
      <point x="-34" y="266" type="line"/>
    </contour>
  </outline>
</glyph>
<glyph name="dnsngrightdbl" format="2">
  <advance width="1200"/>
  <unicode hex="2552"/>
  <outline>
    <contour>
      <point x="566" y="-350" type="line" name="hr00"/>
      <point x="634" y="-350" type="line"/>
      <point x="634" y="198" type="line"/>
      <point x="1234" y="197.85" type="line"/>
      <point x="1234" y="265.85" type="line"/>
      <point x="634" y="266" type="line"/>
      <point x="634" y="334" type="line"/>
      <point x="1234" y="333.85" type="line"/>
      <point x="1234" y="401.85" type="line"/>
      <point x="566" y="402" type="line"/>
    </contour>
  </outline>
</glyph>
<glyph name="dbldnhorz" format="2">
  <advance width="1200"/>
  <unicode hex="2566"/>
  <outline>
    <contour>
      <point x="-34" y="334" type="line" name="hr00"/>
      <point x="1233" y="334" type="line"/>
      <point x="1233" y="402" type="line"/>
      <point x="-34" y="402" type="line"/>
    </contour>
    <contour>
      <point x="-34" y="198" type="line"/>
      <point x="498" y="198" type="line"/>
      <point x="498" y="-350" type="line"/>
      <point x="566" y="-350" type="line"/>
      <point x="566" y="266" type="line"/>
      <point x="-34" y="266" type="line"/>
    </contour>
    <contour>
      <point x="634" y="-350" type="line"/>
      <point x="702" y="-350" type="line"/>
      <point x="702" y="198" type="line"/>
      <point x="1233" y="198" type="line"/>
      <point x="1233" y="266" type="line"/>
      <point x="634" y="266" type="line"/>
    </contour>
  </outline>
</glyph>
<glyph name="dbluphorz" format="2">
  <advance width="1200"/>
  <unicode hex="2569"/>
  <outline>
    <contour>
      <point x="-34" y="334" type="line" name="hr00"/>
      <point x="566" y="334" type="line"/>
      <point x="566" y="950" type="line"/>
      <point x="498" y="950" type="line"/>
      <point x="498" y="402" type="line"/>
      <point x="-34" y="402" type="line"/>
    </contour>
    <contour>
      <point x="634" y="334" type="line"/>
      <point x="1234" y="334" type="line"/>
      <point x="1234" y="402" type="line"/>
      <point x="702" y="402" type="line"/>
      <point x="702" y="950" type="line"/>
      <point x="634" y="950" type="line"/>
    </contour>
    <contour>
      <point x="-34" y="198" type="line"/>
      <point x="1234" y="198" type="line"/>
      <point x="1234" y="266" type="line"/>
      <point x="-34" y="266" type="line"/>
    </contour>
  </outline>
</glyph>
<glyph name="dblverthorz" format="2">
  <advance width="1200"/>
  <unicode hex="256C"/>
  <outline>
    <contour>
      <point x="-34" y="334" type="line" name="hr00"/>
      <point x="566" y="334" type="line"/>
      <point x="566" y="950" type="line"/>
      <point x="498" y="950" type="line"/>
      <point x="498" y="402" type="line"/>
      <point x="-34" y="402" type="line"/>
    </contour>
    <contour>
      <point x="634" y="334" type="line"/>
      <point x="1233" y="334" type="line"/>
      <point x="1233" y="402" type="line"/>
      <point x="702" y="402" type="line"/>
      <point x="702" y="950" type="line"/>
      <point x="634" y="950" type="line"/>
    </contour>
    <contour>
      <point x="-34" y="198" type="line"/>
      <point x="498" y="198" type="line"/>
      <point x="498" y="-350" type="line"/>
      <point x="566" y="-350" type="line"/>
      <point x="566" y="266" type="line"/>
      <point x="-34" y="266" type="line"/>
    </contour>
    <contour>
      <point x="634" y="-350" type="line"/>
      <point x="702" y="-350" type="line"/>
      <point x="702" y="198" type="line"/>
      <point x="1233" y="198" type="line"/>
      <point x="1233" y="266" type="line"/>
      <point x="634" y="266" type="line"/>
    </contour>
  </outline>
</glyph>
<glyph name="lightarcdnright" format="2">
  <advance width="1200"/>
  <unicode hex="256D"/>
  <outline>
    <contour>
      <point x="566" y="-350" type="line" name="hr00"/>
      <point x="634" y="-350" type="line"/>
      <point x="634" y="0" type="line" smooth="yes"/>
      <point x="634" y="162"/>
      <point x="738" y="266"/>
      <point x="900" y="266" type="curve" smooth="yes"/>
      <point x="1233.15" y="266" type="line"/>
      <point x="1233.15" y="334" type="line"/>
      <point x="900" y="334" type="line" smooth="yes"/>
      <point x="701" y="334"/>
      <point x="566" y="199"/>
      <point x="566" y="0" type="curve" smooth="yes"/>
    </contour>
  </outline>
</glyph>
<glyph name="lightarcupright" format="2">
  <advance width="1200"/>
  <unicode hex="2570"/>
  <outline>
    <contour>
      <point x="566" y="950" type="line" name="hr00"/>
      <point x="566" y="600" type="line" smooth="yes"/>
      <point x="566" y="401"/>
      <point x="701" y="266"/>
      <point x="900" y="266" type="curve" smooth="yes"/>
      <point x="1234" y="266" type="line"/>
      <point x="1234" y="334" type="line"/>
      <point x="900" y="334" type="line" smooth="yes"/>
      <point x="738" y="334"/>
      <point x="634" y="438"/>
      <point x="634" y="600" type="curve" smooth="yes"/>
      <point x="634" y="950" type="line"/>
    </contour>
  </outline>
</glyph>
<glyph name="lightdiaguprightdnleft" format="2">
  <advance width="1200"/>
  <unicode hex="2571"/>
  <outline>
    <contour>
      <point x="0.5" y="-179" type="line" name="hr00"/>
      <point x="0.5" y="-250" type="line"/>
      <point x="39.5" y="-250" type="line"/>
      <point x="1199.1" y="779" type="line"/>
      <point x="1199.1" y="850" type="line"/>
      <point x="1160.1" y="850" type="line"/>
    </contour>
  </outline>
  <guideline angle="90" x="300" y="0"/>
  <guideline angle="90" x="900" y="0"/>
</glyph>
<glyph name="lightdiagupleftdnright" format="2">
  <advance width="1200"/>
  <unicode hex="2572"/>
  <outline>
    <contour>
      <point x="39.6" y="850" type="line" name="hr00"/>
      <point x="0.599998" y="850" type="line"/>
      <point x="0.599998" y="779" type="line"/>
      <point x="1160.75" y="-250" type="line"/>
      <point x="1199.75" y="-250" type="line"/>
      <point x="1199.75" y="-179" type="line"/>
    </contour>
  </outline>
</glyph>
<glyph name="heavyup" format="2">
  <advance width="1200"/>
  <unicode hex="2579"/>
  <outline>
    <contour>
      <point x="532" y="266" type="line" name="hr00"/>
      <point x="668" y="266" type="line"/>
      <point x="668" y="950" type="line"/>
      <point x="532" y="950" type="line"/>
    </contour>
  </outline>
</glyph>
<glyph name="heavydn" format="2">
  <advance width="1200"/>
  <unicode hex="257B"/>
  <outline>
    <contour>
      <point x="532" y="-350" type="line" name="hr00"/>
      <point x="668" y="-350" type="line"/>
      <point x="668" y="334" type="line"/>
      <point x="532" y="334" type="line"/>
    </contour>
  </outline>
</glyph>
<glyph name="lightupheavydn" format="2">
  <advance width="1200"/>
  <unicode hex="257D"/>
  <outline>
    <contour>
      <point x="532" y="-350" type="line"/>
      <point x="668" y="-350" type="line"/>
      <point x="668" y="334" type="line"/>
      <point x="634" y="334" type="line" name="hr01"/>
      <point x="634" y="950" type="line"/>
      <point x="566" y="950" type="line"/>
      <point x="566" y="334" type="line"/>
      <point x="532" y="334" type="line" name="hr02"/>
    </contour>
  </outline>
</glyph>
<glyph name="heavyuplightdn" format="2">
  <advance width="1200"/>
  <unicode hex="257F"/>
  <outline>
    <contour>
      <point x="532" y="266" type="line"/>
      <point x="566" y="266" type="line" name="hr01"/>
      <point x="566" y="-350" type="line"/>
      <point x="634" y="-350" type="line"/>
      <point x="634" y="266" type="line"/>
      <point x="668" y="266" type="line" name="hr02"/>
      <point x="668" y="950" type="line"/>
      <point x="532" y="950" type="line"/>
    </contour>
  </outline>
</glyph>
<glyph name="upblock" format="2">
  <advance width="1200"/>
  <unicode hex="2580"/>
  <outline>
    <contour>
      <point x="0" y="300" type="line" name="hr00"/>
      <point x="1199.05" y="300" type="line"/>
      <point x="1199.05" y="950" type="line"/>
      <point x="0" y="950" type="line"/>
    </contour>
  </outline>
</glyph>
<glyph name="leftSevenEighthsBlock" format="2">
  <advance width="1200"/>
  <unicode hex="2589"/>
  <outline>
    <contour>
      <point x="0" y="-350" type="line" name="hr00"/>
      <point x="1125" y="-350" type="line"/>
      <point x="1125" y="950" type="line"/>
      <point x="0" y="950" type="line"/>
    </contour>
  </outline>
</glyph>
<glyph name="lfblock" format="2">
  <advance width="1199"/>
  <unicode hex="258C"/>
  <outline>
    <contour>
      <point x="0" y="-350.35" type="line" name="hr00"/>
      <point x="899" y="-350" type="line"/>
      <point x="899" y="950" type="line"/>
      <point x="0" y="949.65" type="line"/>
    </contour>
  </outline>
</glyph>
<glyph name="quadrantLowerLeft" format="2">
  <advance width="1200"/>
  <unicode hex="2596"/>
  <outline>
    <contour>
      <point x="0.8" y="-350" type="line" name="hr00"/>
      <point x="900" y="-350" type="line"/>
      <point x="900" y="300" type="line"/>
      <point x="0.799988" y="300" type="line"/>
    </contour>
  </outline>
</glyph>
<glyph name="quadrantUpperLeftAndLowerLeftAndLowerRight" format="2">
  <advance width="1200"/>
  <unicode hex="2599"/>
  <outline>
    <contour>
      <point x="0" y="-350" type="line" name="hr00"/>
      <point x="1200" y="-350" type="line"/>
      <point x="1200" y="300" type="line"/>
      <point x="600" y="300" type="line"/>
      <point x="600" y="950" type="line"/>
      <point x="0" y="950" type="line"/>
    </contour>
  </outline>
</glyph>
<glyph name="quadrantUpperRight" format="2">
  <advance width="1200"/>
  <unicode hex="259D"/>
  <outline>
    <contour>
      <point x="300" y="300" type="line" name="hr00"/>
      <point x="1200" y="300" type="line"/>
      <point x="1200" y="950" type="line"/>
      <point x="300" y="950" type="line"/>
    </contour>
  </outline>
</glyph>
<glyph name="quadrantUpperRightAndLowerLeft" format="2">
  <advance width="1200"/>
  <unicode hex="259E"/>
  <outline>
    <contour>
      <point x="600" y="300" type="line" name="hr00"/>
      <point x="1200" y="300" type="line"/>
      <point x="1200" y="950" type="line"/>
      <point x="600" y="950" type="line"/>
    </contour>
    <contour>
      <point x="0" y="-350" type="line"/>
      <point x="600" y="-350" type="line"/>
      <point x="600" y="300" type="line"/>
      <point x="0" y="300" type="line"/>
    </contour>
  </outline>
</glyph>
<glyph name="checkmark" format="2">
  <advance width="1200"/>
  <unicode hex="2713"/>
  <outline>
    <contour>
      <point x="508.15" y="-57.25" type="line" name="hr00"/>
      <point x="594.15" y="-57.25" type="line"/>
      <point x="874.15" y="629.75" type="line"/>
      <point x="803.15" y="654.75" type="line"/>
      <point x="639.15" y="247.75" type="line"/>
      <point x="556.15" y="31.75" type="line"/>
      <point x="551.15" y="31.75" type="line"/>
      <point x="476.15" y="247.75" type="line"/>
      <point x="402.15" y="448.75" type="line"/>
      <point x="326.15" y="426.75" type="line"/>
    </contour>
  </outline>
</glyph>
<glyph name="crossmark" format="2">
  <advance width="1200"/>
  <unicode hex="274C"/>
  <outline>
    <contour>
      <point x="410.65" y="-32.65" type="line" name="hr00"/>
      <point x="596.65" y="238.35" type="line"/>
      <point x="784.65" y="-32.65" type="line"/>
      <point x="847.65" y="7.35" type="line"/>
      <point x="643.65" y="299.35" type="line"/>
      <point x="847.65" y="595.35" type="line"/>
      <point x="784.65" y="635.35" type="line"/>
      <point x="598.65" y="364.35" type="line"/>
      <point x="410.65" y="635.35" type="line"/>
      <point x="347.65" y="595.35" type="line"/>
      <point x="551.65" y="303.35" type="line"/>
      <point x="347.65" y="7.35" type="line"/>
    </contour>
  </outline>
</glyph>
<glyph name="threenegativecircled" format="2">
  <advance width="1200"/>
  <unicode hex="2778"/>
  <outline>
    <contour>
      <point x="157" y="299.6" type="curve" smooth="yes"/>
      <point x="157" y="55.35"/>
      <point x="355.3" y="-143"/>
      <point x="599.6" y="-143" type="curve" smooth="yes"/>
      <point x="843.85" y="-143"/>
      <point x="1042.2" y="55.35"/>
      <point x="1042.2" y="299.6" type="curve" smooth="yes"/>
      <point x="1042.2" y="543.9"/>
      <point x="843.85" y="742.2"/>
      <point x="599.6" y="742.2" type="curve" smooth="yes"/>
      <point x="355.3" y="742.2"/>
      <point x="157" y="543.9"/>
    </contour>
    <contour>
      <point x="540.85" y="277.3" type="line"/>
      <point x="540.85" y="340.85" type="line"/>
      <point x="589.6" y="340.85" type="line" smooth="yes"/>
      <point x="649.8" y="340.85"/>
      <point x="678.95" y="369.95"/>
      <point x="678.95" y="408.6" type="curve" smooth="yes"/>
      <point x="678.95" y="413.3" type="line" smooth="yes"/>
      <point x="678.95" y="456.65"/>
      <point x="647.8" y="480.35"/>
      <point x="600.4" y="480.35" type="curve" smooth="yes"/>
      <point x="555.05" y="480.35"/>
      <point x="523.25" y="458"/>
      <point x="501.6" y="422.1" type="curve"/>
      <point x="450.15" y="466.1" type="line"/>
      <point x="479.9" y="507.4"/>
      <point x="523.25" y="543.9"/>
      <point x="603.1" y="543.9" type="curve" smooth="yes"/>
      <point x="692.45" y="543.9"/>
      <point x="758.05" y="498.6"/>
      <point x="758.05" y="422.1" type="curve" smooth="yes"/>
      <point x="758.05" y="361.8"/>
      <point x="716.8" y="324.6"/>
      <point x="666.05" y="313.8" type="curve"/>
      <point x="666.05" y="310.45" type="line"/>
      <point x="720.15" y="300.3"/>
      <point x="767.55" y="261.7"/>
      <point x="767.55" y="193.35" type="curve" smooth="yes"/>
      <point x="767.55" y="110.7"/>
      <point x="699.25" y="55.3"/>
      <point x="595" y="55.3" type="curve" smooth="yes"/>
      <point x="507" y="55.3"/>
      <point x="461.65" y="96.55"/>
      <point x="431.85" y="139.8" type="curve"/>
      <point x="488.05" y="183.2" type="line"/>
      <point x="511.75" y="145.2"/>
      <point x="539.5" y="118.8"/>
      <point x="595.65" y="118.8" type="curve" smooth="yes"/>
      <point x="654.55" y="118.8"/>
      <point x="687.75" y="147.9"/>
      <point x="687.75" y="196.7" type="curve" smooth="yes"/>
      <point x="687.75" y="202.15" type="line" smooth="yes"/>
      <point x="687.75" y="250.2"/>
      <point x="653.9" y="277.3"/>
      <point x="591.6" y="277.3" type="curve" smooth="yes"/>
    </contour>
  </outline>
</glyph>
<glyph name="ethereum" format="2">
  <advance width="1200"/>
  <unicode hex="27E0"/>
  <outline>
    <contour>
      <point x="1016.35" y="630.45" type="curve" smooth="yes"/>
      <point x="1016.35" y="-30.55" type="line" smooth="yes"/>
      <point x="1016.35" y="-86.3"/>
      <point x="982.55" y="-120.4"/>
      <point x="924.25" y="-120.4" type="curve" smooth="yes"/>
      <point x="267.6" y="-120.4" type="line" smooth="yes"/>
      <point x="210.55" y="-120.4"/>
      <point x="176.65" y="-86.3"/>
      <point x="176.65" y="-30.55" type="curve" smooth="yes"/>
      <point x="176.65" y="630.45" type="line" smooth="yes"/>
      <point x="176.65" y="686.2"/>
      <point x="210.55" y="720.25"/>
      <point x="267.6" y="720.25" type="curve" smooth="yes"/>
      <point x="924.25" y="720.25" type="line" smooth="yes"/>
      <point x="982.55" y="720.25"/>
      <point x="1016.35" y="686.2"/>
    </contour>
    <contour>
      <point x="598.95" y="671" type="line"/>
      <point x="383.95" y="308.7" type="line"/>
      <point x="598.95" y="180" type="line"/>
      <point x="819.65" y="308.15" type="line"/>
    </contour>
    <contour>
      <point x="383.95" y="245" type="line"/>
      <point x="598.95" y="-70.75" type="line"/>
      <point x="819.5" y="245.65" type="line"/>
      <point x="598.95" y="113.4" type="line"/>
    </contour>
  </outline>
</glyph>
<glyph name="arrowleftupcorner" format="2">
  <advance width="1200"/>
  <unicode hex="2B11"/>
  <outline>
    <contour>
      <point x="599.05" y="762.85" type="line" name="hr00"/>
      <point x="392.05" y="555.85" type="line"/>
      <point x="440.05" y="506.85" type="line"/>
      <point x="526.05" y="593.85" type="line"/>
      <point x="568.05" y="643.85" type="line"/>
      <point x="571.05" y="642.85" type="line"/>
      <point x="565.05" y="545.85" type="line"/>
      <point x="565.05" y="265.85" type="line"/>
      <point x="1173.55" y="265.85" type="line"/>
      <point x="1173.55" y="333.85" type="line"/>
      <point x="633.05" y="333.85" type="line"/>
      <point x="633.05" y="545.85" type="line"/>
      <point x="627.05" y="642.85" type="line"/>
      <point x="630.05" y="643.85" type="line"/>
      <point x="672.05" y="593.85" type="line"/>
      <point x="758.05" y="506.85" type="line"/>
      <point x="806.05" y="555.85" type="line"/>
    </contour>
  </outline>
</glyph>
<glyph name="tezos" format="2">
  <advance width="1200"/>
  <unicode hex="A729"/>
  <outline>
    <contour>
      <point x="1016.35" y="630.45" type="line" smooth="yes"/>
      <point x="1016.35" y="686.2"/>
      <point x="982.55" y="720.25"/>
      <point x="924.25" y="720.25" type="curve" smooth="yes"/>
      <point x="267.6" y="720.25" type="line" smooth="yes"/>
      <point x="210.55" y="720.25"/>
      <point x="176.65" y="686.2"/>
      <point x="176.65" y="630.45" type="curve" smooth="yes"/>
      <point x="176.65" y="-30.55" type="line" smooth="yes"/>
      <point x="176.65" y="-86.3"/>
      <point x="210.55" y="-120.4"/>
      <point x="267.6" y="-120.4" type="curve" smooth="yes"/>
      <point x="924.25" y="-120.4" type="line" smooth="yes"/>
      <point x="982.55" y="-120.4"/>
      <point x="1016.35" y="-86.3"/>
      <point x="1016.35" y="-30.55" type="curve" smooth="yes"/>
    </contour>
    <contour>
      <point x="652.15" y="-12.35" type="curve" smooth="yes"/>
      <point x="607.6" y="-12.35"/>
      <point x="575.15" y="-1.7"/>
      <point x="554.8" y="19.6" type="curve" smooth="yes"/>
      <point x="534.45" y="40.9"/>
      <point x="524.25" y="63.9"/>
      <point x="524.25" y="88.55" type="curve" smooth="yes"/>
      <point x="524.25" y="115.05"/>
      <point x="541.25" y="131.15"/>
      <point x="566.9" y="131.15" type="curve" smooth="yes"/>
      <point x="593.35" y="131.15"/>
      <point x="609.5" y="114.15"/>
      <point x="609.5" y="88.55" type="curve" smooth="yes"/>
      <point x="609.5" y="70.9"/>
      <point x="601" y="53.8"/>
      <point x="583.2" y="48.4" type="curve"/>
      <point x="596.75" y="29.7"/>
      <point x="630.6" y="24.6"/>
      <point x="652.15" y="24.6" type="curve" smooth="yes"/>
      <point x="723.7" y="24.6"/>
      <point x="745.95" y="89.9"/>
      <point x="745.95" y="149.65" type="curve" smooth="yes"/>
      <point x="745.95" y="210.9"/>
      <point x="721.95" y="274.7"/>
      <point x="652.15" y="274.7" type="curve" smooth="yes"/>
      <point x="640.75" y="274.65"/>
      <point x="626.55" y="269.95"/>
      <point x="609.5" y="260.5" type="curve"/>
      <point x="578.25" y="244.85" type="line"/>
      <point x="578.25" y="260.5" type="line"/>
      <point x="718.95" y="448.05" type="line"/>
      <point x="524.25" y="448.05" type="line"/>
      <point x="524.25" y="253.4" type="line" smooth="yes"/>
      <point x="524.25" y="225.1"/>
      <point x="535.35" y="197.95"/>
      <point x="567.6" y="197.95" type="curve" smooth="yes"/>
      <point x="592.25" y="197.95"/>
      <point x="614" y="217.8"/>
      <point x="627.25" y="237" type="curve"/>
      <point x="628.25" y="239.15"/>
      <point x="629.4" y="240.7"/>
      <point x="630.8" y="241.65" type="curve"/>
      <point x="632.1" y="242.8"/>
      <point x="633.75" y="243.4"/>
      <point x="635.45" y="243.45" type="curve"/>
      <point x="638.05" y="243.45"/>
      <point x="641.1" y="242.15"/>
      <point x="644.7" y="239.5" type="curve"/>
      <point x="648" y="235.75"/>
      <point x="649.65" y="231.35"/>
      <point x="649.65" y="226.4" type="curve"/>
      <point x="649.25" y="223.05"/>
      <point x="648.65" y="219.7"/>
      <point x="647.85" y="216.4" type="curve"/>
      <point x="633.2" y="183.5"/>
      <point x="604.55" y="160.9"/>
      <point x="567.6" y="161" type="curve" smooth="yes"/>
      <point x="502.3" y="161.1"/>
      <point x="456.05" y="181.2"/>
      <point x="456.05" y="253.35" type="curve" smooth="yes"/>
      <point x="456.05" y="448.05" type="line"/>
      <point x="356.55" y="448.05" type="line"/>
      <point x="356.55" y="484.3" type="line"/>
      <point x="456.05" y="484.3" type="line"/>
      <point x="456.05" y="566.7" type="line"/>
      <point x="433.3" y="589.45" type="line"/>
      <point x="433.3" y="607.9" type="line"/>
      <point x="499.35" y="607.9" type="line"/>
      <point x="524.25" y="595.15" type="line"/>
      <point x="524.25" y="484.3" type="line"/>
      <point x="781.45" y="485" type="line"/>
      <point x="807.05" y="459.45" type="line"/>
      <point x="649.3" y="301.7" type="line"/>
      <point x="658.85" y="305.5"/>
      <point x="668.9" y="307.9"/>
      <point x="679.15" y="308.8" type="curve"/>
      <point x="718.3" y="308.8"/>
      <point x="765.85" y="281.35"/>
      <point x="786.45" y="248.4" type="curve" smooth="yes"/>
      <point x="805" y="218.7"/>
      <point x="814.15" y="184.65"/>
      <point x="814.15" y="149.65" type="curve" smooth="yes"/>
      <point x="814.15" y="48.85"/>
      <point x="749.75" y="-12.35"/>
    </contour>
  </outline>
</glyph>
<glyph name="altcoin" format="2">
  <advance width="1200"/>
  <unicode hex="E002"/>
  <outline>
    <contour>
      <point x="129.15" y="537.3" type="curve" smooth="yes"/>
      <point x="129.15" y="425.4"/>
      <point x="220" y="334.6"/>
      <point x="331.85" y="334.6" type="curve" smooth="yes"/>
      <point x="443.75" y="334.6"/>
      <point x="534.55" y="425.4"/>
      <point x="534.55" y="537.3" type="curve" smooth="yes"/>
      <point x="534.55" y="649.15"/>
      <point x="443.75" y="740"/>
      <point x="331.85" y="740" type="curve" smooth="yes"/>
      <point x="220" y="740"/>
      <point x="129.15" y="649.15"/>
    </contour>
    <contour>
      <point x="174.4" y="536.65" type="curve" smooth="yes"/>
      <point x="174.4" y="623.55"/>
      <point x="244.95" y="694.15"/>
      <point x="331.85" y="694.15" type="curve" smooth="yes"/>
      <point x="418.8" y="694.15"/>
      <point x="489.35" y="623.55"/>
      <point x="489.35" y="536.65" type="curve" smooth="yes"/>
      <point x="489.35" y="449.75"/>
      <point x="418.8" y="379.2"/>
      <point x="331.85" y="379.2" type="curve" smooth="yes"/>
      <point x="244.95" y="379.2"/>
      <point x="174.4" y="449.75"/>
    </contour>
    <contour>
      <point x="219.45" y="536.65" type="curve" smooth="yes"/>
      <point x="219.45" y="474.6"/>
      <point x="269.85" y="424.25"/>
      <point x="331.85" y="424.25" type="curve" smooth="yes"/>
      <point x="393.9" y="424.25"/>
      <point x="444.3" y="474.6"/>
      <point x="444.3" y="536.65" type="curve" smooth="yes"/>
      <point x="444.3" y="598.7"/>
      <point x="393.9" y="649.05"/>
      <point x="331.85" y="649.05" type="curve" smooth="yes"/>
      <point x="269.85" y="649.05"/>
      <point x="219.45" y="598.7"/>
    </contour>
    <contour>
      <point x="273.2" y="494.9" type="line"/>
      <point x="331.6" y="596.05" type="line"/>
      <point x="389.85" y="494.9" type="line"/>
    </contour>
    <contour>
      <point x="693.6" y="353.25" type="curve" smooth="yes"/>
      <point x="693.6" y="241.4"/>
      <point x="784.4" y="150.55"/>
      <point x="896.3" y="150.55" type="curve" smooth="yes"/>
      <point x="1008.15" y="150.55"/>
      <point x="1099" y="241.4"/>
      <point x="1099" y="353.25" type="curve" smooth="yes"/>
      <point x="1099" y="465.15"/>
      <point x="1008.15" y="556"/>
      <point x="896.3" y="556" type="curve" smooth="yes"/>
      <point x="784.4" y="556"/>
      <point x="693.6" y="465.15"/>
    </contour>
    <contour>
      <point x="738.85" y="352.65" type="curve" smooth="yes"/>
      <point x="738.85" y="439.55"/>
      <point x="809.4" y="510.1"/>
      <point x="896.3" y="510.1" type="curve" smooth="yes"/>
      <point x="983.2" y="510.1"/>
      <point x="1053.8" y="439.55"/>
      <point x="1053.8" y="352.65" type="curve" smooth="yes"/>
      <point x="1053.8" y="265.7"/>
      <point x="983.2" y="195.15"/>
      <point x="896.3" y="195.15" type="curve" smooth="yes"/>
      <point x="809.4" y="195.15"/>
      <point x="738.85" y="265.7"/>
    </contour>
    <contour>
      <point x="783.9" y="352.65" type="curve" smooth="yes"/>
      <point x="783.9" y="290.6"/>
      <point x="834.25" y="240.25"/>
      <point x="896.3" y="240.25" type="curve" smooth="yes"/>
      <point x="958.35" y="240.25"/>
      <point x="1008.7" y="290.6"/>
      <point x="1008.7" y="352.65" type="curve" smooth="yes"/>
      <point x="1008.7" y="414.65"/>
      <point x="958.35" y="465.05"/>
      <point x="896.3" y="465.05" type="curve" smooth="yes"/>
      <point x="834.25" y="465.05"/>
      <point x="783.9" y="414.65"/>
    </contour>
    <contour>
      <point x="849.35" y="353" type="curve" smooth="yes"/>
      <point x="849.35" y="381.35"/>
      <point x="868" y="399.95"/>
      <point x="896.3" y="399.95" type="curve" smooth="yes"/>
      <point x="924.65" y="399.95"/>
      <point x="943.25" y="381.35"/>
      <point x="943.25" y="353" type="curve" smooth="yes"/>
      <point x="943.25" y="324.7"/>
      <point x="924.65" y="306.05"/>
      <point x="896.3" y="306.05" type="curve" smooth="yes"/>
      <point x="868" y="306.05"/>
      <point x="849.35" y="324.7"/>
    </contour>
    <contour>
      <point x="288.2" y="59.9" type="curve" smooth="yes"/>
      <point x="288.2" y="-52"/>
      <point x="379" y="-142.8"/>
      <point x="490.9" y="-142.8" type="curve" smooth="yes"/>
      <point x="602.75" y="-142.8"/>
      <point x="693.6" y="-52"/>
      <point x="693.6" y="59.9" type="curve" smooth="yes"/>
      <point x="693.6" y="171.75"/>
      <point x="602.75" y="262.6"/>
      <point x="490.9" y="262.6" type="curve" smooth="yes"/>
      <point x="379" y="262.6"/>
      <point x="288.2" y="171.75"/>
    </contour>
    <contour>
      <point x="333.45" y="59.25" type="curve" smooth="yes"/>
      <point x="333.45" y="146.15"/>
      <point x="404" y="216.7"/>
      <point x="490.9" y="216.7" type="curve" smooth="yes"/>
      <point x="577.8" y="216.7"/>
      <point x="648.4" y="146.15"/>
      <point x="648.4" y="59.25" type="curve" smooth="yes"/>
      <point x="648.4" y="-27.65"/>
      <point x="577.8" y="-98.25"/>
      <point x="490.9" y="-98.25" type="curve" smooth="yes"/>
      <point x="404" y="-98.25"/>
      <point x="333.45" y="-27.65"/>
    </contour>
    <contour>
      <point x="378.5" y="59.25" type="curve" smooth="yes"/>
      <point x="378.5" y="-2.8"/>
      <point x="428.85" y="-53.15"/>
      <point x="490.9" y="-53.15" type="curve" smooth="yes"/>
      <point x="552.95" y="-53.15"/>
      <point x="603.3" y="-2.8"/>
      <point x="603.3" y="59.25" type="curve" smooth="yes"/>
      <point x="603.3" y="121.3"/>
      <point x="552.95" y="171.65"/>
      <point x="490.9" y="171.65" type="curve" smooth="yes"/>
      <point x="428.85" y="171.65"/>
      <point x="378.5" y="121.3"/>
    </contour>
    <contour>
      <point x="449.45" y="16.1" type="line"/>
      <point x="449.45" y="98.85" type="line"/>
      <point x="532.2" y="98.85" type="line"/>
      <point x="532.2" y="16.1" type="line"/>
    </contour>
  </outline>
</glyph>
<glyph name="avatar_2" format="2">
  <advance width="1200"/>
  <unicode hex="E005"/>
  <outline>
    <contour>
      <point x="157.7" y="298.6" type="curve" smooth="yes"/>
      <point x="157.7" y="543.1"/>
      <point x="356.25" y="741.65"/>
      <point x="600.75" y="741.65" type="curve" smooth="yes"/>
      <point x="845.25" y="741.65"/>
      <point x="1043.75" y="543.1"/>
      <point x="1043.75" y="298.6" type="curve" smooth="yes"/>
      <point x="1043.75" y="54.25"/>
      <point x="844.5" y="-143.6"/>
      <point x="601.05" y="-143.6" type="curve" smooth="yes"/>
      <point x="356.45" y="-143.6"/>
      <point x="157.7" y="53.45"/>
    </contour>
    <contour>
      <point x="434.55" y="409.55" type="curve" smooth="yes"/>
      <point x="434.55" y="281.55"/>
      <point x="511.1" y="216.75"/>
      <point x="595.05" y="216.75" type="curve" smooth="yes"/>
      <point x="679" y="216.75"/>
      <point x="755.55" y="281.55"/>
      <point x="755.55" y="409.55" type="curve" smooth="yes"/>
      <point x="755.55" y="537.6"/>
      <point x="701.65" y="602.35"/>
      <point x="595.05" y="602.35" type="curve" smooth="yes"/>
      <point x="488.5" y="602.35"/>
      <point x="434.55" y="537.6"/>
    </contour>
    <contour>
      <point x="313.35" y="46.55" type="curve"/>
      <point x="384.1" y="-33.3"/>
      <point x="486.85" y="-83.6"/>
      <point x="601.05" y="-83.6" type="curve" smooth="yes"/>
      <point x="712.95" y="-83.6"/>
      <point x="813.55" y="-35.5"/>
      <point x="883.35" y="40.9" type="curve"/>
      <point x="853.9" y="107.45"/>
      <point x="796.6" y="148.3"/>
      <point x="595.45" y="148.3" type="curve" smooth="yes"/>
      <point x="399.15" y="148.3"/>
      <point x="342.25" y="108.85"/>
    </contour>
  </outline>
</glyph>
<glyph name="axie_infinity_shards_coin" format="2">
  <advance width="1200"/>
  <unicode hex="E006"/>
  <outline>
    <contour>
      <point x="157" y="299.6" type="curve" smooth="yes"/>
      <point x="157" y="543.9"/>
      <point x="355.3" y="742.2"/>
      <point x="599.6" y="742.2" type="curve" smooth="yes"/>
      <point x="843.85" y="742.2"/>
      <point x="1042.2" y="543.9"/>
      <point x="1042.2" y="299.6" type="curve" smooth="yes"/>
      <point x="1042.2" y="55.35"/>
      <point x="843.85" y="-143"/>
      <point x="599.6" y="-143" type="curve" smooth="yes"/>
      <point x="355.3" y="-143"/>
      <point x="157" y="55.35"/>
    </contour>
    <contour>
      <point x="216.5" y="299.6" type="curve" smooth="yes"/>
      <point x="216.5" y="88.2"/>
      <point x="388.15" y="-83.5"/>
      <point x="599.6" y="-83.5" type="curve" smooth="yes"/>
      <point x="811" y="-83.5"/>
      <point x="982.7" y="88.2"/>
      <point x="982.7" y="299.6" type="curve" smooth="yes"/>
      <point x="982.7" y="511.05"/>
      <point x="811" y="682.7"/>
      <point x="599.6" y="682.7" type="curve" smooth="yes"/>
      <point x="388.15" y="682.7"/>
      <point x="216.5" y="511.05"/>
    </contour>
    <contour>
      <point x="276.15" y="299.6" type="curve" smooth="yes"/>
      <point x="276.15" y="478.1"/>
      <point x="421.1" y="623.05"/>
      <point x="599.6" y="623.05" type="curve" smooth="yes"/>
      <point x="778.1" y="623.05"/>
      <point x="923" y="478.1"/>
      <point x="923" y="299.6" type="curve" smooth="yes"/>
      <point x="923" y="121.1"/>
      <point x="778.1" y="-23.8"/>
      <point x="599.6" y="-23.8" type="curve" smooth="yes"/>
      <point x="421.1" y="-23.8"/>
      <point x="276.15" y="121.1"/>
    </contour>
    <contour>
      <point x="406.95" y="442.25" type="curve"/>
      <point x="406.95" y="442.25"/>
      <point x="362.95" y="477.45"/>
      <point x="359.9" y="390.55" type="curve" smooth="yes"/>
      <point x="356.9" y="323.2"/>
      <point x="356.95" y="192.45"/>
      <point x="388.15" y="130.7" type="curve"/>
      <point x="401.3" y="107.45"/>
      <point x="419.15" y="114.25"/>
      <point x="451.65" y="137.7" type="curve" smooth="yes"/>
      <point x="480.35" y="158.45"/>
      <point x="583.1" y="253.65"/>
      <point x="626.75" y="295.3" type="curve" smooth="yes"/>
      <point x="670.35" y="336.95"/>
      <point x="759.1" y="456.5"/>
      <point x="777.2" y="375.25" type="curve" smooth="yes"/>
      <point x="784.8" y="341.2"/>
      <point x="793.5" y="312.15"/>
      <point x="786.6" y="236.5" type="curve" smooth="yes"/>
      <point x="784.5" y="213.15"/>
      <point x="774.5" y="195.5"/>
      <point x="729" y="227.05" type="curve"/>
      <point x="694.65" y="249.15"/>
      <point x="662" y="272.9"/>
      <point x="662" y="272.9" type="curve"/>
      <point x="662" y="272.9"/>
      <point x="655.65" y="284.25"/>
      <point x="640.8" y="265.85" type="curve" smooth="yes"/>
      <point x="629.05" y="251.25"/>
      <point x="623.2" y="247.6"/>
      <point x="641.95" y="236.5" type="curve" smooth="yes"/>
      <point x="660.75" y="225.35"/>
      <point x="755.95" y="159.9"/>
      <point x="792.4" y="149.5" type="curve" smooth="yes"/>
      <point x="822.55" y="140.9"/>
      <point x="840.2" y="140.9"/>
      <point x="840.6" y="200.05" type="curve" smooth="yes"/>
      <point x="840.95" y="247.05"/>
      <point x="837.75" y="381.45"/>
      <point x="820.65" y="438.75" type="curve"/>
      <point x="807.7" y="474.4"/>
      <point x="788.75" y="490.6"/>
      <point x="747.75" y="450.5" type="curve" smooth="yes"/>
      <point x="706.75" y="410.45"/>
      <point x="577.45" y="285.1"/>
      <point x="506.8" y="228.3" type="curve"/>
      <point x="459.9" y="193.1"/>
      <point x="439.35" y="161.2"/>
      <point x="422.2" y="220.05" type="curve" smooth="yes"/>
      <point x="409.25" y="264.3"/>
      <point x="393.6" y="402.75"/>
      <point x="444.5" y="376.4" type="curve"/>
      <point x="476.35" y="361.15"/>
      <point x="492.25" y="361.25"/>
      <point x="479.8" y="351.7" type="curve" smooth="yes"/>
      <point x="467.35" y="342.15"/>
      <point x="431.6" y="309.4"/>
      <point x="431.6" y="309.4" type="curve"/>
      <point x="431.6" y="309.4"/>
      <point x="420.55" y="300.45"/>
      <point x="425.7" y="281.15" type="curve"/>
      <point x="430.85" y="267.65"/>
      <point x="430.85" y="260.95"/>
      <point x="458.6" y="287.05" type="curve" smooth="yes"/>
      <point x="486.35" y="313.15"/>
      <point x="506.8" y="332.85"/>
      <point x="506.8" y="332.85" type="curve"/>
      <point x="506.8" y="332.85"/>
      <point x="511.2" y="339.8"/>
      <point x="524.35" y="326.95" type="curve" smooth="yes"/>
      <point x="537.55" y="314.15"/>
      <point x="539.65" y="310.55"/>
      <point x="539.65" y="310.55" type="curve"/>
      <point x="539.65" y="310.55"/>
      <point x="543.15" y="300.95"/>
      <point x="557.25" y="317.55" type="curve" smooth="yes"/>
      <point x="571.4" y="334.2"/>
      <point x="580.45" y="344.25"/>
      <point x="553.75" y="359.85" type="curve" smooth="yes"/>
      <point x="527.05" y="375.5"/>
      <point x="406.95" y="442.25"/>
    </contour>
  </outline>
  <guideline angle="0" color="0.545098,0,0.545098,1" x="0" y="719.633"/>
  <guideline angle="0" color="0.545098,0,0.545098,1" x="0" y="-120.129"/>
  <guideline angle="0" color="0.545098,0,0.545098,1" x="0" y="-143"/>
  <guideline angle="0" color="0.564706,0.223529,0.94902,1" x="0" y="742.22"/>
</glyph>
<glyph name="Block" format="2">
  <advance width="1200"/>
  <unicode hex="E00A"/>
  <outline>
    <contour>
      <point x="839.4" y="-119.45" type="line"/>
      <point x="151.9" y="-119.45" type="line"/>
      <point x="151.9" y="720.9" type="line"/>
      <point x="991.2" y="720.9" type="line"/>
      <point x="991.2" y="185.5" type="line"/>
      <point x="931.2" y="185.5" type="line"/>
      <point x="931.2" y="664.9" type="line"/>
      <point x="211.9" y="664.9" type="line"/>
      <point x="211.9" y="-63.45" type="line"/>
      <point x="839.4" y="-63.45" type="line"/>
    </contour>
    <contour>
      <point x="508.4" y="630" type="line"/>
      <point x="746.25" y="511.55" type="line"/>
      <point x="403.95" y="511.55" type="line"/>
      <point x="403.95" y="557.8" type="line"/>
      <point x="532.15" y="557.8" type="line"/>
    </contour>
    <contour>
      <point x="254.6" y="528.75" type="curve" smooth="yes"/>
      <point x="254.6" y="558"/>
      <point x="274.1" y="577.5"/>
      <point x="303.35" y="577.5" type="curve" smooth="yes"/>
      <point x="332.6" y="577.5"/>
      <point x="352.1" y="558"/>
      <point x="352.1" y="528.75" type="curve" smooth="yes"/>
      <point x="352.1" y="499.5"/>
      <point x="332.6" y="480"/>
      <point x="303.35" y="480" type="curve" smooth="yes"/>
      <point x="274.1" y="480"/>
      <point x="254.6" y="499.5"/>
    </contour>
    <contour>
      <point x="790" y="528.75" type="curve" smooth="yes"/>
      <point x="790" y="558"/>
      <point x="809.5" y="577.5"/>
      <point x="838.75" y="577.5" type="curve" smooth="yes"/>
      <point x="868" y="577.5"/>
      <point x="887.5" y="558"/>
      <point x="887.5" y="528.75" type="curve" smooth="yes"/>
      <point x="887.5" y="499.5"/>
      <point x="868" y="480"/>
      <point x="838.75" y="480" type="curve" smooth="yes"/>
      <point x="809.5" y="480"/>
      <point x="790" y="499.5"/>
    </contour>
    <contour>
      <point x="255.2" y="381.7" type="curve" smooth="yes"/>
      <point x="255.2" y="410.95"/>
      <point x="274.7" y="430.45"/>
      <point x="303.95" y="430.45" type="curve" smooth="yes"/>
      <point x="333.2" y="430.45"/>
      <point x="352.65" y="410.95"/>
      <point x="352.65" y="381.7" type="curve" smooth="yes"/>
      <point x="352.65" y="352.45"/>
      <point x="333.2" y="332.95"/>
      <point x="303.95" y="332.95" type="curve" smooth="yes"/>
      <point x="274.7" y="332.95"/>
      <point x="255.2" y="352.45"/>
    </contour>
    <contour>
      <point x="790.6" y="381.7" type="curve" smooth="yes"/>
      <point x="790.6" y="410.95"/>
      <point x="810.1" y="430.45"/>
      <point x="839.35" y="430.45" type="curve" smooth="yes"/>
      <point x="868.6" y="430.45"/>
      <point x="888.05" y="410.95"/>
      <point x="888.05" y="381.7" type="curve" smooth="yes"/>
      <point x="888.05" y="352.45"/>
      <point x="868.6" y="332.95"/>
      <point x="839.35" y="332.95" type="curve" smooth="yes"/>
      <point x="810.1" y="332.95"/>
      <point x="790.6" y="352.45"/>
    </contour>
    <contour>
      <point x="399.75" y="351.45" type="line"/>
      <point x="399.75" y="408.85" type="line"/>
      <point x="458.4" y="408.85" type="line"/>
      <point x="458.4" y="351.45" type="line"/>
    </contour>
    <contour>
      <point x="497.4" y="351.45" type="line"/>
      <point x="497.4" y="408.85" type="line"/>
      <point x="556" y="408.85" type="line"/>
      <point x="556" y="351.45" type="line"/>
    </contour>
    <contour>
      <point x="593.75" y="351.45" type="line"/>
      <point x="593.75" y="408.85" type="line"/>
      <point x="652.35" y="408.85" type="line"/>
      <point x="652.35" y="351.45" type="line"/>
    </contour>
    <contour>
      <point x="688.2" y="351.45" type="line"/>
      <point x="688.2" y="408.85" type="line"/>
      <point x="746.85" y="408.85" type="line"/>
      <point x="746.85" y="351.45" type="line"/>
    </contour>
    <contour>
      <point x="822.1" y="98.8" type="line" name="hr00"/>
      <point x="888.6" y="98.8" type="line"/>
      <point x="944" y="-39.85" type="line"/>
      <point x="1068.15" y="304.4" type="line"/>
      <point x="1130.6" y="304.4" type="line"/>
      <point x="973.85" y="-119.65" type="line"/>
      <point x="915.95" y="-119.65" type="line"/>
    </contour>
    <contour>
      <point x="255.2" y="234.7" type="curve" smooth="yes"/>
      <point x="255.2" y="263.9"/>
      <point x="274.7" y="283.4"/>
      <point x="303.95" y="283.4" type="curve" smooth="yes"/>
      <point x="333.2" y="283.4"/>
      <point x="352.65" y="263.9"/>
      <point x="352.65" y="234.7" type="curve" smooth="yes"/>
      <point x="352.65" y="205.45"/>
      <point x="333.2" y="185.95"/>
      <point x="303.95" y="185.95" type="curve" smooth="yes"/>
      <point x="274.7" y="185.95"/>
      <point x="255.2" y="205.45"/>
    </contour>
    <contour>
      <point x="790.6" y="234.7" type="curve" smooth="yes"/>
      <point x="790.6" y="263.9"/>
      <point x="810.1" y="283.4"/>
      <point x="839.35" y="283.4" type="curve" smooth="yes"/>
      <point x="868.6" y="283.4"/>
      <point x="888.05" y="263.9"/>
      <point x="888.05" y="234.7" type="curve" smooth="yes"/>
      <point x="888.05" y="205.45"/>
      <point x="868.6" y="185.95"/>
      <point x="839.35" y="185.95" type="curve" smooth="yes"/>
      <point x="810.1" y="185.95"/>
      <point x="790.6" y="205.45"/>
    </contour>
    <contour>
      <point x="399.75" y="204.45" type="line"/>
      <point x="399.75" y="261.85" type="line"/>
      <point x="458.4" y="261.85" type="line"/>
      <point x="458.4" y="204.45" type="line"/>
    </contour>
    <contour>
      <point x="497.4" y="204.45" type="line"/>
      <point x="497.4" y="261.85" type="line"/>
      <point x="556" y="261.85" type="line"/>
      <point x="556" y="204.45" type="line"/>
    </contour>
    <contour>
      <point x="593.75" y="204.45" type="line"/>
      <point x="593.75" y="261.85" type="line"/>
      <point x="652.35" y="261.85" type="line"/>
      <point x="652.35" y="204.45" type="line"/>
    </contour>
    <contour>
      <point x="688.2" y="204.45" type="line"/>
      <point x="688.2" y="261.85" type="line"/>
      <point x="746.85" y="261.85" type="line"/>
      <point x="746.85" y="204.45" type="line"/>
    </contour>
    <contour>
      <point x="255.2" y="87.65" type="curve" smooth="yes"/>
      <point x="255.2" y="116.9"/>
      <point x="274.7" y="136.4"/>
      <point x="303.95" y="136.4" type="curve" smooth="yes"/>
      <point x="333.2" y="136.4"/>
      <point x="352.65" y="116.9"/>
      <point x="352.65" y="87.65" type="curve" smooth="yes"/>
      <point x="352.65" y="58.4"/>
      <point x="333.2" y="38.9"/>
      <point x="303.95" y="38.9" type="curve" smooth="yes"/>
      <point x="274.7" y="38.9"/>
      <point x="255.2" y="58.4"/>
    </contour>
    <contour>
      <point x="399.75" y="58.2" type="line"/>
      <point x="399.75" y="115.6" type="line"/>
      <point x="458.4" y="115.6" type="line"/>
      <point x="458.4" y="58.2" type="line"/>
    </contour>
    <contour>
      <point x="497.4" y="58.2" type="line"/>
      <point x="497.4" y="115.6" type="line"/>
      <point x="556" y="115.6" type="line"/>
      <point x="556" y="58.2" type="line"/>
    </contour>
    <contour>
      <point x="593.75" y="58.2" type="line"/>
      <point x="593.75" y="115.6" type="line"/>
      <point x="652.35" y="115.6" type="line"/>
      <point x="652.35" y="58.2" type="line"/>
    </contour>
    <contour>
      <point x="688.2" y="58.2" type="line"/>
      <point x="688.2" y="115.6" type="line"/>
      <point x="746.85" y="115.6" type="line"/>
      <point x="746.85" y="58.2" type="line"/>
    </contour>
  </outline>
</glyph>
<glyph name="block_genesis" format="2">
  <advance width="1200"/>
  <unicode hex="E00C"/>
  <outline>
    <contour>
      <point x="668.3" y="-120.75" type="line"/>
      <point x="100.9" y="-120.75" type="line"/>
      <point x="100.9" y="719.65" type="line"/>
      <point x="941.2" y="719.65" type="line"/>
      <point x="941.2" y="335.95" type="line"/>
      <point x="881.2" y="335.95" type="line"/>
      <point x="881.2" y="663.6" type="line"/>
      <point x="160.9" y="663.6" type="line"/>
      <point x="160.9" y="-64.7" type="line"/>
      <point x="668.3" y="-64.7" type="line"/>
    </contour>
    <contour>
      <point x="458.4" y="628" type="line"/>
      <point x="696.25" y="509.55" type="line"/>
      <point x="353.95" y="509.55" type="line"/>
      <point x="353.95" y="555.8" type="line"/>
      <point x="482.15" y="555.8" type="line"/>
    </contour>
    <contour>
      <point x="204.6" y="526.75" type="curve" smooth="yes"/>
      <point x="204.6" y="556"/>
      <point x="224.1" y="575.5"/>
      <point x="253.35" y="575.5" type="curve" smooth="yes"/>
      <point x="282.6" y="575.5"/>
      <point x="302.1" y="556"/>
      <point x="302.1" y="526.75" type="curve" smooth="yes"/>
      <point x="302.1" y="497.5"/>
      <point x="282.6" y="478"/>
      <point x="253.35" y="478" type="curve" smooth="yes"/>
      <point x="224.1" y="478"/>
      <point x="204.6" y="497.5"/>
    </contour>
    <contour>
      <point x="740" y="526.75" type="curve" smooth="yes"/>
      <point x="740" y="556"/>
      <point x="759.5" y="575.5"/>
      <point x="788.75" y="575.5" type="curve" smooth="yes"/>
      <point x="818" y="575.5"/>
      <point x="837.5" y="556"/>
      <point x="837.5" y="526.75" type="curve" smooth="yes"/>
      <point x="837.5" y="497.5"/>
      <point x="818" y="478"/>
      <point x="788.75" y="478" type="curve" smooth="yes"/>
      <point x="759.5" y="478"/>
      <point x="740" y="497.5"/>
    </contour>
    <contour>
      <point x="205.2" y="379.7" type="curve" smooth="yes"/>
      <point x="205.2" y="408.95"/>
      <point x="224.7" y="428.45"/>
      <point x="253.95" y="428.45" type="curve" smooth="yes"/>
      <point x="283.2" y="428.45"/>
      <point x="302.65" y="408.95"/>
      <point x="302.65" y="379.7" type="curve" smooth="yes"/>
      <point x="302.65" y="350.45"/>
      <point x="283.2" y="330.95"/>
      <point x="253.95" y="330.95" type="curve" smooth="yes"/>
      <point x="224.7" y="330.95"/>
      <point x="205.2" y="350.45"/>
    </contour>
    <contour>
      <point x="740.6" y="379.7" type="curve" smooth="yes"/>
      <point x="740.6" y="408.95"/>
      <point x="760.1" y="428.45"/>
      <point x="789.35" y="428.45" type="curve" smooth="yes"/>
      <point x="818.6" y="428.45"/>
      <point x="838.05" y="408.95"/>
      <point x="838.05" y="379.7" type="curve" smooth="yes"/>
      <point x="838.05" y="350.45"/>
      <point x="818.6" y="330.95"/>
      <point x="789.35" y="330.95" type="curve" smooth="yes"/>
      <point x="760.1" y="330.95"/>
      <point x="740.6" y="350.45"/>
    </contour>
    <contour>
      <point x="349.75" y="349.45" type="line"/>
      <point x="349.75" y="406.85" type="line"/>
      <point x="408.4" y="406.85" type="line"/>
      <point x="408.4" y="349.45" type="line"/>
    </contour>
    <contour>
      <point x="447.4" y="349.45" type="line"/>
      <point x="447.4" y="406.85" type="line"/>
      <point x="506" y="406.85" type="line"/>
      <point x="506" y="349.45" type="line"/>
    </contour>
    <contour>
      <point x="543.75" y="349.45" type="line"/>
      <point x="543.75" y="406.85" type="line"/>
      <point x="602.35" y="406.85" type="line"/>
      <point x="602.35" y="349.45" type="line"/>
    </contour>
    <contour>
      <point x="638.2" y="349.45" type="line"/>
      <point x="638.2" y="406.85" type="line"/>
      <point x="696.85" y="406.85" type="line"/>
      <point x="696.85" y="349.45" type="line"/>
    </contour>
    <contour>
      <point x="205.2" y="232.7" type="curve" smooth="yes"/>
      <point x="205.2" y="261.9"/>
      <point x="224.7" y="281.4"/>
      <point x="253.95" y="281.4" type="curve" smooth="yes"/>
      <point x="283.2" y="281.4"/>
      <point x="302.65" y="261.9"/>
      <point x="302.65" y="232.7" type="curve" smooth="yes"/>
      <point x="302.65" y="203.45"/>
      <point x="283.2" y="183.95"/>
      <point x="253.95" y="183.95" type="curve" smooth="yes"/>
      <point x="224.7" y="183.95"/>
      <point x="205.2" y="203.45"/>
    </contour>
    <contour>
      <point x="740.6" y="232.7" type="curve" smooth="yes"/>
      <point x="740.6" y="261.9"/>
      <point x="760.1" y="281.4"/>
      <point x="789.35" y="281.4" type="curve" smooth="yes"/>
      <point x="818.6" y="281.4"/>
      <point x="838.05" y="261.9"/>
      <point x="838.05" y="232.7" type="curve" smooth="yes"/>
      <point x="838.05" y="203.45"/>
      <point x="818.6" y="183.95"/>
      <point x="789.35" y="183.95" type="curve" smooth="yes"/>
      <point x="760.1" y="183.95"/>
      <point x="740.6" y="203.45"/>
    </contour>
    <contour>
      <point x="686.8" y="75.55" type="line" name="hr00"/>
      <point x="753.3" y="75.55" type="line"/>
      <point x="790.35" y="-40.3" type="line"/>
      <point x="899.75" y="263.05" type="line"/>
      <point x="962.2" y="263.05" type="line"/>
      <point x="820.75" y="-118.55" type="line"/>
      <point x="762.85" y="-118.55" type="line"/>
    </contour>
    <contour>
      <point x="349.75" y="202.45" type="line"/>
      <point x="349.75" y="259.85" type="line"/>
      <point x="408.4" y="259.85" type="line"/>
      <point x="408.4" y="202.45" type="line"/>
    </contour>
    <contour>
      <point x="447.4" y="202.45" type="line"/>
      <point x="447.4" y="259.85" type="line"/>
      <point x="506" y="259.85" type="line"/>
      <point x="506" y="202.45" type="line"/>
    </contour>
    <contour>
      <point x="543.75" y="202.45" type="line"/>
      <point x="543.75" y="259.85" type="line"/>
      <point x="602.35" y="259.85" type="line"/>
      <point x="602.35" y="202.45" type="line"/>
    </contour>
    <contour>
      <point x="638.2" y="202.45" type="line"/>
      <point x="638.2" y="259.85" type="line"/>
      <point x="696.85" y="259.85" type="line"/>
      <point x="696.85" y="202.45" type="line"/>
    </contour>
    <contour>
      <point x="992.5" y="155.6" type="line"/>
      <point x="1083.1" y="155.6" type="line"/>
      <point x="1083.1" y="-71.8" type="line"/>
      <point x="1141.4" y="-71.8" type="line"/>
      <point x="1141.4" y="-119.45" type="line"/>
      <point x="949.95" y="-119.45" type="line"/>
      <point x="949.95" y="-71.8" type="line"/>
      <point x="1024" y="-71.8" type="line"/>
      <point x="1024" y="112.65" type="line"/>
      <point x="1020.45" y="112.65" type="line"/>
      <point x="964.55" y="39.35" type="line"/>
      <point x="926.7" y="68.9" type="line"/>
    </contour>
    <contour>
      <point x="205.2" y="85.65" type="curve" smooth="yes"/>
      <point x="205.2" y="114.9"/>
      <point x="224.7" y="134.4"/>
      <point x="253.95" y="134.4" type="curve" smooth="yes"/>
      <point x="283.2" y="134.4"/>
      <point x="302.65" y="114.9"/>
      <point x="302.65" y="85.65" type="curve" smooth="yes"/>
      <point x="302.65" y="56.4"/>
      <point x="283.2" y="36.9"/>
      <point x="253.95" y="36.9" type="curve" smooth="yes"/>
      <point x="224.7" y="36.9"/>
      <point x="205.2" y="56.4"/>
    </contour>
    <contour>
      <point x="349.75" y="56.2" type="line"/>
      <point x="349.75" y="113.6" type="line"/>
      <point x="408.4" y="113.6" type="line"/>
      <point x="408.4" y="56.2" type="line"/>
    </contour>
    <contour>
      <point x="447.4" y="56.2" type="line"/>
      <point x="447.4" y="113.6" type="line"/>
      <point x="506" y="113.6" type="line"/>
      <point x="506" y="56.2" type="line"/>
    </contour>
    <contour>
      <point x="543.75" y="56.2" type="line"/>
      <point x="543.75" y="113.6" type="line"/>
      <point x="602.35" y="113.6" type="line"/>
      <point x="602.35" y="56.2" type="line"/>
    </contour>
  </outline>
</glyph>
<glyph name="block_reward" format="2">
  <advance width="1200"/>
  <unicode hex="E00D"/>
  <outline>
    <contour>
      <point x="732.7" y="-69.6" type="line" smooth="yes"/>
      <point x="760.36" y="-88.7521"/>
      <point x="813.392" y="-79.262"/>
      <point x="844.25" y="-65.5" type="curve" smooth="yes"/>
      <point x="1140" y="66.4" type="line" smooth="yes"/>
      <point x="1162.94" y="76.6295"/>
      <point x="1161.9" y="105.25"/>
      <point x="1161.9" y="111.95" type="curve" smooth="yes"/>
      <point x="1161.9" y="161.05"/>
      <point x="1118.05" y="207.35"/>
      <point x="1061.45" y="207.35" type="curve" smooth="yes"/>
      <point x="1025.2" y="207.35"/>
      <point x="971.65" y="186.5"/>
      <point x="938.65" y="172.55" type="curve"/>
      <point x="927.25" y="180.2"/>
      <point x="912.9" y="185.55"/>
      <point x="896.35" y="186.95" type="curve" smooth="yes"/>
      <point x="785.05" y="196.4" type="line"/>
      <point x="747.55" y="247.7"/>
      <point x="702.55" y="265.9"/>
      <point x="654.85" y="267.5" type="curve" smooth="yes"/>
      <point x="647" y="267.75"/>
      <point x="638.5" y="267.3"/>
      <point x="629.8" y="266.15" type="curve"/>
      <point x="629.8" y="780" type="line"/>
      <point x="570.1" y="780" type="line"/>
      <point x="570" y="720.6" type="line"/>
      <point x="155.75" y="720.6" type="line"/>
      <point x="155.75" y="-119.75" type="line"/>
      <point x="570.1" y="-119.75" type="line"/>
      <point x="570.1" y="-175.1" type="line"/>
      <point x="629.8" y="-175.1" type="line"/>
      <point x="629.8" y="1.64997" type="line"/>
    </contour>
    <contour>
      <point x="1058.9" y="511.15" type="curve" smooth="yes"/>
      <point x="1058.9" y="603.75"/>
      <point x="983.7" y="678.95"/>
      <point x="891.1" y="678.95" type="curve" smooth="yes"/>
      <point x="798.5" y="678.95"/>
      <point x="723.3" y="603.75"/>
      <point x="723.3" y="511.15" type="curve" smooth="yes"/>
      <point x="723.3" y="418.55"/>
      <point x="798.5" y="343.35"/>
      <point x="891.1" y="343.35" type="curve" smooth="yes"/>
      <point x="983.7" y="343.35"/>
      <point x="1058.9" y="418.55"/>
    </contour>
    <contour>
      <point x="417.7" y="557.8" type="line"/>
      <point x="417.7" y="511.55" type="line"/>
      <point x="570.1" y="511.55" type="line"/>
      <point x="570.1" y="408.85" type="line"/>
      <point x="519.2" y="408.85" type="line"/>
      <point x="519.2" y="351.45" type="line"/>
      <point x="570.1" y="351.45" type="line"/>
      <point x="570.1" y="261.85" type="line"/>
      <point x="519.2" y="261.85" type="line"/>
      <point x="519.2" y="204.45" type="line"/>
      <point x="570.1" y="204.45" type="line"/>
      <point x="570.1" y="115.6" type="line"/>
      <point x="519.2" y="115.6" type="line"/>
      <point x="519.2" y="58.2" type="line"/>
      <point x="570.1" y="58.2" type="line"/>
      <point x="570.1" y="-63.75" type="line"/>
      <point x="215.75" y="-63.75" type="line"/>
      <point x="215.75" y="664.6" type="line"/>
      <point x="570.1" y="664.6" type="line"/>
      <point x="570.1" y="557.8" type="line"/>
    </contour>
    <contour>
      <point x="1019.05" y="511.15" type="curve" smooth="yes"/>
      <point x="1019.05" y="440.55"/>
      <point x="961.7" y="383.2"/>
      <point x="891.1" y="383.2" type="curve" smooth="yes"/>
      <point x="820.45" y="383.2"/>
      <point x="763.15" y="440.55"/>
      <point x="763.15" y="511.15" type="curve" smooth="yes"/>
      <point x="763.15" y="581.8"/>
      <point x="820.45" y="639.1"/>
      <point x="891.1" y="639.1" type="curve" smooth="yes"/>
      <point x="961.7" y="639.1"/>
      <point x="1019.05" y="581.8"/>
    </contour>
    <contour>
      <point x="981.6" y="511.15" type="curve" smooth="yes"/>
      <point x="981.6" y="561.1"/>
      <point x="941.05" y="601.7"/>
      <point x="891.1" y="601.7" type="curve" smooth="yes"/>
      <point x="841.15" y="601.7"/>
      <point x="800.55" y="561.1"/>
      <point x="800.55" y="511.15" type="curve" smooth="yes"/>
      <point x="800.55" y="461.2"/>
      <point x="841.15" y="420.65"/>
      <point x="891.1" y="420.65" type="curve" smooth="yes"/>
      <point x="941.05" y="420.65"/>
      <point x="981.6" y="461.2"/>
    </contour>
    <contour>
      <point x="374.55" y="528.75" type="curve" smooth="yes"/>
      <point x="374.55" y="558"/>
      <point x="355.05" y="577.5"/>
      <point x="325.8" y="577.5" type="curve" smooth="yes"/>
      <point x="296.55" y="577.5"/>
      <point x="277.05" y="558"/>
      <point x="277.05" y="528.75" type="curve" smooth="yes"/>
      <point x="277.05" y="499.5"/>
      <point x="296.55" y="480"/>
      <point x="325.8" y="480" type="curve" smooth="yes"/>
      <point x="355.05" y="480"/>
      <point x="374.55" y="499.5"/>
    </contour>
    <contour>
      <point x="373.95" y="381.7" type="curve" smooth="yes"/>
      <point x="373.95" y="410.95"/>
      <point x="354.45" y="430.45"/>
      <point x="325.2" y="430.45" type="curve" smooth="yes"/>
      <point x="295.95" y="430.45"/>
      <point x="276.45" y="410.95"/>
      <point x="276.45" y="381.7" type="curve" smooth="yes"/>
      <point x="276.45" y="352.45"/>
      <point x="295.95" y="332.95"/>
      <point x="325.2" y="332.95" type="curve" smooth="yes"/>
      <point x="354.45" y="332.95"/>
      <point x="373.95" y="352.45"/>
    </contour>
    <contour>
      <point x="483.3" y="351.45" type="line"/>
      <point x="483.3" y="408.85" type="line"/>
      <point x="417.7" y="408.85" type="line"/>
      <point x="417.7" y="351.45" type="line"/>
    </contour>
    <contour>
      <point x="373.95" y="234.7" type="curve" smooth="yes"/>
      <point x="373.95" y="263.9"/>
      <point x="354.45" y="283.4"/>
      <point x="325.2" y="283.4" type="curve" smooth="yes"/>
      <point x="295.95" y="283.4"/>
      <point x="276.45" y="263.9"/>
      <point x="276.45" y="234.7" type="curve" smooth="yes"/>
      <point x="276.45" y="205.45"/>
      <point x="295.95" y="185.95"/>
      <point x="325.2" y="185.95" type="curve" smooth="yes"/>
      <point x="354.45" y="185.95"/>
      <point x="373.95" y="205.45"/>
    </contour>
    <contour>
      <point x="483.3" y="204.45" type="line"/>
      <point x="483.3" y="261.85" type="line"/>
      <point x="417.7" y="261.85" type="line"/>
      <point x="417.7" y="204.45" type="line"/>
    </contour>
    <contour>
      <point x="787.1" y="8.6" type="line"/>
      <point x="839.8" y="41.8" type="line"/>
      <point x="892.85" y="29.6"/>
      <point x="970.25" y="36.8"/>
      <point x="970.25" y="121.7" type="curve" smooth="yes"/>
      <point x="970.25" y="125.2"/>
      <point x="969.8" y="128.7"/>
      <point x="969" y="132.3" type="curve"/>
      <point x="1034.05" y="154.85" type="line" smooth="yes"/>
      <point x="1070.2" y="167.383"/>
      <point x="1101.65" y="150"/>
      <point x="1111.6" y="105" type="curve"/>
      <point x="832.25" y="-22.05" type="line" smooth="yes"/>
      <point x="806.704" y="-33.6683"/>
      <point x="763.934" y="-33.5235"/>
      <point x="740.15" y="-16.5" type="curve" smooth="yes"/>
      <point x="628.45" y="63.45" type="line"/>
      <point x="629.8" y="210.55" type="line"/>
      <point x="635.9" y="211.55"/>
      <point x="642.65" y="212.25"/>
      <point x="650.2" y="212.45" type="curve" smooth="yes"/>
      <point x="687.4" y="213.45"/>
      <point x="710.5" y="207.95"/>
      <point x="744.8" y="172.8" type="curve" smooth="yes"/>
      <point x="758" y="159.25"/>
      <point x="768.65" y="151.4"/>
      <point x="798.85" y="149.25" type="curve" smooth="yes"/>
      <point x="894" y="142.5" type="line" smooth="yes"/>
      <point x="912.8" y="141.15"/>
      <point x="922.55" y="122.4"/>
      <point x="920.65" y="107.7" type="curve" smooth="yes"/>
      <point x="918.05" y="87.35"/>
      <point x="893.55" y="78.95"/>
      <point x="866.2" y="85.4999" type="curve" smooth="yes"/>
      <point x="667.95" y="132.95" type="line"/>
      <point x="657.05" y="88.4999" type="line"/>
      <point x="777.9" y="57.55" type="line"/>
      <point x="758.1" y="44.85" type="line"/>
    </contour>
    <contour>
      <point x="373.95" y="87.65" type="curve" smooth="yes"/>
      <point x="373.95" y="116.9"/>
      <point x="354.45" y="136.4"/>
      <point x="325.2" y="136.4" type="curve" smooth="yes"/>
      <point x="295.95" y="136.4"/>
      <point x="276.45" y="116.9"/>
      <point x="276.45" y="87.65" type="curve" smooth="yes"/>
      <point x="276.45" y="58.4"/>
      <point x="295.95" y="38.95"/>
      <point x="325.2" y="38.95" type="curve" smooth="yes"/>
      <point x="354.45" y="38.95"/>
      <point x="373.95" y="58.4"/>
    </contour>
    <contour>
      <point x="483.3" y="58.2" type="line"/>
      <point x="483.3" y="115.6" type="line"/>
      <point x="417.7" y="115.6" type="line"/>
      <point x="417.7" y="58.2" type="line"/>
    </contour>
  </outline>
  <guideline angle="0" x="0" y="760.758"/>
  <guideline angle="0" x="0" y="-157.88"/>
  <guideline angle="0" x="0" y="357.562"/>
  <guideline angle="0" x="0" y="760.758"/>
  <guideline angle="0" x="0" y="-157.88"/>
  <guideline angle="0" x="0" y="357.562"/>
</glyph>
<glyph name="blockchain_protocol" format="2">
  <advance width="1200"/>
  <unicode hex="E00F"/>
  <outline>
    <contour>
      <point x="570.928" y="563.501" type="line"/>
      <point x="570.928" y="491.401" type="line"/>
      <point x="686.978" y="491.401" type="line"/>
      <point x="686.978" y="560.451" type="line"/>
      <point x="858.178" y="560.451" type="line"/>
      <point x="858.178" y="491.801" type="line"/>
      <point x="967.528" y="491.651" type="line"/>
      <point x="967.528" y="561.501" type="line"/>
      <point x="1138.68" y="561.501" type="line"/>
      <point x="1138.68" y="382.401" type="line"/>
      <point x="967.528" y="382.401" type="line"/>
      <point x="967.528" y="451.651" type="line"/>
      <point x="858.178" y="451.801" type="line"/>
      <point x="858.178" y="381.351" type="line"/>
      <point x="686.978" y="381.351" type="line"/>
      <point x="686.978" y="451.401" type="line"/>
      <point x="570.928" y="451.401" type="line"/>
      <point x="570.928" y="384.401" type="line"/>
      <point x="399.778" y="384.401" type="line"/>
      <point x="399.778" y="451.401" type="line"/>
      <point x="275.578" y="451.401" type="line"/>
      <point x="275.578" y="369.151" type="line"/>
      <point x="80.5276" y="369.151" type="line"/>
      <point x="80.5276" y="573.201" type="line"/>
      <point x="275.578" y="573.201" type="line"/>
      <point x="275.578" y="491.401" type="line"/>
      <point x="399.778" y="491.401" type="line"/>
      <point x="399.778" y="563.501" type="line"/>
    </contour>
    <contour>
      <point x="1097.93" y="520.751" type="line"/>
      <point x="1007.63" y="520.751" type="line"/>
      <point x="1007.63" y="422.351" type="line"/>
      <point x="1097.93" y="422.351" type="line"/>
    </contour>
    <contour>
      <point x="35.7276" y="62.1511" type="curve" smooth="yes"/>
      <point x="35.7276" y="114.501"/>
      <point x="70.6276" y="149.401"/>
      <point x="122.978" y="149.401" type="curve" smooth="yes"/>
      <point x="131.228" y="149.401"/>
      <point x="139.028" y="148.501"/>
      <point x="146.328" y="146.851" type="curve"/>
      <point x="185.728" y="198.551" type="line"/>
      <point x="175.478" y="209.751"/>
      <point x="169.178" y="224.651"/>
      <point x="169.178" y="241.001" type="curve" smooth="yes"/>
      <point x="169.178" y="251.601"/>
      <point x="171.778" y="261.551"/>
      <point x="176.428" y="270.301" type="curve"/>
      <point x="29.9276" y="270.301" type="line"/>
      <point x="29.9276" y="330.151" type="line"/>
      <point x="1169.23" y="330.151" type="line"/>
      <point x="1169.23" y="270.301" type="line"/>
      <point x="1096.33" y="270.301" type="line"/>
      <point x="1094.88" y="222.551"/>
      <point x="1063.78" y="190.101"/>
      <point x="1016.98" y="186.851" type="curve"/>
      <point x="979.978" y="10.2511" type="line"/>
      <point x="991.428" y="-1.1489"/>
      <point x="998.528" y="-16.9489"/>
      <point x="998.528" y="-34.3489" type="curve" smooth="yes"/>
      <point x="998.528" y="-69.1489"/>
      <point x="970.278" y="-97.3489"/>
      <point x="935.528" y="-97.3489" type="curve" smooth="yes"/>
      <point x="900.778" y="-97.3489"/>
      <point x="872.528" y="-69.1489"/>
      <point x="872.528" y="-34.3489" type="curve" smooth="yes"/>
      <point x="872.528" y="-24.4989"/>
      <point x="874.828" y="-15.1489"/>
      <point x="878.878" y="-6.8489" type="curve"/>
      <point x="813.378" y="92.6511" type="line"/>
      <point x="803.578" y="86.3511"/>
      <point x="791.978" y="82.7011"/>
      <point x="779.478" y="82.7011" type="curve" smooth="yes"/>
      <point x="749.528" y="82.7011"/>
      <point x="724.478" y="103.651"/>
      <point x="718.078" y="131.601" type="curve"/>
      <point x="595.628" y="126.551" type="line"/>
      <point x="592.878" y="102.401"/>
      <point x="582.078" y="82.7511"/>
      <point x="565.278" y="69.7011" type="curve"/>
      <point x="632.828" y="-20.4489" type="line"/>
      <point x="639.278" y="-18.1989"/>
      <point x="646.228" y="-16.9489"/>
      <point x="653.478" y="-16.9489" type="curve" smooth="yes"/>
      <point x="688.228" y="-16.9489"/>
      <point x="716.478" y="-45.1989"/>
      <point x="716.478" y="-79.9489" type="curve" smooth="yes"/>
      <point x="716.478" y="-114.749"/>
      <point x="688.228" y="-142.949"/>
      <point x="653.478" y="-142.949" type="curve" smooth="yes"/>
      <point x="618.678" y="-142.949"/>
      <point x="590.478" y="-114.749"/>
      <point x="590.478" y="-79.9489" type="curve" smooth="yes"/>
      <point x="590.478" y="-65.1489"/>
      <point x="595.628" y="-51.5989"/>
      <point x="604.178" y="-40.8489" type="curve"/>
      <point x="531.728" y="54.3511" type="line"/>
      <point x="524.628" y="52.8011"/>
      <point x="517.078" y="52.0011"/>
      <point x="509.128" y="52.0011" type="curve" smooth="yes"/>
      <point x="499.378" y="52.0011"/>
      <point x="490.228" y="53.2511"/>
      <point x="481.828" y="55.5511" type="curve"/>
      <point x="403.978" y="-51.6489" type="line"/>
      <point x="404.828" y="-55.2989"/>
      <point x="405.278" y="-59.0989"/>
      <point x="405.278" y="-62.9989" type="curve" smooth="yes"/>
      <point x="405.278" y="-91.1489"/>
      <point x="382.428" y="-113.999"/>
      <point x="354.278" y="-113.999" type="curve" smooth="yes"/>
      <point x="326.128" y="-113.999"/>
      <point x="303.278" y="-91.1489"/>
      <point x="303.278" y="-62.9989" type="curve" smooth="yes"/>
      <point x="303.278" y="-54.2489"/>
      <point x="305.478" y="-46.0489"/>
      <point x="309.378" y="-38.8989" type="curve"/>
      <point x="235.386" y="178.097" type="line"/>
      <point x="235.364" y="178.096"/>
      <point x="235.342" y="178.095"/>
      <point x="232.178" y="178" type="curve"/>
      <point x="226.478" y="178"/>
      <point x="220.978" y="178.75"/>
      <point x="215.728" y="180.2" type="curve"/>
      <point x="178.528" y="132.1" type="line"/>
      <point x="198.528" y="116.9"/>
      <point x="210.228" y="92.4501"/>
      <point x="210.228" y="62.1501" type="curve" smooth="yes"/>
      <point x="210.228" y="9.8001"/>
      <point x="175.328" y="-25.0999"/>
      <point x="122.978" y="-25.0999" type="curve" smooth="yes"/>
      <point x="70.6277" y="-25.0999"/>
      <point x="35.7277" y="9.8001"/>
    </contour>
    <contour>
      <point x="298.978" y="243.251" type="line"/>
      <point x="434.078" y="187.251" type="line"/>
      <point x="448.628" y="211.801"/>
      <point x="475.228" y="226.451"/>
      <point x="511.278" y="226.401" type="curve"/>
      <point x="518.228" y="270.301" type="line"/>
      <point x="352.128" y="270.301" type="line"/>
    </contour>
    <contour>
      <point x="545.978" y="219.701" type="line"/>
      <point x="571.078" y="209.651"/>
      <point x="588.378" y="188.801"/>
      <point x="594.228" y="160.851" type="curve"/>
      <point x="719.828" y="166.001" type="line"/>
      <point x="721.728" y="171.601"/>
      <point x="724.428" y="176.851"/>
      <point x="727.778" y="181.651" type="curve"/>
      <point x="641.928" y="270.301" type="line"/>
      <point x="554.478" y="270.301" type="line"/>
    </contour>
    <contour>
      <point x="755.528" y="203.951" type="line"/>
      <point x="759.978" y="205.801"/>
      <point x="764.728" y="207.151"/>
      <point x="769.678" y="207.951" type="curve"/>
      <point x="773.078" y="270.301" type="line"/>
      <point x="691.428" y="270.301" type="line"/>
    </contour>
    <contour>
      <point x="804.778" y="203.401" type="line"/>
      <point x="809.978" y="201.101"/>
      <point x="814.828" y="198.101"/>
      <point x="819.228" y="194.501" type="curve"/>
      <point x="926.078" y="244.301" type="line"/>
      <point x="923.678" y="252.301"/>
      <point x="922.278" y="261.001"/>
      <point x="921.978" y="270.301" type="curve"/>
      <point x="808.678" y="270.301" type="line"/>
    </contour>
    <contour>
      <point x="968.178" y="270.301" type="line"/>
      <point x="969.728" y="247.651"/>
      <point x="985.728" y="232.801"/>
      <point x="1009.13" y="232.801" type="curve" smooth="yes"/>
      <point x="1032.58" y="232.801"/>
      <point x="1048.58" y="247.651"/>
      <point x="1050.13" y="270.301" type="curve"/>
    </contour>
    <contour>
      <point x="902.928" y="19.5511" type="line"/>
      <point x="912.428" y="25.3011"/>
      <point x="923.578" y="28.6511"/>
      <point x="935.528" y="28.6511" type="curve" smooth="yes"/>
      <point x="939.628" y="28.6511"/>
      <point x="943.628" y="28.2511"/>
      <point x="947.478" y="27.5011" type="curve"/>
      <point x="980.678" y="190.451" type="line"/>
      <point x="964.928" y="195.001"/>
      <point x="951.728" y="203.401"/>
      <point x="941.878" y="214.951" type="curve"/>
      <point x="838.928" y="166.601" type="line"/>
      <point x="841.228" y="160.051"/>
      <point x="842.478" y="153.051"/>
      <point x="842.478" y="145.701" type="curve" smooth="yes"/>
      <point x="842.478" y="136.001"/>
      <point x="840.228" y="126.851"/>
      <point x="836.328" y="118.651" type="curve"/>
    </contour>
    <contour>
      <point x="421.878" y="139.201" type="curve" smooth="yes"/>
      <point x="421.878" y="144.251"/>
      <point x="422.228" y="149.201"/>
      <point x="422.828" y="153.901" type="curve"/>
      <point x="286.628" y="209.401" type="line"/>
      <point x="282.178" y="201.801"/>
      <point x="276.278" y="195.251"/>
      <point x="269.228" y="190.101" type="curve"/>
      <point x="338.078" y="-14.6489" type="line"/>
      <point x="343.178" y="-12.9489"/>
      <point x="348.628" y="-11.9989"/>
      <point x="354.278" y="-11.9989" type="curve" smooth="yes"/>
      <point x="364.778" y="-11.9989"/>
      <point x="374.528" y="-15.1989"/>
      <point x="382.678" y="-20.6489" type="curve"/>
      <point x="449.428" y="72.6511" type="line"/>
      <point x="431.978" y="88.0011"/>
      <point x="421.878" y="111.101"/>
    </contour>
    <contour>
      <point x="468.078" y="139.201" type="curve" smooth="yes"/>
      <point x="468.078" y="114.601"/>
      <point x="484.478" y="98.1511"/>
      <point x="509.128" y="98.1511" type="curve" smooth="yes"/>
      <point x="533.778" y="98.1511"/>
      <point x="550.178" y="114.601"/>
      <point x="550.178" y="139.201" type="curve" smooth="yes"/>
      <point x="550.178" y="163.851"/>
      <point x="533.778" y="180.301"/>
      <point x="509.128" y="180.301" type="curve" smooth="yes"/>
      <point x="484.478" y="180.301"/>
      <point x="468.078" y="163.851"/>
    </contour>
    <contour>
      <point x="81.9276" y="62.1511" type="curve" smooth="yes"/>
      <point x="81.9276" y="37.5011"/>
      <point x="98.3276" y="21.1011"/>
      <point x="122.978" y="21.1011" type="curve" smooth="yes"/>
      <point x="147.628" y="21.1011"/>
      <point x="164.028" y="37.5011"/>
      <point x="164.028" y="62.1511" type="curve" smooth="yes"/>
      <point x="164.028" y="86.8011"/>
      <point x="147.628" y="103.201"/>
      <point x="122.978" y="103.201" type="curve" smooth="yes"/>
      <point x="98.3276" y="103.201"/>
      <point x="81.9276" y="86.8011"/>
    </contour>
  </outline>
  <guideline angle="90" x="600" y="0"/>
</glyph>
<glyph name="blockchain_public" format="2">
  <advance width="1200"/>
  <unicode hex="E010"/>
  <outline>
    <contour>
      <point x="352.35" y="561.65" type="line"/>
      <point x="216.5" y="561.65" type="line"/>
      <point x="216.5" y="420.5" type="line"/>
      <point x="264" y="420.5" type="line"/>
      <point x="264" y="196.6" type="line"/>
      <point x="216.5" y="196.6" type="line"/>
      <point x="216.5" y="55.45" type="line"/>
      <point x="347.65" y="55.45" type="line"/>
      <point x="536.05" y="-53.3" type="line"/>
      <point x="536.05" y="-133.15" type="line"/>
      <point x="671.9" y="-133.15" type="line"/>
      <point x="671.9" y="-47.95" type="line"/>
      <point x="851.05" y="55.45" type="line"/>
      <point x="982.15" y="55.45" type="line"/>
      <point x="982.15" y="196.6" type="line"/>
      <point x="934.7" y="196.6" type="line"/>
      <point x="934.7" y="420.5" type="line"/>
      <point x="982.15" y="420.5" type="line"/>
      <point x="982.15" y="561.65" type="line"/>
      <point x="846.35" y="561.65" type="line"/>
      <point x="846.35" y="541.95" type="line"/>
      <point x="667.9" y="645" type="line"/>
      <point x="667.9" y="731.45" type="line"/>
      <point x="532.05" y="731.45" type="line"/>
      <point x="532.05" y="645.75" type="line"/>
      <point x="352.35" y="541.95" type="line"/>
    </contour>
    <contour>
      <point x="352.35" y="196.6" type="line"/>
      <point x="303.6" y="196.6" type="line"/>
      <point x="303.6" y="420.5" type="line"/>
      <point x="352.35" y="420.5" type="line"/>
      <point x="352.35" y="496.25" type="line"/>
      <point x="532.05" y="600.05" type="line"/>
      <point x="532.05" y="590.25" type="line"/>
      <point x="667.9" y="590.25" type="line"/>
      <point x="667.9" y="599.3" type="line"/>
      <point x="846.35" y="496.3" type="line"/>
      <point x="846.35" y="420.5" type="line"/>
      <point x="895.15" y="420.5" type="line"/>
      <point x="895.15" y="196.6" type="line"/>
      <point x="846.35" y="196.6" type="line"/>
      <point x="846.35" y="98.45" type="line"/>
      <point x="671.9" y="-2.24999" type="line"/>
      <point x="671.9" y="8" type="line"/>
      <point x="536.05" y="8" type="line"/>
      <point x="536.05" y="-7.6" type="line"/>
      <point x="352.35" y="98.45" type="line"/>
    </contour>
    <contour>
      <point x="395.7" y="299.45" type="curve"/>
      <point x="412.8" y="251.35"/>
      <point x="487.6" y="174.95"/>
      <point x="597.65" y="174.95" type="curve" smooth="yes"/>
      <point x="707.7" y="174.95"/>
      <point x="777.8" y="251.05"/>
      <point x="798.95" y="299.45" type="curve"/>
      <point x="767.81" y="370.859"/>
      <point x="682.295" y="423.6"/>
      <point x="597.65" y="423.6" type="curve" smooth="yes"/>
      <point x="485.8" y="423.6"/>
      <point x="412.8" y="346.75"/>
    </contour>
    <contour>
      <point x="527" y="299.5" type="curve" smooth="yes"/>
      <point x="527" y="341.9"/>
      <point x="555.25" y="370.2"/>
      <point x="597.7" y="370.2" type="curve" smooth="yes"/>
      <point x="640.1" y="370.2"/>
      <point x="668.4" y="341.9"/>
      <point x="668.4" y="299.5" type="curve" smooth="yes"/>
      <point x="668.4" y="257.05"/>
      <point x="640.1" y="228.8"/>
      <point x="597.7" y="228.8" type="curve" smooth="yes"/>
      <point x="555.25" y="228.8"/>
      <point x="527" y="257.05"/>
    </contour>
  </outline>
  <guideline angle="90" x="600" y="0"/>
  <guideline angle="0" x="0" y="300"/>
  <guideline angle="0" x="0" y="-120.129"/>
</glyph>
<glyph name="blockchain_symbol" format="2">
  <advance width="1200"/>
  <unicode hex="E011"/>
  <outline>
    <contour>
      <point x="352.9" y="560.85" type="line"/>
      <point x="217.1" y="560.85" type="line"/>
      <point x="217.1" y="419.7" type="line"/>
      <point x="264.6" y="419.7" type="line"/>
      <point x="264.6" y="195.8" type="line"/>
      <point x="217.1" y="195.8" type="line"/>
      <point x="217.1" y="54.65" type="line"/>
      <point x="348.25" y="54.65" type="line"/>
      <point x="536.65" y="-54.15" type="line"/>
      <point x="536.65" y="-134" type="line"/>
      <point x="672.5" y="-134" type="line"/>
      <point x="672.5" y="-48.8" type="line"/>
      <point x="851.65" y="54.65" type="line"/>
      <point x="982.75" y="54.65" type="line"/>
      <point x="982.75" y="195.8" type="line"/>
      <point x="935.3" y="195.8" type="line"/>
      <point x="935.3" y="419.7" type="line"/>
      <point x="982.75" y="419.7" type="line"/>
      <point x="982.75" y="560.85" type="line"/>
      <point x="846.95" y="560.85" type="line"/>
      <point x="846.95" y="541.15" type="line"/>
      <point x="668.5" y="644.2" type="line"/>
      <point x="668.5" y="730.65" type="line"/>
      <point x="532.65" y="730.65" type="line"/>
      <point x="532.65" y="644.95" type="line"/>
      <point x="352.9" y="541.15" type="line"/>
    </contour>
    <contour>
      <point x="352.9" y="195.8" type="line"/>
      <point x="304.2" y="195.8" type="line"/>
      <point x="304.2" y="419.7" type="line"/>
      <point x="349.6" y="419.7" type="line"/>
      <point x="376.6" y="404.1" type="line"/>
      <point x="396.4" y="438.4" type="line"/>
      <point x="352.9" y="463.5" type="line"/>
      <point x="352.9" y="495.4" type="line"/>
      <point x="532.65" y="599.2" type="line"/>
      <point x="532.65" y="589.45" type="line"/>
      <point x="581.2" y="589.45" type="line"/>
      <point x="581.2" y="544.85" type="line"/>
      <point x="620.8" y="544.85" type="line"/>
      <point x="620.8" y="589.45" type="line"/>
      <point x="668.5" y="589.45" type="line"/>
      <point x="668.5" y="598.45" type="line"/>
      <point x="846.95" y="495.45" type="line"/>
      <point x="846.95" y="463.15" type="line"/>
      <point x="804.1" y="438.4" type="line"/>
      <point x="823.9" y="404.1" type="line"/>
      <point x="850.9" y="419.7" type="line"/>
      <point x="895.7" y="419.7" type="line"/>
      <point x="895.7" y="195.8" type="line"/>
      <point x="846.95" y="195.8" type="line"/>
      <point x="846.95" y="178.25" type="line"/>
      <point x="823.9" y="191.55" type="line"/>
      <point x="804.1" y="157.3" type="line"/>
      <point x="846.95" y="132.55" type="line"/>
      <point x="846.95" y="97.65" type="line"/>
      <point x="672.5" y="-3.05" type="line"/>
      <point x="672.5" y="7.2" type="line"/>
      <point x="620.8" y="7.2" type="line"/>
      <point x="620.8" y="51.2" type="line"/>
      <point x="581.2" y="51.2" type="line"/>
      <point x="581.2" y="7.2" type="line"/>
      <point x="536.65" y="7.2" type="line"/>
      <point x="536.65" y="-8.4" type="line"/>
      <point x="352.9" y="97.7" type="line"/>
      <point x="352.9" y="132.15" type="line"/>
      <point x="396.4" y="157.3" type="line"/>
      <point x="376.6" y="191.55" type="line"/>
      <point x="352.9" y="177.85" type="line"/>
    </contour>
    <contour>
      <point x="581.2" y="408.85" type="line"/>
      <point x="620.8" y="408.85" type="line"/>
      <point x="620.8" y="503.15" type="line"/>
      <point x="581.2" y="503.15" type="line"/>
    </contour>
    <contour>
      <point x="686.3" y="370.4" type="line"/>
      <point x="706.1" y="336.1" type="line"/>
      <point x="787.8" y="383.25" type="line"/>
      <point x="768" y="417.55" type="line"/>
    </contour>
    <contour>
      <point x="432.5" y="417.55" type="line"/>
      <point x="412.7" y="383.25" type="line"/>
      <point x="494.4" y="336.1" type="line"/>
      <point x="514.2" y="370.4" type="line"/>
    </contour>
    <contour>
      <point x="668.5" y="373.9" type="line"/>
      <point x="532.65" y="373.9" type="line"/>
      <point x="532.65" y="232.7" type="line"/>
      <point x="668.5" y="232.7" type="line"/>
    </contour>
    <contour>
      <point x="412.7" y="212.4" type="line"/>
      <point x="432.5" y="178.1" type="line"/>
      <point x="514.2" y="225.3" type="line"/>
      <point x="494.4" y="259.55" type="line"/>
    </contour>
    <contour>
      <point x="706.1" y="259.55" type="line"/>
      <point x="686.3" y="225.3" type="line"/>
      <point x="768" y="178.1" type="line"/>
      <point x="787.8" y="212.4" type="line"/>
    </contour>
    <contour>
      <point x="581.2" y="92.85" type="line"/>
      <point x="620.8" y="92.85" type="line"/>
      <point x="620.8" y="187.2" type="line"/>
      <point x="581.2" y="187.2" type="line"/>
    </contour>
  </outline>
</glyph>
<glyph name="chain" format="2">
  <advance width="1200"/>
  <unicode hex="E013"/>
  <outline>
    <contour>
      <point x="563.5" y="392.532" type="line"/>
      <point x="563.5" y="320.432" type="line"/>
      <point x="679.55" y="320.432" type="line"/>
      <point x="679.55" y="389.482" type="line"/>
      <point x="850.75" y="389.482" type="line"/>
      <point x="850.75" y="320.832" type="line"/>
      <point x="960.1" y="320.682" type="line"/>
      <point x="960.1" y="390.532" type="line"/>
      <point x="1131.25" y="390.532" type="line"/>
      <point x="1131.25" y="211.432" type="line"/>
      <point x="960.1" y="211.432" type="line"/>
      <point x="960.1" y="280.682" type="line"/>
      <point x="850.75" y="280.832" type="line"/>
      <point x="850.75" y="210.382" type="line"/>
      <point x="679.55" y="210.382" type="line"/>
      <point x="679.55" y="280.432" type="line"/>
      <point x="563.5" y="280.432" type="line"/>
      <point x="563.5" y="213.432" type="line"/>
      <point x="392.35" y="213.432" type="line"/>
      <point x="392.35" y="280.432" type="line"/>
      <point x="268.15" y="280.432" type="line"/>
      <point x="268.15" y="198.182" type="line"/>
      <point x="73.1" y="198.182" type="line"/>
      <point x="73.1" y="402.232" type="line"/>
      <point x="268.15" y="402.232" type="line"/>
      <point x="268.15" y="320.432" type="line"/>
      <point x="392.35" y="320.432" type="line"/>
      <point x="392.35" y="392.532" type="line"/>
    </contour>
    <contour>
      <point x="1090.5" y="349.782" type="line"/>
      <point x="1000.2" y="349.782" type="line"/>
      <point x="1000.2" y="251.382" type="line"/>
      <point x="1090.5" y="251.382" type="line"/>
    </contour>
  </outline>
</glyph>
<glyph name="chain_main" format="2">
  <advance width="1200"/>
  <unicode hex="E014"/>
  <outline>
    <contour>
      <point x="563.5" y="391.975" type="line"/>
      <point x="563.5" y="319.875" type="line"/>
      <point x="679.55" y="319.875" type="line"/>
      <point x="679.55" y="388.925" type="line"/>
      <point x="850.75" y="388.925" type="line"/>
      <point x="850.75" y="320.275" type="line"/>
      <point x="960.1" y="320.125" type="line"/>
      <point x="960.1" y="388.925" type="line"/>
      <point x="1131.25" y="388.925" type="line"/>
      <point x="1131.25" y="209.825" type="line"/>
      <point x="960.1" y="209.825" type="line"/>
      <point x="960.1" y="280.125" type="line"/>
      <point x="850.75" y="280.275" type="line"/>
      <point x="850.75" y="209.825" type="line"/>
      <point x="679.55" y="209.825" type="line"/>
      <point x="679.55" y="279.875" type="line"/>
      <point x="563.5" y="279.875" type="line"/>
      <point x="563.5" y="212.875" type="line"/>
      <point x="392.35" y="212.875" type="line"/>
      <point x="392.35" y="279.875" type="line"/>
      <point x="268.15" y="279.875" type="line"/>
      <point x="268.15" y="197.625" type="line"/>
      <point x="73.1" y="197.625" type="line"/>
      <point x="73.1" y="401.675" type="line"/>
      <point x="268.15" y="401.675" type="line"/>
      <point x="268.15" y="319.875" type="line"/>
      <point x="392.35" y="319.875" type="line"/>
      <point x="392.35" y="391.975" type="line"/>
    </contour>
  </outline>
</glyph>
<glyph name="chain_off" format="2">
  <advance width="1200"/>
  <unicode hex="E015"/>
  <outline>
    <contour>
      <point x="563.5" y="650.6" type="line"/>
      <point x="563.5" y="578.45" type="line"/>
      <point x="679.55" y="578.45" type="line"/>
      <point x="679.55" y="647.55" type="line"/>
      <point x="850.75" y="647.55" type="line"/>
      <point x="850.75" y="578.9" type="line"/>
      <point x="960.1" y="578.75" type="line"/>
      <point x="960.1" y="647.55" type="line"/>
      <point x="1131.25" y="647.55" type="line"/>
      <point x="1131.25" y="468.45" type="line"/>
      <point x="1072.15" y="468.45" type="line"/>
      <point x="1072.15" y="431.65" type="line"/>
      <point x="1032.15" y="431.65" type="line"/>
      <point x="1032.15" y="468.45" type="line"/>
      <point x="960.1" y="468.45" type="line"/>
      <point x="960.1" y="538.75" type="line"/>
      <point x="850.75" y="538.9" type="line"/>
      <point x="850.75" y="468.45" type="line"/>
      <point x="679.55" y="468.45" type="line"/>
      <point x="679.55" y="538.45" type="line"/>
      <point x="563.5" y="538.45" type="line"/>
      <point x="563.5" y="471.5" type="line"/>
      <point x="497.15" y="471.5" type="line"/>
      <point x="497.15" y="431.65" type="line"/>
      <point x="457.15" y="431.65" type="line"/>
      <point x="457.15" y="471.5" type="line"/>
      <point x="392.35" y="471.5" type="line"/>
      <point x="392.35" y="538.45" type="line"/>
      <point x="268.15" y="538.45" type="line"/>
      <point x="268.15" y="456.25" type="line"/>
      <point x="73.1" y="456.25" type="line"/>
      <point x="73.1" y="660.3" type="line"/>
      <point x="268.15" y="660.3" type="line"/>
      <point x="268.15" y="578.45" type="line"/>
      <point x="392.35" y="578.45" type="line"/>
      <point x="392.35" y="650.6" type="line"/>
    </contour>
    <contour>
      <point x="1157.45" y="293" type="line"/>
      <point x="372.6" y="250" type="line"/>
      <point x="372.85" y="292" type="line"/>
      <point x="457.15" y="296.6" type="line"/>
      <point x="457.15" y="363.8" type="line"/>
      <point x="497.15" y="363.8" type="line"/>
      <point x="497.15" y="298.8" type="line"/>
      <point x="1032.4" y="328.15" type="line"/>
      <point x="1032.4" y="363.8" type="line"/>
      <point x="1072.4" y="363.8" type="line"/>
      <point x="1072.4" y="330.35" type="line"/>
      <point x="1157.7" y="335" type="line"/>
    </contour>
    <contour>
      <point x="457.15" y="215.3" type="line"/>
      <point x="497.15" y="215.3" type="line"/>
      <point x="497.15" y="141.5" type="line"/>
      <point x="457.15" y="141.5" type="line"/>
    </contour>
    <contour>
      <point x="1032.4" y="215.3" type="line"/>
      <point x="1072.4" y="215.3" type="line"/>
      <point x="1072.4" y="141.5" type="line"/>
      <point x="1032.4" y="141.5" type="line"/>
    </contour>
    <contour>
      <point x="651.3" y="214.45" type="line"/>
      <point x="970.2" y="55.7" type="line"/>
      <point x="890.45" y="55.7" type="line"/>
      <point x="562.55" y="55" type="line"/>
      <point x="562.55" y="94.85" type="line"/>
      <point x="693" y="95.15" type="line"/>
    </contour>
    <contour>
      <point x="428.9" y="30.65" type="curve" smooth="yes"/>
      <point x="428.9" y="59.9"/>
      <point x="448.4" y="79.4"/>
      <point x="477.6" y="79.4" type="curve" smooth="yes"/>
      <point x="506.85" y="79.4"/>
      <point x="526.35" y="59.9"/>
      <point x="526.35" y="30.65" type="curve" smooth="yes"/>
      <point x="526.35" y="1.4"/>
      <point x="506.85" y="-18.05"/>
      <point x="477.6" y="-18.05" type="curve" smooth="yes"/>
      <point x="448.4" y="-18.05"/>
      <point x="428.9" y="1.4"/>
    </contour>
    <contour>
      <point x="1002.05" y="30.65" type="curve" smooth="yes"/>
      <point x="1002.05" y="59.9"/>
      <point x="1021.55" y="79.4"/>
      <point x="1050.8" y="79.4" type="curve" smooth="yes"/>
      <point x="1080" y="79.4"/>
      <point x="1099.5" y="59.9"/>
      <point x="1099.5" y="30.65" type="curve" smooth="yes"/>
      <point x="1099.5" y="1.4"/>
      <point x="1080" y="-18.05"/>
      <point x="1050.8" y="-18.05" type="curve" smooth="yes"/>
      <point x="1021.55" y="-18.05"/>
      <point x="1002.05" y="1.4"/>
    </contour>
    <contour>
      <point x="567.9" y="4.3" type="line"/>
      <point x="970.85" y="4.3" type="line"/>
      <point x="970.85" y="-35.6" type="line"/>
      <point x="845.65" y="-35.6" type="line"/>
      <point x="887.15" y="-159.55" type="line"/>
    </contour>
  </outline>
</glyph>
<glyph name="chain_on" format="2">
  <advance width="1200"/>
  <unicode hex="E016"/>
  <outline>
    <contour>
      <point x="564.65" y="395.346" type="line"/>
      <point x="564.65" y="360.496" type="line"/>
      <point x="660.55" y="360.696" type="line"/>
      <point x="619.9" y="476.846" type="line"/>
      <point x="930.2" y="322.346" type="line"/>
      <point x="852.6" y="322.346" type="line"/>
      <point x="564.65" y="321.696" type="line"/>
      <point x="564.65" y="216.246" type="line"/>
      <point x="393.45" y="216.246" type="line"/>
      <point x="393.45" y="283.246" type="line"/>
      <point x="269.25" y="283.246" type="line"/>
      <point x="269.25" y="201.046" type="line"/>
      <point x="74.2" y="201.046" type="line"/>
      <point x="74.2" y="405.096" type="line"/>
      <point x="269.25" y="405.096" type="line"/>
      <point x="269.25" y="323.246" type="line"/>
      <point x="393.45" y="323.246" type="line"/>
      <point x="393.45" y="395.346" type="line"/>
    </contour>
    <contour>
      <point x="1132.4" y="392.296" type="line"/>
      <point x="1132.4" y="213.246" type="line"/>
      <point x="961.2" y="213.246" type="line"/>
      <point x="961.2" y="392.296" type="line"/>
    </contour>
    <contour>
      <point x="430" y="303.096" type="curve" smooth="yes"/>
      <point x="430" y="273.846"/>
      <point x="449.5" y="254.346"/>
      <point x="478.75" y="254.346" type="curve" smooth="yes"/>
      <point x="507.95" y="254.346"/>
      <point x="527.45" y="273.846"/>
      <point x="527.45" y="303.096" type="curve" smooth="yes"/>
      <point x="527.45" y="332.296"/>
      <point x="507.95" y="351.796"/>
      <point x="478.75" y="351.796" type="curve" smooth="yes"/>
      <point x="449.5" y="351.796"/>
      <point x="430" y="332.296"/>
    </contour>
    <contour>
      <point x="996.15" y="303.096" type="curve" smooth="yes"/>
      <point x="996.15" y="273.846"/>
      <point x="1015.65" y="254.346"/>
      <point x="1044.9" y="254.346" type="curve" smooth="yes"/>
      <point x="1074.15" y="254.346"/>
      <point x="1093.65" y="273.846"/>
      <point x="1093.65" y="303.096" type="curve" smooth="yes"/>
      <point x="1093.65" y="332.296"/>
      <point x="1074.15" y="351.796"/>
      <point x="1044.9" y="351.796" type="curve" smooth="yes"/>
      <point x="1015.65" y="351.796"/>
      <point x="996.15" y="332.296"/>
    </contour>
    <contour>
      <point x="599.8" y="282.346" type="line"/>
      <point x="960.8" y="282.346" type="line"/>
      <point x="960.8" y="243.546" type="line"/>
      <point x="870" y="243.546" type="line"/>
      <point x="910.4" y="122.946" type="line"/>
    </contour>
  </outline>
</glyph>
<glyph name="chain_side" format="2">
  <advance width="1200"/>
  <unicode hex="E017"/>
  <outline>
    <contour>
      <point x="563.5" y="673.6" type="line"/>
      <point x="563.5" y="601.45" type="line"/>
      <point x="679.55" y="601.45" type="line"/>
      <point x="679.55" y="670.55" type="line"/>
      <point x="850.75" y="670.55" type="line"/>
      <point x="850.75" y="601.9" type="line"/>
      <point x="960.1" y="601.75" type="line"/>
      <point x="960.1" y="670.55" type="line"/>
      <point x="1131.25" y="670.55" type="line"/>
      <point x="1131.25" y="491.45" type="line"/>
      <point x="1072.55" y="491.45" type="line"/>
      <point x="1072.35" y="349.9" type="line"/>
      <point x="1185.95" y="389.65" type="line"/>
      <point x="1031.45" y="134.75" type="line"/>
      <point x="1031.45" y="212.35" type="line"/>
      <point x="1030.8" y="491.45" type="line"/>
      <point x="960.1" y="491.45" type="line"/>
      <point x="960.1" y="561.75" type="line"/>
      <point x="850.75" y="561.9" type="line"/>
      <point x="850.75" y="491.45" type="line"/>
      <point x="679.55" y="491.45" type="line"/>
      <point x="679.55" y="561.45" type="line"/>
      <point x="563.5" y="561.45" type="line"/>
      <point x="563.5" y="494.5" type="line"/>
      <point x="392.35" y="494.5" type="line"/>
      <point x="392.35" y="561.45" type="line"/>
      <point x="268.15" y="561.45" type="line"/>
      <point x="268.15" y="479.25" type="line"/>
      <point x="73.1" y="479.25" type="line"/>
      <point x="73.1" y="683.3" type="line"/>
      <point x="268.15" y="683.3" type="line"/>
      <point x="268.15" y="601.45" type="line"/>
      <point x="392.35" y="601.45" type="line"/>
      <point x="392.35" y="673.6" type="line"/>
    </contour>
    <contour>
      <point x="563.5" y="97.95" type="line"/>
      <point x="563.5" y="25.85" type="line"/>
      <point x="679.55" y="25.85" type="line"/>
      <point x="679.55" y="94.9" type="line"/>
      <point x="850.75" y="94.9" type="line"/>
      <point x="850.75" y="26.25" type="line"/>
      <point x="960.1" y="26.1" type="line"/>
      <point x="960.1" y="94.9" type="line"/>
      <point x="1131.25" y="94.9" type="line"/>
      <point x="1131.25" y="-84.15" type="line"/>
      <point x="960.1" y="-84.15" type="line"/>
      <point x="960.1" y="-13.9" type="line"/>
      <point x="850.75" y="-13.75" type="line"/>
      <point x="850.75" y="-84.15" type="line"/>
      <point x="679.55" y="-84.15" type="line"/>
      <point x="679.55" y="-14.15" type="line"/>
      <point x="563.5" y="-14.15" type="line"/>
      <point x="563.5" y="-81.1" type="line"/>
      <point x="392.35" y="-81.1" type="line"/>
      <point x="392.35" y="97.95" type="line"/>
      <point x="458.2" y="97.95" type="line"/>
      <point x="458.4" y="242.15" type="line"/>
      <point x="344.85" y="202.4" type="line"/>
      <point x="499.35" y="457.3" type="line"/>
      <point x="499.35" y="379.7" type="line"/>
      <point x="499.95" y="97.95" type="line"/>
    </contour>
    <contour>
      <point x="1089.5" y="53.2" type="line"/>
      <point x="1000.2" y="53.2" type="line"/>
      <point x="1000.2" y="-40.25" type="line"/>
      <point x="1089.5" y="-40.25" type="line"/>
    </contour>
    <contour>
      <point x="809.3" y="53.2" type="line"/>
      <point x="720" y="53.2" type="line"/>
      <point x="720" y="-40.25" type="line"/>
      <point x="809.3" y="-40.25" type="line"/>
    </contour>
    <contour>
      <point x="520.75" y="53.2" type="line"/>
      <point x="431.45" y="53.2" type="line"/>
      <point x="431.45" y="-40.25" type="line"/>
      <point x="520.75" y="-40.25" type="line"/>
    </contour>
  </outline>
</glyph>
<glyph name="Cloud" format="2">
  <advance width="1200"/>
  <unicode hex="E018"/>
  <outline>
    <contour>
      <point x="787.95" y="692.7" type="curve" smooth="yes"/>
      <point x="787.95" y="655" type="line" smooth="yes"/>
      <point x="787.95" y="629.9"/>
      <point x="800" y="617.05"/>
      <point x="825.9" y="617.05" type="curve" smooth="yes"/>
      <point x="930.05" y="617.05" type="line"/>
      <point x="930.05" y="591.1" type="line"/>
      <point x="825.9" y="591.1" type="line" smooth="yes"/>
      <point x="800" y="591.1"/>
      <point x="787.95" y="578.25"/>
      <point x="787.95" y="553.15" type="curve" smooth="yes"/>
      <point x="787.95" y="515.45" type="line" smooth="yes"/>
      <point x="787.95" y="490.35"/>
      <point x="800" y="477.5"/>
      <point x="825.9" y="477.5" type="curve" smooth="yes"/>
      <point x="930.05" y="477.5" type="line"/>
      <point x="930.05" y="453.8" type="line"/>
      <point x="825.9" y="453.8" type="line" smooth="yes"/>
      <point x="800" y="453.8"/>
      <point x="787.95" y="440.95"/>
      <point x="787.95" y="415.85" type="curve" smooth="yes"/>
      <point x="787.95" y="378.15" type="line" smooth="yes"/>
      <point x="787.95" y="353.05"/>
      <point x="800" y="340.2"/>
      <point x="825.9" y="340.2" type="curve" smooth="yes"/>
      <point x="1094.5" y="340.2" type="line" smooth="yes"/>
      <point x="1120.4" y="340.2"/>
      <point x="1132.45" y="353.05"/>
      <point x="1132.45" y="378.15" type="curve" smooth="yes"/>
      <point x="1132.45" y="415.85" type="line" smooth="yes"/>
      <point x="1132.45" y="440.95"/>
      <point x="1120.4" y="453.8"/>
      <point x="1094.5" y="453.8" type="curve" smooth="yes"/>
      <point x="987.4" y="453.8" type="line"/>
      <point x="987.4" y="477.5" type="line"/>
      <point x="1094.5" y="477.5" type="line" smooth="yes"/>
      <point x="1120.4" y="477.5"/>
      <point x="1132.45" y="490.35"/>
      <point x="1132.45" y="515.45" type="curve" smooth="yes"/>
      <point x="1132.45" y="553.15" type="line" smooth="yes"/>
      <point x="1132.45" y="578.25"/>
      <point x="1120.4" y="591.1"/>
      <point x="1094.5" y="591.1" type="curve" smooth="yes"/>
      <point x="987.4" y="591.1" type="line"/>
      <point x="987.4" y="617.05" type="line"/>
      <point x="1094.5" y="617.05" type="line" smooth="yes"/>
      <point x="1120.4" y="617.05"/>
      <point x="1132.45" y="629.9"/>
      <point x="1132.45" y="655" type="curve" smooth="yes"/>
      <point x="1132.45" y="692.7" type="line" smooth="yes"/>
      <point x="1132.45" y="717.8"/>
      <point x="1120.4" y="730.65"/>
      <point x="1094.5" y="730.65" type="curve" smooth="yes"/>
      <point x="825.9" y="730.65" type="line" smooth="yes"/>
      <point x="800" y="730.65"/>
      <point x="787.95" y="717.8"/>
    </contour>
    <contour>
      <point x="1068.05" y="700.1" type="line"/>
      <point x="1100" y="700.1" type="line"/>
      <point x="1100" y="647.6" type="line"/>
      <point x="1068.05" y="647.6" type="line"/>
    </contour>
    <contour>
      <point x="1004.1" y="700.1" type="line"/>
      <point x="1036.05" y="700.1" type="line"/>
      <point x="1036.05" y="647.6" type="line"/>
      <point x="1004.1" y="647.6" type="line"/>
    </contour>
    <contour>
      <point x="939.6" y="700.1" type="line"/>
      <point x="971.55" y="700.1" type="line"/>
      <point x="971.55" y="647.6" type="line"/>
      <point x="939.6" y="647.6" type="line"/>
    </contour>
    <contour>
      <point x="834.85" y="673.65" type="curve" smooth="yes"/>
      <point x="834.85" y="688.4"/>
      <point x="844.2" y="697.75"/>
      <point x="858.95" y="697.75" type="curve" smooth="yes"/>
      <point x="872.9" y="697.75"/>
      <point x="882.25" y="688.4"/>
      <point x="882.25" y="673.65" type="curve" smooth="yes"/>
      <point x="882.25" y="659.65"/>
      <point x="872.9" y="650.35"/>
      <point x="858.95" y="650.35" type="curve" smooth="yes"/>
      <point x="844.2" y="650.35"/>
      <point x="834.85" y="659.65"/>
    </contour>
    <contour>
      <point x="724.55" y="412.9" type="line" smooth="yes"/>
      <point x="724.55" y="468.65"/>
      <point x="690.8" y="502.75"/>
      <point x="632.5" y="502.75" type="curve" smooth="yes"/>
      <point x="419.9" y="502.75" type="line"/>
      <point x="419.9" y="571.3" type="line"/>
      <point x="750.95" y="571.35" type="line"/>
      <point x="750.95" y="625.75" type="line"/>
      <point x="365.45" y="625.75" type="line"/>
      <point x="365.5" y="502.75" type="line"/>
      <point x="167.7" y="502.75" type="line" smooth="yes"/>
      <point x="110.65" y="502.75"/>
      <point x="76.75" y="468.65"/>
      <point x="76.75" y="412.9" type="curve" smooth="yes"/>
      <point x="76.75" y="-39.8" type="line" smooth="yes"/>
      <point x="76.75" y="-95.55"/>
      <point x="110.65" y="-129.65"/>
      <point x="167.7" y="-129.65" type="curve" smooth="yes"/>
      <point x="632.5" y="-129.65" type="line" smooth="yes"/>
      <point x="690.8" y="-129.65"/>
      <point x="724.55" y="-95.55"/>
      <point x="724.55" y="-39.8" type="curve" smooth="yes"/>
      <point x="724.55" y="46.3" type="line"/>
      <point x="989.45" y="46.25" type="line"/>
      <point x="989.35" y="296.25" type="line"/>
      <point x="934.95" y="296.25" type="line"/>
      <point x="934.95" y="100.75" type="line"/>
      <point x="724.55" y="100.7" type="line"/>
    </contour>
    <contour>
      <point x="1068.05" y="560.55" type="line"/>
      <point x="1100" y="560.55" type="line"/>
      <point x="1100" y="508.05" type="line"/>
      <point x="1068.05" y="508.05" type="line"/>
    </contour>
    <contour>
      <point x="1004.1" y="560.55" type="line"/>
      <point x="1036.05" y="560.55" type="line"/>
      <point x="1036.05" y="508.05" type="line"/>
      <point x="1004.1" y="508.05" type="line"/>
    </contour>
    <contour>
      <point x="939.6" y="560.55" type="line"/>
      <point x="971.55" y="560.55" type="line"/>
      <point x="971.55" y="508.05" type="line"/>
      <point x="939.6" y="508.05" type="line"/>
    </contour>
    <contour>
      <point x="834.85" y="534.3" type="curve" smooth="yes"/>
      <point x="834.85" y="549.05"/>
      <point x="844.2" y="558.4"/>
      <point x="858.95" y="558.4" type="curve" smooth="yes"/>
      <point x="872.9" y="558.4"/>
      <point x="882.25" y="549.05"/>
      <point x="882.25" y="534.3" type="curve" smooth="yes"/>
      <point x="882.25" y="520.3"/>
      <point x="872.9" y="511"/>
      <point x="858.95" y="511" type="curve" smooth="yes"/>
      <point x="844.2" y="511"/>
      <point x="834.85" y="520.3"/>
    </contour>
    <contour>
      <point x="157.1" y="407.4" type="curve" smooth="yes"/>
      <point x="157.1" y="433.1"/>
      <point x="172.75" y="448.75"/>
      <point x="198.5" y="448.75" type="curve" smooth="yes"/>
      <point x="223.05" y="448.75"/>
      <point x="238.7" y="433.1"/>
      <point x="238.7" y="407.4" type="curve" smooth="yes"/>
      <point x="238.7" y="382.8"/>
      <point x="223.05" y="367.15"/>
      <point x="198.5" y="367.15" type="curve" smooth="yes"/>
      <point x="172.75" y="367.15"/>
      <point x="157.1" y="382.8"/>
    </contour>
    <contour>
      <point x="1068.05" y="423.25" type="line"/>
      <point x="1100" y="423.25" type="line"/>
      <point x="1100" y="370.75" type="line"/>
      <point x="1068.05" y="370.75" type="line"/>
    </contour>
    <contour>
      <point x="1004.1" y="423.25" type="line"/>
      <point x="1036.05" y="423.25" type="line"/>
      <point x="1036.05" y="370.75" type="line"/>
      <point x="1004.1" y="370.75" type="line"/>
    </contour>
    <contour>
      <point x="939.6" y="423.25" type="line"/>
      <point x="971.55" y="423.25" type="line"/>
      <point x="971.55" y="370.75" type="line"/>
      <point x="939.6" y="370.75" type="line"/>
    </contour>
    <contour>
      <point x="834.85" y="396.7" type="curve" smooth="yes"/>
      <point x="834.85" y="411.45"/>
      <point x="844.2" y="420.8"/>
      <point x="858.95" y="420.8" type="curve" smooth="yes"/>
      <point x="872.9" y="420.8"/>
      <point x="882.25" y="411.45"/>
      <point x="882.25" y="396.7" type="curve" smooth="yes"/>
      <point x="882.25" y="382.7"/>
      <point x="872.9" y="373.4"/>
      <point x="858.95" y="373.4" type="curve" smooth="yes"/>
      <point x="844.2" y="373.4"/>
      <point x="834.85" y="382.7"/>
    </contour>
    <contour>
      <point x="664.2" y="-73.3" type="line"/>
      <point x="137.1" y="-73.3" type="line"/>
      <point x="137.1" y="325" type="line"/>
      <point x="664.2" y="325" type="line"/>
      <point x="664.2" y="100.65" type="line"/>
      <point x="576.4" y="100.65" type="line"/>
      <point x="576.4" y="46.3" type="line"/>
      <point x="664.2" y="46.3" type="line"/>
    </contour>
    <contour>
      <point x="394" y="40.75" type="line" name="hr00"/>
      <point x="523.1" y="169.85" type="line"/>
      <point x="486.3" y="206.7" type="line"/>
      <point x="449.95" y="170.35" type="line"/>
      <point x="417.75" y="132" type="line"/>
      <point x="415.45" y="132.75" type="line"/>
      <point x="420.05" y="206.35" type="line"/>
      <point x="420.05" y="285.8" type="line"/>
      <point x="367.9" y="285.75" type="line"/>
      <point x="367.9" y="206.35" type="line"/>
      <point x="372.5" y="132.75" type="line"/>
      <point x="370.2" y="132" type="line"/>
      <point x="338" y="170.35" type="line"/>
      <point x="301.65" y="206.7" type="line"/>
      <point x="264.85" y="169.85" type="line"/>
    </contour>
    <contour>
      <point x="290.4" y="-32.7" type="line"/>
      <point x="494.35" y="-32.7" type="line"/>
      <point x="494.35" y="15.85" type="line"/>
      <point x="289.95" y="15.85" type="line"/>
    </contour>
  </outline>
</glyph>
<glyph name="coin" format="2">
  <advance width="1200"/>
  <unicode hex="E019"/>
  <outline>
    <contour>
      <point x="157" y="299.6" type="curve" smooth="yes"/>
      <point x="157" y="55.35"/>
      <point x="355.3" y="-143"/>
      <point x="599.6" y="-143" type="curve" smooth="yes"/>
      <point x="843.85" y="-143"/>
      <point x="1042.2" y="55.35"/>
      <point x="1042.2" y="299.6" type="curve" smooth="yes"/>
      <point x="1042.2" y="543.9"/>
      <point x="843.85" y="742.2"/>
      <point x="599.6" y="742.2" type="curve" smooth="yes"/>
      <point x="355.3" y="742.2"/>
      <point x="157" y="543.9"/>
    </contour>
    <contour>
      <point x="216.5" y="299.6" type="curve" smooth="yes"/>
      <point x="216.5" y="511.05"/>
      <point x="388.15" y="682.7"/>
      <point x="599.6" y="682.7" type="curve" smooth="yes"/>
      <point x="811" y="682.7"/>
      <point x="982.7" y="511.05"/>
      <point x="982.7" y="299.6" type="curve" smooth="yes"/>
      <point x="982.7" y="88.2"/>
      <point x="811" y="-83.5"/>
      <point x="599.6" y="-83.5" type="curve" smooth="yes"/>
      <point x="388.15" y="-83.5"/>
      <point x="216.5" y="88.2"/>
    </contour>
    <contour>
      <point x="276.15" y="299.6" type="curve" smooth="yes"/>
      <point x="276.15" y="121.1"/>
      <point x="421.1" y="-23.8"/>
      <point x="599.6" y="-23.8" type="curve" smooth="yes"/>
      <point x="778.1" y="-23.8"/>
      <point x="923" y="121.1"/>
      <point x="923" y="299.6" type="curve" smooth="yes"/>
      <point x="923" y="478.1"/>
      <point x="778.1" y="623.05"/>
      <point x="599.6" y="623.05" type="curve" smooth="yes"/>
      <point x="421.1" y="623.05"/>
      <point x="276.15" y="478.1"/>
    </contour>
  </outline>
  <guideline angle="0" x="0" y="760.758"/>
  <guideline angle="0" x="0" y="-157.88"/>
  <guideline angle="0" x="0" y="790.6"/>
  <guideline angle="0" x="0" y="-186"/>
</glyph>
<glyph name="coin_mixer" format="2">
  <advance width="1200"/>
  <unicode hex="E01A"/>
  <outline>
    <contour>
      <point x="325.95" y="454.9" type="curve"/>
      <point x="353.15" y="454.9"/>
      <point x="358.15" y="502.65"/>
      <point x="358.15" y="549.15" type="curve" smooth="yes"/>
      <point x="358.15" y="613"/>
      <point x="312.15" y="636.45"/>
      <point x="254.8" y="636.15" type="curve" smooth="yes"/>
      <point x="219.8" y="635.95" type="line" smooth="yes"/>
      <point x="171.1" y="635.65"/>
      <point x="113.15" y="611.4"/>
      <point x="113.15" y="542.65" type="curve" smooth="yes"/>
      <point x="113.15" y="495.6"/>
      <point x="117.8" y="452.5"/>
      <point x="150.45" y="452.5" type="curve"/>
      <point x="168.1" y="381.25"/>
      <point x="195.3" y="344.05"/>
      <point x="240.2" y="344.05" type="curve" smooth="yes"/>
      <point x="279.1" y="344.05"/>
      <point x="316.05" y="389.25"/>
    </contour>
    <contour>
      <point x="781.65" y="6.1" type="line" name="hr00"/>
      <point x="834.4" y="34.65" type="line"/>
      <point x="689.15" y="299.5" type="line"/>
      <point x="826.75" y="553.85" type="line"/>
      <point x="774" y="582.45" type="line"/>
      <point x="654.8" y="362.15" type="line"/>
      <point x="531.1" y="587.75" type="line"/>
      <point x="478.35" y="559.2" type="line"/>
      <point x="620.85" y="299.35" type="line"/>
      <point x="478.1" y="35.5" type="line"/>
      <point x="530.85" y="6.9" type="line" name="hr00"/>
      <point x="655.2" y="236.7" type="line"/>
    </contour>
    <contour>
      <point x="186.1" y="470.6" type="curve"/>
      <point x="185.25" y="517.65" type="line"/>
      <point x="226.15" y="517.65"/>
      <point x="261.1" y="528.2"/>
      <point x="282.6" y="554.95" type="curve"/>
      <point x="295.1" y="470.7" type="line"/>
      <point x="290.05" y="420.8"/>
      <point x="266.8" y="383.75"/>
      <point x="240.15" y="383.75" type="curve" smooth="yes"/>
      <point x="212.15" y="383.75"/>
      <point x="188.65" y="422.65"/>
    </contour>
    <contour>
      <point x="762.55" y="271" type="line"/>
      <point x="839.6" y="271" type="line"/>
      <point x="851.75" y="190.3"/>
      <point x="921.4" y="128.35"/>
      <point x="1005.45" y="128.35" type="curve" smooth="yes"/>
      <point x="1098.1" y="128.35"/>
      <point x="1173.25" y="203.55"/>
      <point x="1173.25" y="296.15" type="curve" smooth="yes"/>
      <point x="1173.25" y="388.75"/>
      <point x="1098.1" y="463.95"/>
      <point x="1005.45" y="463.95" type="curve" smooth="yes"/>
      <point x="924.8" y="463.95"/>
      <point x="857.4" y="406.9"/>
      <point x="841.35" y="331" type="curve"/>
      <point x="762.55" y="331" type="line"/>
    </contour>
    <contour>
      <point x="877.5" y="296.15" type="curve" smooth="yes"/>
      <point x="877.5" y="366.8"/>
      <point x="934.85" y="424.1"/>
      <point x="1005.45" y="424.1" type="curve" smooth="yes"/>
      <point x="1076.1" y="424.1"/>
      <point x="1133.45" y="366.8"/>
      <point x="1133.45" y="296.15" type="curve" smooth="yes"/>
      <point x="1133.45" y="225.55"/>
      <point x="1076.1" y="168.2"/>
      <point x="1005.45" y="168.2" type="curve" smooth="yes"/>
      <point x="934.85" y="168.2"/>
      <point x="877.5" y="225.55"/>
    </contour>
    <contour>
      <point x="914.95" y="296.15" type="curve" smooth="yes"/>
      <point x="914.95" y="246.2"/>
      <point x="955.5" y="205.65"/>
      <point x="1005.45" y="205.65" type="curve" smooth="yes"/>
      <point x="1055.45" y="205.65"/>
      <point x="1096" y="246.2"/>
      <point x="1096" y="296.15" type="curve" smooth="yes"/>
      <point x="1096" y="346.1"/>
      <point x="1055.45" y="386.7"/>
      <point x="1005.45" y="386.7" type="curve" smooth="yes"/>
      <point x="955.5" y="386.7"/>
      <point x="914.95" y="346.1"/>
    </contour>
    <contour>
      <point x="23.05" y="175.6" type="line"/>
      <point x="462.85" y="175.6" type="line"/>
      <point x="455.35" y="271" type="line"/>
      <point x="553.3" y="271" type="line"/>
      <point x="553.3" y="331" type="line"/>
      <point x="440.2" y="331" type="line"/>
      <point x="413.7" y="367.7"/>
      <point x="355.6" y="377.6"/>
      <point x="335.05" y="377.6" type="curve"/>
      <point x="320.15" y="340.6"/>
      <point x="290.05" y="294.25"/>
      <point x="243.65" y="294.25" type="curve" smooth="yes"/>
      <point x="195.2" y="294.25"/>
      <point x="158.15" y="336.95"/>
      <point x="145.2" y="377.6" type="curve"/>
      <point x="109" y="377.35"/>
      <point x="40.25" y="353.6"/>
      <point x="35.15" y="300.6" type="curve" smooth="yes"/>
    </contour>
    <contour>
      <point x="75.55" y="212.6" type="line"/>
      <point x="84.45" y="241.3"/>
      <point x="95.85" y="269.15"/>
      <point x="132.9" y="269.15" type="curve" smooth="yes"/>
      <point x="164.9" y="269.15"/>
      <point x="180.7" y="241.3"/>
      <point x="188.4" y="212.6" type="curve"/>
    </contour>
  </outline>
  <guideline angle="0" x="0" y="64"/>
</glyph>
<glyph name="coinbase" format="2">
  <advance width="1200"/>
  <unicode hex="E01B"/>
  <outline>
    <contour>
      <point x="1016.35" y="630.45" type="line" smooth="yes"/>
      <point x="1016.35" y="686.2"/>
      <point x="982.55" y="720.25"/>
      <point x="924.25" y="720.25" type="curve" smooth="yes"/>
      <point x="267.6" y="720.25" type="line" smooth="yes"/>
      <point x="210.55" y="720.25"/>
      <point x="176.65" y="686.2"/>
      <point x="176.65" y="630.45" type="curve" smooth="yes"/>
      <point x="176.65" y="-30.55" type="line" smooth="yes"/>
      <point x="176.65" y="-86.3"/>
      <point x="210.55" y="-120.4"/>
      <point x="267.6" y="-120.4" type="curve" smooth="yes"/>
      <point x="924.25" y="-120.4" type="line" smooth="yes"/>
      <point x="982.55" y="-120.4"/>
      <point x="1016.35" y="-86.3"/>
      <point x="1016.35" y="-30.55" type="curve" smooth="yes"/>
    </contour>
    <contour>
      <point x="599.3" y="138.15" type="curve" smooth="yes"/>
      <point x="678.5" y="138.15"/>
      <point x="744.1" y="195.95"/>
      <point x="756.85" y="271.5" type="curve"/>
      <point x="918.1" y="271.5" type="line"/>
      <point x="904.5" y="107.2"/>
      <point x="766.95" y="-21.85"/>
      <point x="599.2" y="-21.85" type="curve" smooth="yes"/>
      <point x="422.5" y="-21.85"/>
      <point x="279.2" y="121.45"/>
      <point x="279.2" y="298.15" type="curve" smooth="yes"/>
      <point x="279.2" y="474.9"/>
      <point x="422.5" y="618.2"/>
      <point x="599.2" y="618.2" type="curve" smooth="yes"/>
      <point x="766.95" y="618.2"/>
      <point x="904.5" y="489.1"/>
      <point x="918.1" y="324.85" type="curve"/>
      <point x="756.9" y="324.85" type="line"/>
      <point x="744.3" y="400.4"/>
      <point x="678.5" y="458.15"/>
      <point x="599.3" y="458.15" type="curve" smooth="yes"/>
      <point x="510.95" y="458.15"/>
      <point x="439.3" y="386.6"/>
      <point x="439.3" y="298.15" type="curve" smooth="yes"/>
      <point x="439.3" y="209.7"/>
      <point x="510.95" y="138.15"/>
    </contour>
  </outline>
</glyph>
<glyph name="company" format="2">
  <advance width="1200"/>
  <unicode hex="E01C"/>
  <outline>
    <contour>
      <point x="920.3" y="629.75" type="line" smooth="yes"/>
      <point x="920.3" y="685.5"/>
      <point x="886.55" y="719.6"/>
      <point x="828.2" y="719.6" type="curve" smooth="yes"/>
      <point x="371.3" y="719.6" type="line" smooth="yes"/>
      <point x="314.25" y="719.6"/>
      <point x="280.35" y="685.5"/>
      <point x="280.35" y="629.75" type="curve" smooth="yes"/>
      <point x="280.35" y="-64.65" type="line"/>
      <point x="181.85" y="-64.65" type="line"/>
      <point x="181.85" y="-120.75" type="line"/>
      <point x="1018.45" y="-120.75" type="line"/>
      <point x="1018.45" y="-64.65" type="line"/>
      <point x="920.3" y="-64.65" type="line"/>
    </contour>
    <contour>
      <point x="340.9" y="-64.65" type="line"/>
      <point x="340.9" y="663.45" type="line"/>
      <point x="860.15" y="663.45" type="line"/>
      <point x="860.15" y="-64.65" type="line"/>
      <point x="754.8" y="-64.65" type="line"/>
      <point x="754.8" y="142.6" type="line"/>
      <point x="445.5" y="142.6" type="line"/>
      <point x="445.5" y="-64.65" type="line"/>
    </contour>
    <contour>
      <point x="406.65" y="513.85" type="line"/>
      <point x="492.45" y="513.85" type="line"/>
      <point x="492.45" y="604.3" type="line"/>
      <point x="406.65" y="604.3" type="line"/>
    </contour>
    <contour>
      <point x="557.9" y="513.85" type="line"/>
      <point x="643.7" y="513.85" type="line"/>
      <point x="643.7" y="604.3" type="line"/>
      <point x="557.9" y="604.3" type="line"/>
    </contour>
    <contour>
      <point x="708.9" y="513.85" type="line"/>
      <point x="794.7" y="513.85" type="line"/>
      <point x="794.7" y="604.3" type="line"/>
      <point x="708.9" y="604.3" type="line"/>
    </contour>
    <contour>
      <point x="406.65" y="362" type="line"/>
      <point x="492.45" y="362" type="line"/>
      <point x="492.45" y="452.4" type="line"/>
      <point x="406.65" y="452.4" type="line"/>
    </contour>
    <contour>
      <point x="557.9" y="362" type="line"/>
      <point x="643.7" y="362" type="line"/>
      <point x="643.7" y="452.4" type="line"/>
      <point x="557.9" y="452.4" type="line"/>
    </contour>
    <contour>
      <point x="708.9" y="362" type="line"/>
      <point x="794.7" y="362" type="line"/>
      <point x="794.7" y="452.4" type="line"/>
      <point x="708.9" y="452.4" type="line"/>
    </contour>
    <contour>
      <point x="406.65" y="211.95" type="line"/>
      <point x="492.45" y="211.95" type="line"/>
      <point x="492.45" y="302.4" type="line"/>
      <point x="406.65" y="302.4" type="line"/>
    </contour>
    <contour>
      <point x="557.9" y="211.95" type="line"/>
      <point x="643.7" y="211.95" type="line"/>
      <point x="643.7" y="302.4" type="line"/>
      <point x="557.9" y="302.4" type="line"/>
    </contour>
    <contour>
      <point x="708.9" y="211.95" type="line"/>
      <point x="794.7" y="211.95" type="line"/>
      <point x="794.7" y="302.4" type="line"/>
      <point x="708.9" y="302.4" type="line"/>
    </contour>
    <contour>
      <point x="495.6" y="-64.65" type="line"/>
      <point x="495.6" y="92.5" type="line"/>
      <point x="577.15" y="92.5" type="line"/>
      <point x="577.15" y="-64.65" type="line"/>
    </contour>
    <contour>
      <point x="627.25" y="-64.65" type="line"/>
      <point x="627.25" y="92.5" type="line"/>
      <point x="704.7" y="92.5" type="line"/>
      <point x="704.7" y="-64.65" type="line"/>
    </contour>
  </outline>
</glyph>
<glyph name="confirmation" format="2">
  <advance width="1200"/>
  <unicode hex="E01D"/>
  <outline>
    <contour>
      <point x="169" y="159.1" type="line"/>
      <point x="509.1" y="159.1" type="line"/>
      <point x="509.1" y="100.25" type="line"/>
      <point x="449.25" y="100.25" type="line"/>
      <point x="449.25" y="-70.95" type="line"/>
      <point x="509.1" y="-70.95" type="line"/>
      <point x="509.1" y="-143" type="line"/>
      <point x="569.1" y="-143" type="line"/>
      <point x="569.1" y="-70.95" type="line"/>
      <point x="628.3" y="-70.95" type="line"/>
      <point x="628.3" y="100.25" type="line"/>
      <point x="569.1" y="100.25" type="line"/>
      <point x="569.1" y="159.1" type="line"/>
      <point x="901.65" y="159.1" type="line"/>
      <point x="901.65" y="534.4" type="line"/>
      <point x="569.1" y="534.4" type="line"/>
      <point x="569.1" y="595.25" type="line"/>
      <point x="628.3" y="595.25" type="line"/>
      <point x="628.3" y="740" type="line"/>
      <point x="449.25" y="740" type="line"/>
      <point x="449.25" y="595.25" type="line"/>
      <point x="509.1" y="595.25" type="line"/>
      <point x="509.1" y="534.4" type="line"/>
      <point x="169" y="534.4" type="line"/>
    </contour>
    <contour>
      <point x="229" y="215.1" type="line"/>
      <point x="229" y="478.4" type="line"/>
      <point x="841.6" y="478.4" type="line"/>
      <point x="841.6" y="215.1" type="line"/>
    </contour>
    <contour>
      <point x="458.25" y="432.55" type="line"/>
      <point x="481.85" y="361.35" type="line"/>
      <point x="431.05" y="361.35" type="line"/>
      <point x="431.05" y="315.1" type="line"/>
      <point x="666.15" y="315.1" type="line"/>
    </contour>
    <contour>
      <point x="275.7" y="332.25" type="curve" smooth="yes"/>
      <point x="275.7" y="303.05"/>
      <point x="295.2" y="283.55"/>
      <point x="324.45" y="283.55" type="curve" smooth="yes"/>
      <point x="353.7" y="283.55"/>
      <point x="373.2" y="303.05"/>
      <point x="373.2" y="332.25" type="curve" smooth="yes"/>
      <point x="373.2" y="361.5"/>
      <point x="353.7" y="381"/>
      <point x="324.45" y="381" type="curve" smooth="yes"/>
      <point x="295.2" y="381"/>
      <point x="275.7" y="361.5"/>
    </contour>
    <contour>
      <point x="699.9" y="332.25" type="curve" smooth="yes"/>
      <point x="699.9" y="303.05"/>
      <point x="719.4" y="283.55"/>
      <point x="748.6" y="283.55" type="curve" smooth="yes"/>
      <point x="777.85" y="283.55"/>
      <point x="797.35" y="303.05"/>
      <point x="797.35" y="332.25" type="curve" smooth="yes"/>
      <point x="797.35" y="361.5"/>
      <point x="777.85" y="381"/>
      <point x="748.6" y="381" type="curve" smooth="yes"/>
      <point x="719.4" y="381"/>
      <point x="699.9" y="361.5"/>
    </contour>
    <contour>
      <point x="803.2" y="67.1" type="line" name="hr00"/>
      <point x="879.25" y="-127.05" type="line"/>
      <point x="937.15" y="-127.05" type="line"/>
      <point x="1078.55" y="254.6" type="line"/>
      <point x="1016.15" y="254.6" type="line"/>
      <point x="906.7" y="-48.8" type="line"/>
      <point x="869.7" y="67.1" type="line"/>
    </contour>
  </outline>
</glyph>
<glyph name="consensus" format="2">
  <advance width="1200"/>
  <unicode hex="E01E"/>
  <outline>
    <contour>
      <point x="354.35" y="561.95" type="line"/>
      <point x="218.5" y="561.95" type="line"/>
      <point x="218.5" y="420.8" type="line"/>
      <point x="266" y="420.8" type="line"/>
      <point x="266" y="196.9" type="line"/>
      <point x="218.5" y="196.9" type="line"/>
      <point x="218.5" y="55.7" type="line"/>
      <point x="349.75" y="55.7" type="line"/>
      <point x="538.05" y="-53.05" type="line"/>
      <point x="538.05" y="-132.9" type="line"/>
      <point x="673.9" y="-132.9" type="line"/>
      <point x="673.9" y="-47.7" type="line"/>
      <point x="852.95" y="55.7" type="line"/>
      <point x="984.15" y="55.7" type="line"/>
      <point x="984.15" y="196.9" type="line"/>
      <point x="936.7" y="196.9" type="line"/>
      <point x="936.7" y="420.8" type="line"/>
      <point x="984.15" y="420.8" type="line"/>
      <point x="984.15" y="561.95" type="line"/>
      <point x="848.35" y="561.95" type="line"/>
      <point x="848.35" y="542.25" type="line"/>
      <point x="669.9" y="645.3" type="line"/>
      <point x="669.9" y="731.75" type="line"/>
      <point x="534.05" y="731.75" type="line"/>
      <point x="534.05" y="646.05" type="line"/>
      <point x="354.35" y="542.25" type="line"/>
    </contour>
    <contour>
      <point x="354.35" y="196.9" type="line"/>
      <point x="305.6" y="196.9" type="line"/>
      <point x="305.6" y="420.8" type="line"/>
      <point x="354.35" y="420.8" type="line"/>
      <point x="354.35" y="496.55" type="line"/>
      <point x="534.05" y="600.3" type="line"/>
      <point x="534.05" y="590.55" type="line"/>
      <point x="669.9" y="590.55" type="line"/>
      <point x="669.9" y="599.6" type="line"/>
      <point x="848.35" y="496.55" type="line"/>
      <point x="848.35" y="420.8" type="line"/>
      <point x="897.15" y="420.8" type="line"/>
      <point x="897.15" y="196.9" type="line"/>
      <point x="848.35" y="196.9" type="line"/>
      <point x="848.35" y="98.75" type="line"/>
      <point x="673.9" y="-1.95001" type="line"/>
      <point x="673.9" y="8.29999" type="line"/>
      <point x="538.05" y="8.29999" type="line"/>
      <point x="538.05" y="-7.30001" type="line"/>
      <point x="354.35" y="98.75" type="line"/>
    </contour>
    <contour>
      <point x="457.3" y="356.35" type="line" name="hr00"/>
      <point x="550.45" y="115.1" type="line"/>
      <point x="613.3" y="115.1" type="line"/>
      <point x="749.45" y="479.15" type="line"/>
      <point x="690.45" y="479.15" type="line"/>
      <point x="579.75" y="181.6" type="line"/>
      <point x="521.8" y="356.35" type="line"/>
    </contour>
  </outline>
</glyph>
<glyph name="cryptocurrency" format="2">
  <advance width="1200"/>
  <unicode hex="E01F"/>
  <outline>
    <contour>
      <point x="157" y="299.6" type="curve" smooth="yes"/>
      <point x="157" y="543.9"/>
      <point x="355.3" y="742.2"/>
      <point x="599.6" y="742.2" type="curve" smooth="yes"/>
      <point x="843.85" y="742.2"/>
      <point x="1042.2" y="543.9"/>
      <point x="1042.2" y="299.6" type="curve" smooth="yes"/>
      <point x="1042.2" y="55.35"/>
      <point x="843.85" y="-143"/>
      <point x="599.6" y="-143" type="curve" smooth="yes"/>
      <point x="355.3" y="-143"/>
      <point x="157" y="55.35"/>
    </contour>
    <contour>
      <point x="216.5" y="299.6" type="curve" smooth="yes"/>
      <point x="216.5" y="88.2"/>
      <point x="388.15" y="-83.5"/>
      <point x="599.6" y="-83.5" type="curve" smooth="yes"/>
      <point x="811" y="-83.5"/>
      <point x="982.7" y="88.2"/>
      <point x="982.7" y="299.6" type="curve" smooth="yes"/>
      <point x="982.7" y="511.05"/>
      <point x="811" y="682.7"/>
      <point x="599.6" y="682.7" type="curve" smooth="yes"/>
      <point x="388.15" y="682.7"/>
      <point x="216.5" y="511.05"/>
    </contour>
    <contour>
      <point x="276.15" y="299.6" type="curve" smooth="yes"/>
      <point x="276.15" y="478.1"/>
      <point x="421.1" y="623.05"/>
      <point x="599.6" y="623.05" type="curve" smooth="yes"/>
      <point x="778.1" y="623.05"/>
      <point x="923" y="478.1"/>
      <point x="923" y="299.6" type="curve" smooth="yes"/>
      <point x="923" y="121.1"/>
      <point x="778.1" y="-23.8"/>
      <point x="599.6" y="-23.8" type="curve" smooth="yes"/>
      <point x="421.1" y="-23.8"/>
      <point x="276.15" y="121.1"/>
    </contour>
    <contour>
      <point x="601.9" y="90.1" type="curve" smooth="yes" name="hr00"/>
      <point x="611.05" y="90.1"/>
      <point x="619.8" y="90.65"/>
      <point x="628.15" y="91.65" type="curve"/>
      <point x="628.15" y="22.4" type="line"/>
      <point x="676" y="22.4" type="line"/>
      <point x="676" y="104.05" type="line"/>
      <point x="713.8" y="120.05"/>
      <point x="739.9" y="148.5"/>
      <point x="754.75" y="182.75" type="curve"/>
      <point x="710.75" y="212.85" type="line"/>
      <point x="690.7" y="169.6"/>
      <point x="655.95" y="143.35"/>
      <point x="602.7" y="143.35" type="curve" smooth="yes"/>
      <point x="527.8" y="143.35"/>
      <point x="487.65" y="194.3"/>
      <point x="487.65" y="264.55" type="curve" smooth="yes"/>
      <point x="487.65" y="332.5" type="line" smooth="yes"/>
      <point x="487.65" y="402.75"/>
      <point x="528.6" y="453.7"/>
      <point x="601.15" y="453.7" type="curve" smooth="yes"/>
      <point x="650.55" y="453.7"/>
      <point x="684.5" y="429.75"/>
      <point x="699.2" y="388.85" type="curve"/>
      <point x="748.6" y="415.1" type="line"/>
      <point x="734.6" y="448.8"/>
      <point x="710.75" y="476.2"/>
      <point x="676" y="492" type="curve"/>
      <point x="676" y="575.4" type="line"/>
      <point x="628.15" y="575.4" type="line"/>
      <point x="628.15" y="505.25" type="line"/>
      <point x="619.6" y="506.35"/>
      <point x="610.6" y="506.95"/>
      <point x="601.15" y="506.95" type="curve" smooth="yes"/>
      <point x="592.1" y="506.95"/>
      <point x="583.35" y="506.4"/>
      <point x="574.9" y="505.35" type="curve"/>
      <point x="574.9" y="575.4" type="line"/>
      <point x="527.05" y="575.4" type="line"/>
      <point x="527.05" y="492.8" type="line"/>
      <point x="459.65" y="464.3"/>
      <point x="421.3" y="394.2"/>
      <point x="421.3" y="298.5" type="curve" smooth="yes"/>
      <point x="421.3" y="203.45"/>
      <point x="459.2" y="133.05"/>
      <point x="527.05" y="104.35" type="curve"/>
      <point x="527.05" y="22.4" type="line"/>
      <point x="574.9" y="22.4" type="line"/>
      <point x="574.9" y="91.75" type="line"/>
      <point x="583.6" y="90.65"/>
      <point x="592.6" y="90.1"/>
    </contour>
  </outline>
  <guideline angle="0" color="0.545098,0,0.545098,1" x="0" y="719.633"/>
  <guideline angle="0" color="0.545098,0,0.545098,1" x="0" y="-120.129"/>
  <guideline angle="0" color="0.545098,0,0.545098,1" x="0" y="-143"/>
  <guideline angle="0" color="0.564706,0.223529,0.94902,1" x="0" y="742.22"/>
</glyph>
<glyph name="cryptography" format="2">
  <advance width="1200"/>
  <unicode hex="E021"/>
  <outline>
    <contour>
      <point x="193.6" y="549.95" type="curve" smooth="yes"/>
      <point x="193.6" y="454.1"/>
      <point x="251.3" y="387.15"/>
      <point x="340.6" y="375.05" type="curve"/>
      <point x="340.6" y="-48.9" type="line" smooth="yes"/>
      <point x="340.6" y="-96.9"/>
      <point x="371.5" y="-126.85"/>
      <point x="429.8" y="-127" type="curve" smooth="yes"/>
      <point x="505.75" y="-127.2" type="line"/>
      <point x="505.75" y="-66.2" type="line"/>
      <point x="415.5" y="-66.2" type="line"/>
      <point x="415.5" y="27.2" type="line"/>
      <point x="505.75" y="27.2" type="line"/>
      <point x="505.75" y="95.6" type="line"/>
      <point x="401.15" y="95.6" type="line"/>
      <point x="401.15" y="375.15" type="line"/>
      <point x="490" y="387.5"/>
      <point x="547.35" y="454.4"/>
      <point x="547.35" y="549.95" type="curve" smooth="yes"/>
      <point x="547.35" y="656.05"/>
      <point x="476.6" y="726.8"/>
      <point x="370.5" y="726.8" type="curve" smooth="yes"/>
      <point x="264.35" y="726.8"/>
      <point x="193.6" y="656.05"/>
    </contour>
    <contour>
      <point x="939.65" y="615.85" type="line"/>
      <point x="1011.6" y="615.85" type="line"/>
      <point x="1011.6" y="673.25" type="line"/>
      <point x="939.65" y="673.25" type="line"/>
    </contour>
    <contour>
      <point x="790.4" y="615.85" type="line"/>
      <point x="895.5" y="615.85" type="line"/>
      <point x="895.5" y="673.25" type="line"/>
      <point x="790.4" y="673.25" type="line"/>
    </contour>
    <contour>
      <point x="591.15" y="615.85" type="line"/>
      <point x="647.9" y="615.85" type="line"/>
      <point x="647.9" y="673.25" type="line"/>
      <point x="591.15" y="673.25" type="line"/>
    </contour>
    <contour>
      <point x="691.3" y="615.85" type="line"/>
      <point x="748.05" y="615.85" type="line"/>
      <point x="748.05" y="673.25" type="line"/>
      <point x="691.3" y="673.25" type="line"/>
    </contour>
    <contour>
      <point x="252.55" y="549.95" type="curve" smooth="yes"/>
      <point x="252.55" y="620.7"/>
      <point x="299.7" y="667.9"/>
      <point x="370.5" y="667.9" type="curve" smooth="yes"/>
      <point x="441.25" y="667.9"/>
      <point x="488.45" y="620.7"/>
      <point x="488.45" y="549.95" type="curve" smooth="yes"/>
      <point x="488.45" y="479.15"/>
      <point x="441.25" y="432"/>
      <point x="370.5" y="432" type="curve" smooth="yes"/>
      <point x="299.7" y="432"/>
      <point x="252.55" y="479.15"/>
    </contour>
    <contour>
      <point x="738.1" y="476.8" type="line"/>
      <point x="954.1" y="476.8" type="line"/>
      <point x="954.1" y="534.2" type="line"/>
      <point x="738.1" y="534.2" type="line"/>
    </contour>
    <contour>
      <point x="591.15" y="476.8" type="line"/>
      <point x="694.75" y="476.8" type="line"/>
      <point x="694.75" y="534.2" type="line"/>
      <point x="591.15" y="534.2" type="line"/>
    </contour>
    <contour>
      <point x="772.1" y="337.7" type="line"/>
      <point x="936.35" y="337.7" type="line"/>
      <point x="936.35" y="395.1" type="line"/>
      <point x="772.1" y="395.1" type="line"/>
    </contour>
    <contour>
      <point x="667.9" y="337.7" type="line"/>
      <point x="729.4" y="337.7" type="line"/>
      <point x="729.4" y="395.1" type="line"/>
      <point x="667.9" y="395.1" type="line"/>
    </contour>
    <contour>
      <point x="547" y="337.7" type="line"/>
      <point x="624.4" y="337.7" type="line"/>
      <point x="624.4" y="395.1" type="line"/>
      <point x="547" y="395.1" type="line"/>
    </contour>
    <contour>
      <point x="724.1" y="194.6" type="line"/>
      <point x="785.6" y="194.6" type="line"/>
      <point x="785.6" y="252" type="line"/>
      <point x="724.1" y="252" type="line"/>
    </contour>
    <contour>
      <point x="825.5" y="194.6" type="line"/>
      <point x="886.95" y="194.6" type="line"/>
      <point x="886.95" y="252" type="line"/>
      <point x="825.5" y="252" type="line"/>
    </contour>
    <contour>
      <point x="925.9" y="194.6" type="line"/>
      <point x="987.35" y="194.6" type="line"/>
      <point x="987.35" y="252" type="line"/>
      <point x="925.9" y="252" type="line"/>
    </contour>
    <contour>
      <point x="477.2" y="194.6" type="line"/>
      <point x="684.5" y="194.6" type="line"/>
      <point x="684.5" y="252" type="line"/>
      <point x="477.2" y="252" type="line"/>
    </contour>
    <contour>
      <point x="661.6" y="52.45" type="line"/>
      <point x="804.35" y="52.45" type="line"/>
      <point x="804.35" y="109.8" type="line"/>
      <point x="661.6" y="109.8" type="line"/>
    </contour>
    <contour>
      <point x="562.8" y="52.25" type="line"/>
      <point x="624.25" y="52.25" type="line"/>
      <point x="624.25" y="109.65" type="line"/>
      <point x="562.8" y="109.65" type="line"/>
    </contour>
    <contour>
      <point x="841.25" y="52.25" type="line"/>
      <point x="1011.6" y="52.25" type="line"/>
      <point x="1011.6" y="109.65" type="line"/>
      <point x="841.25" y="109.65" type="line"/>
    </contour>
    <contour>
      <point x="875.1" y="-84.8" type="line"/>
      <point x="936.55" y="-84.8" type="line"/>
      <point x="936.55" y="-27.4" type="line"/>
      <point x="875.1" y="-27.4" type="line"/>
    </contour>
    <contour>
      <point x="563.1" y="-84.8" type="line"/>
      <point x="836.5" y="-84.8" type="line"/>
      <point x="836.5" y="-27.4" type="line"/>
      <point x="563.1" y="-27.4" type="line"/>
    </contour>
  </outline>
</glyph>
<glyph name="cryptography_asymmetric" format="2">
  <advance width="1200"/>
  <unicode hex="E022"/>
  <outline>
    <contour>
      <point x="389.05" y="320.45" type="line" smooth="yes"/>
      <point x="389.05" y="350.5"/>
      <point x="372.7" y="370.1"/>
      <point x="344.05" y="373.8" type="curve"/>
      <point x="344.05" y="428.75" type="line" smooth="yes"/>
      <point x="344.05" y="513"/>
      <point x="302.7" y="557.85"/>
      <point x="233.75" y="557.85" type="curve" smooth="yes"/>
      <point x="164.85" y="557.85"/>
      <point x="124.25" y="512.15"/>
      <point x="124.25" y="428.75" type="curve" smooth="yes"/>
      <point x="124.25" y="373.6" type="line"/>
      <point x="96.85" y="369.5"/>
      <point x="80.9" y="350.05"/>
      <point x="80.9" y="320.45" type="curve" smooth="yes"/>
      <point x="80.9" y="137.5" type="line" smooth="yes"/>
      <point x="80.9" y="104"/>
      <point x="101.3" y="83.5"/>
      <point x="135.6" y="83.5" type="curve" smooth="yes"/>
      <point x="333.7" y="83.5" type="line" smooth="yes"/>
      <point x="368.75" y="83.5"/>
      <point x="389.05" y="104"/>
      <point x="389.05" y="137.5" type="curve" smooth="yes"/>
    </contour>
    <contour>
      <point x="701.45" y="425.3" type="curve" smooth="yes"/>
      <point x="701.4" y="493.7"/>
      <point x="655.75" y="539.3"/>
      <point x="587.35" y="539.25" type="curve" smooth="yes"/>
      <point x="518.9" y="539.2"/>
      <point x="473.3" y="493.55"/>
      <point x="473.35" y="425.1" type="curve" smooth="yes"/>
      <point x="473.4" y="366.4"/>
      <point x="507.05" y="324.5"/>
      <point x="559.85" y="313.85" type="curve"/>
      <point x="559.9" y="217.2" type="line"/>
      <point x="486.35" y="217.15" type="line"/>
      <point x="486.4" y="159.65" type="line"/>
      <point x="559.95" y="159.7" type="line"/>
      <point x="560" y="99.55" type="line"/>
      <point x="486.45" y="99.5" type="line"/>
      <point x="486.5" y="41.5" type="line"/>
      <point x="528.35" y="41.7" type="line" smooth="yes"/>
      <point x="586.65" y="42"/>
      <point x="617.55" y="71.85"/>
      <point x="617.5" y="119.85" type="curve" smooth="yes"/>
      <point x="617.35" y="314.35" type="line"/>
      <point x="668.85" y="325.8"/>
      <point x="701.5" y="367.4"/>
    </contour>
    <contour>
      <point x="175.9" y="374.45" type="line"/>
      <point x="175.9" y="428.4" type="line" smooth="yes"/>
      <point x="175.9" y="474.3"/>
      <point x="191.95" y="506.7"/>
      <point x="234.25" y="506.7" type="curve" smooth="yes"/>
      <point x="279.5" y="506.7"/>
      <point x="292.45" y="474.3"/>
      <point x="292.45" y="428.4" type="curve" smooth="yes"/>
      <point x="292.45" y="374.45" type="line"/>
    </contour>
    <contour>
      <point x="645.1" y="425.25" type="curve" smooth="yes"/>
      <point x="645.1" y="390.65"/>
      <point x="622.05" y="367.55"/>
      <point x="587.45" y="367.5" type="curve" smooth="yes"/>
      <point x="552.85" y="367.5"/>
      <point x="529.75" y="390.55"/>
      <point x="529.75" y="425.15" type="curve" smooth="yes"/>
      <point x="529.7" y="459.75"/>
      <point x="552.75" y="482.85"/>
      <point x="587.35" y="482.85" type="curve" smooth="yes"/>
      <point x="621.95" y="482.9"/>
      <point x="645.05" y="459.85"/>
    </contour>
    <contour>
      <point x="740.4" y="263" type="curve"/>
      <point x="757.5" y="214.9"/>
      <point x="832.3" y="138.45"/>
      <point x="942.3" y="138.45" type="curve" smooth="yes"/>
      <point x="1052.35" y="138.45"/>
      <point x="1122.5" y="214.6"/>
      <point x="1143.65" y="263" type="curve"/>
      <point x="1122.5" y="311.5"/>
      <point x="1054.15" y="387.15"/>
      <point x="942.3" y="387.15" type="curve" smooth="yes"/>
      <point x="830.5" y="387.15"/>
      <point x="757.5" y="310.3"/>
    </contour>
    <contour>
      <point x="871.65" y="263.05" type="curve" smooth="yes"/>
      <point x="871.65" y="305.45"/>
      <point x="899.95" y="333.75"/>
      <point x="942.35" y="333.75" type="curve" smooth="yes"/>
      <point x="984.8" y="333.75"/>
      <point x="1013.05" y="305.45"/>
      <point x="1013.05" y="263.05" type="curve" smooth="yes"/>
      <point x="1013.05" y="220.6"/>
      <point x="984.8" y="192.35"/>
      <point x="942.35" y="192.35" type="curve" smooth="yes"/>
      <point x="899.95" y="192.35"/>
      <point x="871.65" y="220.6"/>
    </contour>
    <contour>
      <point x="184" y="279.35" type="curve" smooth="yes"/>
      <point x="184" y="309.15"/>
      <point x="203.85" y="329"/>
      <point x="233.65" y="329" type="curve" smooth="yes"/>
      <point x="263.4" y="329"/>
      <point x="283.3" y="309.15"/>
      <point x="283.3" y="279.35" type="curve" smooth="yes"/>
      <point x="283.3" y="256.8"/>
      <point x="271.85" y="239.95"/>
      <point x="253.35" y="233.1" type="curve"/>
      <point x="276.3" y="151.1" type="line"/>
      <point x="276.3" y="127.35" type="line"/>
      <point x="191.8" y="127.35" type="line"/>
      <point x="191.8" y="150.7" type="line"/>
      <point x="214.75" y="232.8" type="line"/>
      <point x="195.75" y="239.45"/>
      <point x="184" y="256.45"/>
    </contour>
  </outline>
</glyph>
<glyph name="cypherpunk_left" format="2">
  <advance width="1200"/>
  <unicode hex="E024"/>
  <outline>
    <contour>
      <point x="65.1" y="-59.1" type="line"/>
      <point x="90.6" y="-12.25" type="line" smooth="yes"/>
      <point x="121.5" y="44.5"/>
      <point x="182.05" y="79.95"/>
      <point x="239.1" y="79.95" type="curve" smooth="yes"/>
      <point x="256.45" y="79.95"/>
      <point x="276.4" y="72.3"/>
      <point x="293.1" y="63.9" type="curve"/>
      <point x="290.2" y="81.9"/>
      <point x="290.75" y="111.9"/>
      <point x="299.65" y="131.4" type="curve" smooth="yes"/>
      <point x="319.85" y="175.7"/>
      <point x="380.35" y="190.65"/>
      <point x="421.5" y="190.5" type="curve"/>
      <point x="421.95" y="222.85" type="line"/>
      <point x="376.5" y="222.85" type="line" smooth="yes"/>
      <point x="332.05" y="222.85"/>
      <point x="297.2" y="239.5"/>
      <point x="301.85" y="294.85" type="curve" smooth="yes"/>
      <point x="305.8" y="342.05" type="line"/>
      <point x="288.9" y="340.6" type="line" smooth="yes"/>
      <point x="255.4" y="337.75"/>
      <point x="238.45" y="370.2"/>
      <point x="250.1" y="403" type="curve" smooth="yes"/>
      <point x="307.8" y="564.7" type="line"/>
      <point x="192.75" y="657.95" type="line"/>
      <point x="274.3" y="706.05"/>
      <point x="372.55" y="739.6"/>
      <point x="482.35" y="739.6" type="curve" smooth="yes"/>
      <point x="512.05" y="739.6"/>
      <point x="541.55" y="736.85"/>
      <point x="570.1" y="731.6" type="curve"/>
      <point x="570.1" y="780" type="line"/>
      <point x="629.8" y="780" type="line"/>
      <point x="629.904" y="650.803" type="line"/>
      <point x="730.2" y="569.65" type="line"/>
      <point x="741.6" y="581"/>
      <point x="757.25" y="588"/>
      <point x="774.6" y="588" type="curve" smooth="yes"/>
      <point x="795" y="588"/>
      <point x="813.2" y="578.2"/>
      <point x="824.7" y="563.1" type="curve"/>
      <point x="922.9" y="606.35" type="line"/>
      <point x="922.9" y="635.2"/>
      <point x="945.75" y="658.05"/>
      <point x="973.9" y="658.05" type="curve" smooth="yes"/>
      <point x="1002.05" y="658.05"/>
      <point x="1024.9" y="635.2"/>
      <point x="1024.9" y="607.05" type="curve" smooth="yes"/>
      <point x="1024.9" y="578.9"/>
      <point x="1002.05" y="556.05"/>
      <point x="973.9" y="556.05" type="curve" smooth="yes"/>
      <point x="958.7" y="556.05"/>
      <point x="945" y="562.75"/>
      <point x="935.65" y="573.35" type="curve"/>
      <point x="837.468" y="529.032" type="line"/>
      <point x="837.56" y="527.246"/>
      <point x="837.56" y="527.236"/>
      <point x="837.6" y="525" type="curve"/>
      <point x="837.6" y="512.8"/>
      <point x="834.1" y="501.4"/>
      <point x="828.1" y="491.75" type="curve"/>
      <point x="935.7" y="351.9" type="line"/>
      <point x="947.9" y="357.85"/>
      <point x="962.2" y="361.1"/>
      <point x="978.15" y="361.1" type="curve" smooth="yes"/>
      <point x="996.8" y="361.1"/>
      <point x="1013.2" y="356.65"/>
      <point x="1026.6" y="348.6" type="curve"/>
      <point x="1082.6" y="409.5" type="line"/>
      <point x="1078.25" y="417"/>
      <point x="1075.75" y="425.65"/>
      <point x="1075.75" y="434.95" type="curve" smooth="yes"/>
      <point x="1075.75" y="463.1"/>
      <point x="1098.6" y="485.95"/>
      <point x="1126.75" y="485.95" type="curve" smooth="yes"/>
      <point x="1154.9" y="485.95"/>
      <point x="1177.75" y="463.1"/>
      <point x="1177.75" y="434.95" type="curve" smooth="yes"/>
      <point x="1177.75" y="406.8"/>
      <point x="1154.9" y="383.95"/>
      <point x="1126.75" y="383.95" type="curve" smooth="yes"/>
      <point x="1120.75" y="383.95"/>
      <point x="1115.05" y="385"/>
      <point x="1109.7" y="386.9" type="curve"/>
      <point x="1051.8" y="324.15" type="line"/>
      <point x="1060.55" y="310.4"/>
      <point x="1065.4" y="293.35"/>
      <point x="1065.4" y="273.85" type="curve" smooth="yes"/>
      <point x="1065.4" y="224.15"/>
      <point x="1033.95" y="190.2"/>
      <point x="985.95" y="186.85" type="curve"/>
      <point x="949" y="10.25" type="line"/>
      <point x="960.45" y="-1.15001"/>
      <point x="967.55" y="-16.95"/>
      <point x="967.55" y="-34.35" type="curve" smooth="yes"/>
      <point x="967.55" y="-69.15"/>
      <point x="939.3" y="-97.35"/>
      <point x="904.55" y="-97.35" type="curve" smooth="yes"/>
      <point x="869.75" y="-97.35"/>
      <point x="841.55" y="-69.15"/>
      <point x="841.55" y="-34.35" type="curve" smooth="yes"/>
      <point x="841.55" y="-24.5"/>
      <point x="843.85" y="-15.2"/>
      <point x="847.9" y="-6.90001" type="curve"/>
      <point x="782.35" y="92.65" type="line"/>
      <point x="772.55" y="86.35"/>
      <point x="760.95" y="82.7"/>
      <point x="748.45" y="82.7" type="curve" smooth="yes"/>
      <point x="718.55" y="82.7"/>
      <point x="693.45" y="103.65"/>
      <point x="687.05" y="131.6" type="curve"/>
      <point x="629.8" y="129.25" type="line"/>
      <point x="629.8" y="-17.4" type="line"/>
      <point x="661.1" y="-21.05"/>
      <point x="685.45" y="-47.7"/>
      <point x="685.45" y="-79.95" type="curve" smooth="yes"/>
      <point x="685.45" y="-112.25"/>
      <point x="661.1" y="-138.85"/>
      <point x="629.8" y="-142.5" type="curve"/>
      <point x="629.8" y="-175.1" type="line"/>
      <point x="570.1" y="-175.1" type="line"/>
      <point x="570.1" y="-119.5" type="line"/>
      <point x="64.85" y="-119.5" type="line"/>
    </contour>
    <contour>
      <point x="476.1" y="18.85" type="line"/>
      <point x="570.1" y="135.25" type="line"/>
      <point x="570.1" y="309.4" type="line"/>
      <point x="557.45" y="314.35"/>
      <point x="548.55" y="326.05"/>
      <point x="548.55" y="339.7" type="curve" smooth="yes"/>
      <point x="548.55" y="353.65"/>
      <point x="557.5" y="365.55"/>
      <point x="570.1" y="370.2" type="curve"/>
      <point x="570.1" y="616.65" type="line"/>
      <point x="488.6" y="613.35"/>
      <point x="455.5" y="584.45"/>
      <point x="410.45" y="538.2" type="curve"/>
      <point x="350.8" y="538.2" type="line"/>
      <point x="299.4" y="382.5" type="line"/>
      <point x="349.4" y="382.5" type="line"/>
      <point x="345.3" y="272.45" type="line"/>
      <point x="414.6" y="268.55" type="line" smooth="yes"/>
      <point x="458.65" y="266.1"/>
      <point x="476.35" y="242.75"/>
      <point x="476.3" y="210.9" type="curve" smooth="yes"/>
    </contour>
    <contour>
      <point x="711.6" y="525" type="curve" smooth="yes"/>
      <point x="711.6" y="529.5"/>
      <point x="712.05" y="533.9"/>
      <point x="712.95" y="538.1" type="curve"/>
      <point x="629.8" y="603.35" type="line"/>
      <point x="629.8" y="461" type="line"/>
      <point x="713" y="511.85" type="line"/>
      <point x="712.1" y="516.1"/>
      <point x="711.6" y="520.5"/>
    </contour>
    <contour>
      <point x="724.5" y="203.95" type="line"/>
      <point x="729" y="205.8"/>
      <point x="733.75" y="207.15"/>
      <point x="738.7" y="207.95" type="curve"/>
      <point x="752.9" y="465.85" type="line"/>
      <point x="744.1" y="469.1"/>
      <point x="736.25" y="474.2"/>
      <point x="729.85" y="480.7" type="curve"/>
      <point x="629.8" y="418.85" type="line"/>
      <point x="629.8" y="302" type="line"/>
    </contour>
    <contour>
      <point x="890.9" y="273.85" type="curve" smooth="yes"/>
      <point x="890.9" y="295.95"/>
      <point x="897.1" y="314.9"/>
      <point x="908.2" y="329.45" type="curve"/>
      <point x="800.75" y="467.75" type="line"/>
      <point x="797" y="466"/>
      <point x="793.05" y="464.6"/>
      <point x="788.95" y="463.65" type="curve"/>
      <point x="773.75" y="203.4" type="line"/>
      <point x="778.95" y="201.1"/>
      <point x="783.8" y="198.1"/>
      <point x="788.2" y="194.5" type="curve"/>
      <point x="895.1" y="244.25" type="line"/>
      <point x="892.35" y="253.3"/>
      <point x="890.9" y="263.2"/>
    </contour>
    <contour>
      <point x="449.9" y="390.3" type="curve" smooth="yes"/>
      <point x="428.15" y="390.3"/>
      <point x="414.2" y="403.25"/>
      <point x="414.2" y="426" type="curve" smooth="yes"/>
      <point x="414.2" y="448.7"/>
      <point x="428.15" y="461.65"/>
      <point x="449.9" y="461.65" type="curve" smooth="yes"/>
      <point x="471.6" y="461.65"/>
      <point x="485.6" y="448.7"/>
      <point x="485.6" y="426" type="curve" smooth="yes"/>
      <point x="485.6" y="403.25"/>
      <point x="471.6" y="390.3"/>
    </contour>
    <contour>
      <point x="937.1" y="273.85" type="curve" smooth="yes"/>
      <point x="937.1" y="249.25"/>
      <point x="953.5" y="232.8"/>
      <point x="978.15" y="232.8" type="curve" smooth="yes"/>
      <point x="1002.8" y="232.8"/>
      <point x="1019.2" y="249.25"/>
      <point x="1019.2" y="273.85" type="curve" smooth="yes"/>
      <point x="1019.2" y="298.5"/>
      <point x="1002.8" y="314.9"/>
      <point x="978.15" y="314.9" type="curve" smooth="yes"/>
      <point x="953.5" y="314.9"/>
      <point x="937.1" y="298.5"/>
    </contour>
    <contour>
      <point x="629.8" y="163.55" type="line"/>
      <point x="688.8" y="166" type="line"/>
      <point x="690.7" y="171.6"/>
      <point x="693.4" y="176.9"/>
      <point x="696.75" y="181.7" type="curve"/>
      <point x="629.8" y="250.8" type="line"/>
    </contour>
    <contour>
      <point x="871.9" y="19.5" type="line"/>
      <point x="881.45" y="25.3"/>
      <point x="892.6" y="28.65"/>
      <point x="904.55" y="28.65" type="curve" smooth="yes"/>
      <point x="908.65" y="28.65"/>
      <point x="912.6" y="28.25"/>
      <point x="916.5" y="27.5" type="curve"/>
      <point x="949.7" y="190.45" type="line"/>
      <point x="933.9" y="195"/>
      <point x="920.75" y="203.4"/>
      <point x="910.85" y="214.95" type="curve"/>
      <point x="807.9" y="166.6" type="line"/>
      <point x="810.2" y="160.05"/>
      <point x="811.45" y="153.05"/>
      <point x="811.45" y="145.7" type="curve" smooth="yes"/>
      <point x="811.45" y="136"/>
      <point x="809.2" y="126.85"/>
      <point x="805.3" y="118.65" type="curve"/>
    </contour>
    <contour>
      <point x="239.55" y="29.9" type="curve" smooth="yes"/>
      <point x="192.55" y="29.9"/>
      <point x="139.9" y="-1.75"/>
      <point x="108.4" y="-73.1" type="curve"/>
      <point x="436.8" y="-73.1" type="line"/>
      <point x="437.1" y="-7.1" type="line"/>
      <point x="324.1" y="-7.1"/>
      <point x="301.2" y="29.9"/>
    </contour>
  </outline>
  <guideline angle="0" x="0" y="-26"/>
  <guideline angle="0" x="0" y="752"/>
  <guideline angle="0" x="0" y="665.674"/>
  <guideline angle="0" x="0" y="760.758"/>
  <guideline angle="0" x="0" y="-157.88"/>
  <guideline angle="0" x="0" y="357.562"/>
</glyph>
<glyph name="cypherpunk_right" format="2">
  <advance width="1200"/>
  <unicode hex="E025"/>
  <outline>
    <contour>
      <point x="1136.3" y="-59.1" type="line"/>
      <point x="1136.55" y="-119.5" type="line"/>
      <point x="629.8" y="-119.5" type="line"/>
      <point x="629.8" y="-175.1" type="line"/>
      <point x="570.1" y="-175.1" type="line"/>
      <point x="570.1" y="-142.7" type="line"/>
      <point x="537.9" y="-139.9"/>
      <point x="512.6" y="-112.9"/>
      <point x="512.6" y="-79.95" type="curve" smooth="yes"/>
      <point x="512.6" y="-47.05"/>
      <point x="537.9" y="-20"/>
      <point x="570.1" y="-17.2" type="curve"/>
      <point x="570.1" y="129.2" type="line"/>
      <point x="511" y="131.6" type="line"/>
      <point x="504.6" y="103.65"/>
      <point x="479.5" y="82.7"/>
      <point x="449.6" y="82.7" type="curve" smooth="yes"/>
      <point x="437.1" y="82.7"/>
      <point x="425.5" y="86.35"/>
      <point x="415.7" y="92.65" type="curve"/>
      <point x="350.15" y="-6.85001" type="line"/>
      <point x="354.2" y="-15.15"/>
      <point x="356.5" y="-24.5"/>
      <point x="356.5" y="-34.35" type="curve" smooth="yes"/>
      <point x="356.5" y="-69.15"/>
      <point x="328.3" y="-97.35"/>
      <point x="293.5" y="-97.35" type="curve" smooth="yes"/>
      <point x="258.75" y="-97.35"/>
      <point x="230.5" y="-69.15"/>
      <point x="230.5" y="-34.35" type="curve" smooth="yes"/>
      <point x="230.5" y="-16.95"/>
      <point x="237.6" y="-1.15001"/>
      <point x="249.05" y="10.25" type="curve"/>
      <point x="212.1" y="186.85" type="line"/>
      <point x="164.1" y="190.2"/>
      <point x="132.65" y="224.15"/>
      <point x="132.65" y="273.85" type="curve" smooth="yes"/>
      <point x="132.65" y="293.35"/>
      <point x="137.5" y="310.4"/>
      <point x="146.25" y="324.15" type="curve"/>
      <point x="88.3" y="386.9" type="line"/>
      <point x="82.95" y="385"/>
      <point x="77.25" y="383.95"/>
      <point x="71.25" y="383.95" type="curve" smooth="yes"/>
      <point x="43.1" y="383.95"/>
      <point x="20.25" y="406.8"/>
      <point x="20.25" y="434.95" type="curve" smooth="yes"/>
      <point x="20.25" y="463.1"/>
      <point x="43.1" y="485.95"/>
      <point x="71.25" y="485.95" type="curve" smooth="yes"/>
      <point x="99.4" y="485.95"/>
      <point x="122.25" y="463.1"/>
      <point x="122.25" y="434.95" type="curve" smooth="yes"/>
      <point x="122.25" y="425.7"/>
      <point x="119.75" y="417"/>
      <point x="115.4" y="409.5" type="curve"/>
      <point x="171.45" y="348.6" type="line"/>
      <point x="184.85" y="356.65"/>
      <point x="201.25" y="361.1"/>
      <point x="219.9" y="361.1" type="curve" smooth="yes"/>
      <point x="235.85" y="361.1"/>
      <point x="250.15" y="357.85"/>
      <point x="262.35" y="351.9" type="curve"/>
      <point x="369.95" y="491.75" type="line"/>
      <point x="363.95" y="501.4"/>
      <point x="360.45" y="512.8"/>
      <point x="360.523" y="528.019" type="curve"/>
      <point x="360.58" y="529.011"/>
      <point x="360.581" y="529.021"/>
      <point x="360.6" y="529.3" type="curve"/>
      <point x="262.4" y="573.35" type="line"/>
      <point x="253.05" y="562.75"/>
      <point x="239.35" y="556.05"/>
      <point x="224.15" y="556.05" type="curve" smooth="yes"/>
      <point x="196" y="556.05"/>
      <point x="173.15" y="578.9"/>
      <point x="173.15" y="607.05" type="curve" smooth="yes"/>
      <point x="173.15" y="635.2"/>
      <point x="196" y="658.05"/>
      <point x="224.15" y="658.05" type="curve" smooth="yes"/>
      <point x="252.3" y="658.05"/>
      <point x="275.15" y="635.2"/>
      <point x="275.15" y="606.3" type="curve"/>
      <point x="373.35" y="563.1" type="line"/>
      <point x="384.85" y="578.2"/>
      <point x="403" y="588"/>
      <point x="423.45" y="588" type="curve" smooth="yes"/>
      <point x="440.75" y="588"/>
      <point x="456.45" y="581"/>
      <point x="467.85" y="569.7" type="curve"/>
      <point x="570.1" y="650" type="line"/>
      <point x="570.1" y="780" type="line"/>
      <point x="629.8" y="780" type="line"/>
      <point x="629.8" y="731.3" type="line"/>
      <point x="658.85" y="736.7"/>
      <point x="688.85" y="739.6"/>
      <point x="719.1" y="739.6" type="curve" smooth="yes"/>
      <point x="828.9" y="739.6"/>
      <point x="927.15" y="706.05"/>
      <point x="1008.7" y="657.95" type="curve"/>
      <point x="893.6" y="564.7" type="line"/>
      <point x="951.3" y="403" type="line" smooth="yes"/>
      <point x="963" y="370.2"/>
      <point x="946.05" y="337.75"/>
      <point x="912.5" y="340.6" type="curve" smooth="yes"/>
      <point x="895.6" y="342.05" type="line"/>
      <point x="899.6" y="294.85" type="line" smooth="yes"/>
      <point x="904.25" y="239.5"/>
      <point x="869.35" y="222.85"/>
      <point x="824.95" y="222.85" type="curve" smooth="yes"/>
      <point x="779.5" y="222.85" type="line"/>
      <point x="779.9" y="190.5" type="line"/>
      <point x="821.05" y="190.65"/>
      <point x="881.6" y="175.7"/>
      <point x="901.8" y="131.4" type="curve" smooth="yes"/>
      <point x="910.7" y="111.9"/>
      <point x="911.25" y="81.9"/>
      <point x="908.3" y="63.9" type="curve"/>
      <point x="925" y="72.3"/>
      <point x="945" y="79.95"/>
      <point x="962.3" y="79.95" type="curve" smooth="yes"/>
      <point x="1019.4" y="79.95"/>
      <point x="1079.95" y="44.5"/>
      <point x="1110.85" y="-12.25" type="curve" smooth="yes"/>
    </contour>
    <contour>
      <point x="725.35" y="18.85" type="line"/>
      <point x="725.15" y="210.9" type="line" smooth="yes"/>
      <point x="725.1" y="242.75"/>
      <point x="742.8" y="266.1"/>
      <point x="786.8" y="268.55" type="curve" smooth="yes"/>
      <point x="856.1" y="272.45" type="line"/>
      <point x="852.05" y="382.5" type="line"/>
      <point x="902" y="382.5" type="line"/>
      <point x="850.65" y="538.2" type="line"/>
      <point x="790.95" y="538.2" type="line"/>
      <point x="745.6" y="584.75"/>
      <point x="712.4" y="613.7"/>
      <point x="629.8" y="616.75" type="curve"/>
      <point x="629.8" y="495.9" type="line"/>
      <point x="630.5" y="495.9" type="line"/>
      <point x="630.5" y="453.9" type="line"/>
      <point x="629.8" y="453.9" type="line"/>
      <point x="629.8" y="370.75" type="line"/>
      <point x="643.2" y="366.5"/>
      <point x="652.85" y="354.2"/>
      <point x="652.85" y="339.7" type="curve" smooth="yes"/>
      <point x="652.85" y="325.55"/>
      <point x="643.25" y="313.45"/>
      <point x="629.8" y="308.85" type="curve"/>
      <point x="629.8" y="137.1" type="line"/>
    </contour>
    <contour>
      <point x="486.45" y="525" type="curve" smooth="yes"/>
      <point x="486.45" y="520.5"/>
      <point x="485.95" y="516.1"/>
      <point x="485.05" y="511.85" type="curve"/>
      <point x="570.1" y="459.9" type="line"/>
      <point x="570.1" y="604.8" type="line"/>
      <point x="485.05" y="538.1" type="line"/>
      <point x="485.95" y="533.9"/>
      <point x="486.45" y="529.5"/>
    </contour>
    <contour>
      <point x="459.35" y="207.95" type="line"/>
      <point x="464.3" y="207.15"/>
      <point x="469.05" y="205.85"/>
      <point x="473.55" y="204" type="curve"/>
      <point x="570.1" y="303.9" type="line"/>
      <point x="570.1" y="417.7" type="line"/>
      <point x="468.2" y="480.7" type="line"/>
      <point x="461.8" y="474.2"/>
      <point x="453.95" y="469.1"/>
      <point x="445.15" y="465.85" type="curve"/>
    </contour>
    <contour>
      <point x="307.15" y="273.85" type="curve" smooth="yes"/>
      <point x="307.15" y="263.2"/>
      <point x="305.7" y="253.3"/>
      <point x="302.95" y="244.25" type="curve"/>
      <point x="409.85" y="194.5" type="line"/>
      <point x="414.2" y="198.1"/>
      <point x="419.05" y="201.05"/>
      <point x="424.25" y="203.35" type="curve"/>
      <point x="409" y="463.7" type="line"/>
      <point x="404.95" y="464.65"/>
      <point x="401.05" y="466"/>
      <point x="397.3" y="467.75" type="curve"/>
      <point x="289.85" y="329.45" type="line"/>
      <point x="300.95" y="314.9"/>
      <point x="307.15" y="295.95"/>
    </contour>
    <contour>
      <point x="751.55" y="390.3" type="curve" smooth="yes"/>
      <point x="729.8" y="390.3"/>
      <point x="715.85" y="403.25"/>
      <point x="715.85" y="426" type="curve" smooth="yes"/>
      <point x="715.85" y="448.7"/>
      <point x="729.8" y="461.65"/>
      <point x="751.55" y="461.65" type="curve" smooth="yes"/>
      <point x="773.25" y="461.65"/>
      <point x="787.2" y="448.7"/>
      <point x="787.2" y="426" type="curve" smooth="yes"/>
      <point x="787.2" y="403.25"/>
      <point x="773.25" y="390.3"/>
    </contour>
    <contour>
      <point x="260.95" y="273.85" type="curve" smooth="yes"/>
      <point x="260.95" y="298.5"/>
      <point x="244.5" y="314.9"/>
      <point x="219.9" y="314.9" type="curve" smooth="yes"/>
      <point x="195.25" y="314.9"/>
      <point x="178.85" y="298.5"/>
      <point x="178.85" y="273.85" type="curve" smooth="yes"/>
      <point x="178.85" y="249.25"/>
      <point x="195.25" y="232.8"/>
      <point x="219.9" y="232.8" type="curve" smooth="yes"/>
      <point x="244.5" y="232.8"/>
      <point x="260.95" y="249.25"/>
    </contour>
    <contour>
      <point x="501.3" y="181.65" type="line"/>
      <point x="504.6" y="176.85"/>
      <point x="507.35" y="171.6"/>
      <point x="509.25" y="166" type="curve"/>
      <point x="570.1" y="163.5" type="line"/>
      <point x="570.1" y="252.75" type="line"/>
    </contour>
    <contour>
      <point x="281.55" y="27.5" type="line"/>
      <point x="285.45" y="28.25"/>
      <point x="289.4" y="28.65"/>
      <point x="293.5" y="28.65" type="curve" smooth="yes"/>
      <point x="305.45" y="28.65"/>
      <point x="316.6" y="25.3"/>
      <point x="326.15" y="19.5" type="curve"/>
      <point x="392.75" y="118.65" type="line"/>
      <point x="388.85" y="126.85"/>
      <point x="386.6" y="136"/>
      <point x="386.6" y="145.7" type="curve" smooth="yes"/>
      <point x="386.6" y="153"/>
      <point x="387.85" y="160.05"/>
      <point x="390.15" y="166.6" type="curve"/>
      <point x="287.2" y="214.95" type="line"/>
      <point x="277.3" y="203.4"/>
      <point x="264.1" y="195"/>
      <point x="248.35" y="190.45" type="curve"/>
    </contour>
    <contour>
      <point x="961.85" y="29.9" type="curve" smooth="yes"/>
      <point x="900.25" y="29.9"/>
      <point x="877.35" y="-7.1"/>
      <point x="764.35" y="-7.1" type="curve"/>
      <point x="764.65" y="-73.1" type="line"/>
      <point x="1093.05" y="-73.1" type="line"/>
      <point x="1061.5" y="-1.75"/>
      <point x="1008.9" y="29.9"/>
    </contour>
  </outline>
  <guideline angle="0" x="0" y="-26"/>
  <guideline angle="0" x="0" y="752"/>
  <guideline angle="0" x="0" y="665.674"/>
  <guideline angle="0" x="0" y="760.758"/>
  <guideline angle="0" x="0" y="-157.88"/>
  <guideline angle="0" x="0" y="357.562"/>
</glyph>
<glyph name="cypherpunk_symbol" format="2">
  <advance width="1200"/>
  <unicode hex="E026"/>
  <outline>
    <contour>
      <point x="258.2" y="95.85" type="line"/>
      <point x="953.85" y="95.85" type="line"/>
      <point x="953.85" y="276.35" type="line"/>
      <point x="978.35" y="284.307"/>
      <point x="996.05" y="302.717"/>
      <point x="1003.7" y="328.2" type="curve"/>
      <point x="1088.9" y="328.2" type="line"/>
      <point x="1088.9" y="384.25" type="line"/>
      <point x="1003.05" y="384.25" type="line"/>
      <point x="992.1" y="417.583"/>
      <point x="963.45" y="438.3"/>
      <point x="924.85" y="438.3" type="curve" smooth="yes"/>
      <point x="886.25" y="438.3"/>
      <point x="857.6" y="417.583"/>
      <point x="846.65" y="384.25" type="curve"/>
      <point x="794" y="384.25" type="line"/>
      <point x="720" y="499.65" type="line"/>
      <point x="604.3" y="332.85" type="line"/>
      <point x="498.6" y="499.65" type="line"/>
      <point x="422.75" y="384.25" type="line"/>
      <point x="365.7" y="384.25" type="line"/>
      <point x="354.75" y="417.583"/>
      <point x="326.1" y="438.3"/>
      <point x="287.5" y="438.3" type="curve" smooth="yes"/>
      <point x="248.9" y="438.3"/>
      <point x="220.25" y="417.583"/>
      <point x="209.3" y="384.25" type="curve"/>
      <point x="110.8" y="384.25" type="line"/>
      <point x="110.8" y="328.2" type="line"/>
      <point x="208.65" y="328.2" type="line"/>
      <point x="216.3" y="302.819"/>
      <point x="233.85" y="284.46"/>
      <point x="258.2" y="276.45" type="curve"/>
    </contour>
    <contour>
      <point x="767.4" y="328.2" type="line"/>
      <point x="846" y="328.2" type="line"/>
      <point x="853.45" y="303.433"/>
      <point x="870.4" y="285.325"/>
      <point x="893.8" y="277" type="curve"/>
      <point x="893.8" y="152.25" type="line"/>
      <point x="318.25" y="152.25" type="line"/>
      <point x="318.25" y="276.9" type="line"/>
      <point x="341.85" y="285.173"/>
      <point x="358.85" y="303.33"/>
      <point x="366.35" y="328.2" type="curve"/>
      <point x="450.5" y="328.2" type="line"/>
      <point x="503.7" y="397.55" type="line"/>
      <point x="605.3" y="235.65" type="line"/>
      <point x="722.25" y="400.45" type="line"/>
    </contour>
  </outline>
</glyph>
